Literata-M4.ufo
<glyph name="quotedbl" format="2">
	<unicode hex="0022"/>
	<advance width="490"/>
	<outline>
		<contour>
			<point x="101" y="501" type="line"/>
			<point x="167" y="501" type="line"/>
			<point x="219" y="700" type="line" smooth="yes"/>
			<point x="224" y="718"/>
			<point x="225" y="729"/>
			<point x="225" y="739" type="curve" smooth="yes"/>
			<point x="225" y="783"/>
			<point x="186" y="805"/>
			<point x="139" y="805" type="curve" smooth="yes"/>
			<point x="83" y="805"/>
			<point x="55" y="781"/>
			<point x="55" y="741" type="curve" smooth="yes"/>
			<point x="55" y="718"/>
			<point x="59" y="690"/>
			<point x="64" y="668" type="curve" smooth="yes"/>
		</contour>
		<contour>
			<point x="311" y="501" type="line"/>
			<point x="377" y="501" type="line"/>
			<point x="429" y="700" type="line" smooth="yes"/>
			<point x="434" y="718"/>
			<point x="435" y="729"/>
			<point x="435" y="739" type="curve" smooth="yes"/>
			<point x="435" y="783"/>
			<point x="396" y="805"/>
			<point x="349" y="805" type="curve" smooth="yes"/>
			<point x="293" y="805"/>
			<point x="265" y="781"/>
			<point x="265" y="741" type="curve" smooth="yes"/>
			<point x="265" y="718"/>
			<point x="269" y="690"/>
			<point x="274" y="668" type="curve" smooth="yes"/>
		</contour>
	</outline>
</glyph>
<glyph name="numbersign" format="2">
	<unicode hex="0023"/>
	<advance width="711"/>
	<outline>
		<contour>
			<point x="119" y="-18" type="line"/>
			<point x="264" y="-18" type="line"/>
			<point x="284" y="112" type="line"/>
			<point x="365" y="112" type="line"/>
			<point x="345" y="-18" type="line"/>
			<point x="490" y="-18" type="line"/>
			<point x="510" y="112" type="line"/>
			<point x="652" y="112" type="line"/>
			<point x="674" y="235" type="line"/>
			<point x="529" y="235" type="line"/>
			<point x="540" y="324" type="line"/>
			<point x="681" y="324" type="line"/>
			<point x="701" y="447" type="line"/>
			<point x="563" y="447" type="line"/>
			<point x="584" y="568" type="line"/>
			<point x="441" y="568" type="line"/>
			<point x="421" y="447" type="line"/>
			<point x="336" y="447" type="line"/>
			<point x="357" y="568" type="line"/>
			<point x="212" y="568" type="line"/>
			<point x="194" y="447" type="line"/>
			<point x="66" y="447" type="line"/>
			<point x="44" y="325" type="line"/>
			<point x="174" y="325" type="line"/>
			<point x="161" y="235" type="line"/>
			<point x="32" y="235" type="line"/>
			<point x="10" y="112" type="line"/>
			<point x="141" y="112" type="line"/>
		</contour>
		<contour>
			<point x="303" y="235" type="line"/>
			<point x="315" y="325" type="line"/>
			<point x="400" y="325" type="line"/>
			<point x="387" y="235" type="line"/>
		</contour>
	</outline>
</glyph>
<glyph name="dollar" format="2">
	<unicode hex="0024"/>
	<advance width="629"/>
	<outline>
		<contour>
			<point x="263" y="-90" type="line"/>
			<point x="349" y="-90" type="line"/>
			<point x="349" y="-14" type="line"/>
			<point x="468" y="-9"/>
			<point x="604" y="63"/>
			<point x="604" y="220" type="curve" smooth="yes"/>
			<point x="604" y="380"/>
			<point x="484" y="418"/>
			<point x="371" y="448" type="curve" smooth="yes"/>
			<point x="364" y="450"/>
			<point x="356" y="452"/>
			<point x="349" y="454" type="curve"/>
			<point x="349" y="584" type="line"/>
			<point x="391" y="576"/>
			<point x="444" y="548"/>
			<point x="476" y="465" type="curve"/>
			<point x="579" y="486" type="line"/>
			<point x="557" y="714" type="line"/>
			<point x="476" y="714" type="line"/>
			<point x="463" y="667" type="line"/>
			<point x="428" y="691"/>
			<point x="397" y="706"/>
			<point x="349" y="711" type="curve"/>
			<point x="349" y="806" type="line"/>
			<point x="263" y="806" type="line"/>
			<point x="263" y="712" type="line"/>
			<point x="73" y="694"/>
			<point x="36" y="544"/>
			<point x="36" y="479" type="curve" smooth="yes"/>
			<point x="36" y="362"/>
			<point x="86" y="306"/>
			<point x="223" y="259" type="curve" smooth="yes"/>
			<point x="236" y="254"/>
			<point x="249" y="250"/>
			<point x="263" y="246" type="curve"/>
			<point x="263" y="115" type="line"/>
			<point x="200" y="128"/>
			<point x="151" y="176"/>
			<point x="131" y="234" type="curve"/>
			<point x="30" y="216" type="line"/>
			<point x="42" y="-6" type="line"/>
			<point x="138" y="-6" type="line"/>
			<point x="149" y="43" type="line"/>
			<point x="177" y="22"/>
			<point x="217" y="3"/>
			<point x="263" y="-7" type="curve"/>
		</contour>
		<contour>
			<point x="349" y="118" type="curve"/>
			<point x="349" y="215" type="line"/>
			<point x="375" y="201"/>
			<point x="390" y="185"/>
			<point x="390" y="163" type="curve" smooth="yes"/>
			<point x="390" y="144"/>
			<point x="379" y="127"/>
		</contour>
		<contour>
			<point x="263" y="490" type="line"/>
			<point x="245" y="502"/>
			<point x="234" y="517"/>
			<point x="234" y="536" type="curve" smooth="yes"/>
			<point x="234" y="556"/>
			<point x="245" y="570"/>
			<point x="263" y="578" type="curve"/>
		</contour>
	</outline>
	<anchor name="bottom" x="330" y="-30"/>
	<anchor name="top" x="320" y="730"/>
</glyph>
<glyph name="quotesingle" format="2">
	<unicode hex="0027"/>
	<advance width="280"/>
	<outline>
		<contour>
			<point x="101" y="501" type="line"/>
			<point x="167" y="501" type="line"/>
			<point x="219" y="700" type="line" smooth="yes"/>
			<point x="224" y="718"/>
			<point x="225" y="729"/>
			<point x="225" y="739" type="curve" smooth="yes"/>
			<point x="225" y="783"/>
			<point x="186" y="805"/>
			<point x="139" y="805" type="curve" smooth="yes"/>
			<point x="83" y="805"/>
			<point x="55" y="781"/>
			<point x="55" y="741" type="curve" smooth="yes"/>
			<point x="55" y="718"/>
			<point x="59" y="690"/>
			<point x="64" y="668" type="curve" smooth="yes"/>
		</contour>
	</outline>
</glyph>
<glyph name="parenright" format="2">
	<unicode hex="0029"/>
	<advance width="381"/>
	<outline>
		<contour>
			<point x="100" y="-225" type="line"/>
			<point x="259" y="-53"/>
			<point x="350" y="120"/>
			<point x="350" y="340" type="curve" smooth="yes"/>
			<point x="350" y="547"/>
			<point x="238" y="701"/>
			<point x="98" y="839" type="curve"/>
			<point x="14" y="787" type="line"/>
			<point x="85" y="665"/>
			<point x="118" y="480"/>
			<point x="118" y="325" type="curve" smooth="yes"/>
			<point x="118" y="151"/>
			<point x="78" y="-30"/>
			<point x="14" y="-175" type="curve"/>
		</contour>
	</outline>
</glyph>
<glyph name="asterisk" format="2">
	<unicode hex="002A"/>
	<advance width="451"/>
	<outline>
		<contour>
			<point x="217" y="379" type="curve" smooth="yes"/>
			<point x="273" y="379"/>
			<point x="295" y="410"/>
			<point x="280" y="461" type="curve" smooth="yes"/>
			<point x="257" y="531" type="line"/>
			<point x="318" y="466" type="line" smooth="yes"/>
			<point x="353" y="429"/>
			<point x="383" y="434"/>
			<point x="408" y="476" type="curve" smooth="yes"/>
			<point x="436" y="525"/>
			<point x="419" y="559"/>
			<point x="368" y="572" type="curve" smooth="yes"/>
			<point x="281" y="593" type="line"/>
			<point x="379" y="616" type="line" smooth="yes"/>
			<point x="429" y="628"/>
			<point x="439" y="656"/>
			<point x="415" y="698" type="curve" smooth="yes"/>
			<point x="387" y="747"/>
			<point x="349" y="749"/>
			<point x="312" y="712" type="curve" smooth="yes"/>
			<point x="255" y="651" type="line"/>
			<point x="284" y="741" type="line" smooth="yes"/>
			<point x="299" y="789"/>
			<point x="278" y="812"/>
			<point x="230" y="812" type="curve" smooth="yes"/>
			<point x="174" y="812"/>
			<point x="151" y="781"/>
			<point x="167" y="730" type="curve" smooth="yes"/>
			<point x="192" y="652" type="line"/>
			<point x="134" y="720" type="line" smooth="yes"/>
			<point x="101" y="759"/>
			<point x="69" y="751"/>
			<point x="44" y="709" type="curve" smooth="yes"/>
			<point x="16" y="661"/>
			<point x="33" y="626"/>
			<point x="84" y="614" type="curve" smooth="yes"/>
			<point x="171" y="593" type="line"/>
			<point x="73" y="570" type="line" smooth="yes"/>
			<point x="23" y="558"/>
			<point x="13" y="530"/>
			<point x="37" y="488" type="curve" smooth="yes"/>
			<point x="65" y="439"/>
			<point x="105" y="434"/>
			<point x="140" y="474" type="curve" smooth="yes"/>
			<point x="190" y="534" type="line"/>
			<point x="163" y="450" type="line" smooth="yes"/>
			<point x="147" y="402"/>
			<point x="168" y="379"/>
		</contour>
	</outline>
</glyph>
<glyph name="plus" format="2">
	<unicode hex="002B"/>
	<advance width="582"/>
	<outline>
		<contour>
			<point x="208" y="85" type="line"/>
			<point x="367" y="85" type="line"/>
			<point x="367" y="230" type="line"/>
			<point x="501" y="230" type="line"/>
			<point x="501" y="385" type="line"/>
			<point x="367" y="385" type="line"/>
			<point x="367" y="517" type="line"/>
			<point x="208" y="517" type="line"/>
			<point x="208" y="385" type="line"/>
			<point x="81" y="385" type="line"/>
			<point x="81" y="230" type="line"/>
			<point x="208" y="230" type="line"/>
		</contour>
	</outline>
</glyph>
<glyph name="period" format="2">
	<unicode hex="002E"/>
	<advance width="325"/>
	<outline>
		<contour>
			<point x="163" y="-14" type="curve" smooth="yes"/>
			<point x="235" y="-14"/>
			<point x="280" y="25"/>
			<point x="280" y="85" type="curve" smooth="yes"/>
			<point x="280" y="146"/>
			<point x="240" y="184"/>
			<point x="163" y="184" type="curve" smooth="yes"/>
			<point x="87" y="184"/>
			<point x="45" y="145"/>
			<point x="45" y="86" type="curve" smooth="yes"/>
			<point x="45" y="24"/>
			<point x="88" y="-14"/>
		</contour>
	</outline>
</glyph>
<glyph name="two" format="2">
	<unicode hex="0032"/>
	<advance width="567"/>
	<outline>
		<contour>
			<point x="30" y="0" type="line"/>
			<point x="527" y="0" type="line"/>
			<point x="547" y="239" type="line"/>
			<point x="423" y="239" type="line"/>
			<point x="401" y="144"/>
			<point x="389" y="128"/>
			<point x="335" y="128" type="curve" smooth="yes"/>
			<point x="229" y="128" type="line"/>
			<point x="494" y="364"/>
			<point x="537" y="411"/>
			<point x="537" y="529" type="curve" smooth="yes"/>
			<point x="537" y="639"/>
			<point x="450" y="714"/>
			<point x="283" y="714" type="curve" smooth="yes"/>
			<point x="119" y="714"/>
			<point x="10" y="644"/>
			<point x="10" y="550" type="curve" smooth="yes"/>
			<point x="10" y="491"/>
			<point x="42" y="455"/>
			<point x="110" y="455" type="curve" smooth="yes"/>
			<point x="176" y="455"/>
			<point x="211" y="486"/>
			<point x="211" y="530" type="curve" smooth="yes"/>
			<point x="211" y="555"/>
			<point x="203" y="569"/>
			<point x="184" y="601" type="curve"/>
			<point x="206" y="608"/>
			<point x="227" y="610"/>
			<point x="243" y="610" type="curve" smooth="yes"/>
			<point x="277" y="610"/>
			<point x="298" y="588"/>
			<point x="298" y="540" type="curve" smooth="yes"/>
			<point x="298" y="418"/>
			<point x="247" y="352"/>
			<point x="19" y="103" type="curve"/>
		</contour>
	</outline>
</glyph>
<glyph name="three" format="2">
	<unicode hex="0033"/>
	<advance width="573"/>
	<outline>
		<contour>
			<point x="267" y="-14" type="curve" smooth="yes"/>
			<point x="432" y="-14"/>
			<point x="553" y="59"/>
			<point x="553" y="199" type="curve" smooth="yes"/>
			<point x="553" y="310"/>
			<point x="489" y="361"/>
			<point x="371" y="375" type="curve"/>
			<point x="371" y="381" type="line"/>
			<point x="486" y="406"/>
			<point x="536" y="461"/>
			<point x="536" y="549" type="curve" smooth="yes"/>
			<point x="536" y="661"/>
			<point x="441" y="714"/>
			<point x="292" y="714" type="curve" smooth="yes"/>
			<point x="117" y="714"/>
			<point x="26" y="637"/>
			<point x="26" y="555" type="curve" smooth="yes"/>
			<point x="26" y="504"/>
			<point x="53" y="464"/>
			<point x="116" y="464" type="curve" smooth="yes"/>
			<point x="190" y="464"/>
			<point x="214" y="504"/>
			<point x="214" y="531" type="curve" smooth="yes"/>
			<point x="214" y="553"/>
			<point x="208" y="570"/>
			<point x="189" y="602" type="curve"/>
			<point x="211" y="611"/>
			<point x="235" y="614"/>
			<point x="250" y="614" type="curve" smooth="yes"/>
			<point x="289" y="614"/>
			<point x="321" y="589"/>
			<point x="321" y="525" type="curve" smooth="yes"/>
			<point x="321" y="444"/>
			<point x="278" y="411"/>
			<point x="155" y="400" type="curve"/>
			<point x="144" y="285" type="line"/>
			<point x="269" y="293"/>
			<point x="322" y="276"/>
			<point x="322" y="215" type="curve" smooth="yes"/>
			<point x="322" y="165"/>
			<point x="298" y="139"/>
			<point x="235" y="139" type="curve" smooth="yes"/>
			<point x="185" y="139"/>
			<point x="135" y="157"/>
			<point x="80" y="193" type="curve"/>
			<point x="10" y="74" type="line"/>
			<point x="51" y="39"/>
			<point x="140" y="-14"/>
		</contour>
	</outline>
</glyph>
<glyph name="five" format="2">
	<unicode hex="0035"/>
	<advance width="579"/>
	<outline>
		<contour>
			<point x="263" y="-14" type="curve" smooth="yes"/>
			<point x="460" y="-14"/>
			<point x="554" y="76"/>
			<point x="554" y="240" type="curve" smooth="yes"/>
			<point x="554" y="382"/>
			<point x="463" y="461"/>
			<point x="324" y="461" type="curve" smooth="yes"/>
			<point x="271" y="461"/>
			<point x="227" y="453"/>
			<point x="192" y="436" type="curve"/>
			<point x="205" y="558" type="line"/>
			<point x="490" y="558" type="line"/>
			<point x="518" y="665" type="line"/>
			<point x="518" y="700" type="line"/>
			<point x="78" y="700" type="line"/>
			<point x="45" y="361" type="line"/>
			<point x="112" y="294" type="line"/>
			<point x="151" y="316"/>
			<point x="192" y="324"/>
			<point x="226" y="324" type="curve" smooth="yes"/>
			<point x="283" y="324"/>
			<point x="323" y="302"/>
			<point x="323" y="233" type="curve" smooth="yes"/>
			<point x="323" y="167"/>
			<point x="290" y="139"/>
			<point x="235" y="139" type="curve" smooth="yes"/>
			<point x="189" y="139"/>
			<point x="132" y="157"/>
			<point x="80" y="193" type="curve"/>
			<point x="10" y="75" type="line"/>
			<point x="84" y="15"/>
			<point x="166" y="-14"/>
		</contour>
	</outline>
</glyph>
<glyph name="six" format="2">
	<unicode hex="0036"/>
	<advance width="631"/>
	<outline>
		<contour>
			<point x="317" y="-16" type="curve" smooth="yes"/>
			<point x="493" y="-16"/>
			<point x="605" y="79"/>
			<point x="605" y="244" type="curve" smooth="yes"/>
			<point x="605" y="383"/>
			<point x="525" y="451"/>
			<point x="402" y="451" type="curve" smooth="yes"/>
			<point x="342" y="451"/>
			<point x="295" y="432"/>
			<point x="262" y="407" type="curve"/>
			<point x="272" y="571"/>
			<point x="325" y="616"/>
			<point x="380" y="616" type="curve" smooth="yes"/>
			<point x="403" y="616"/>
			<point x="421" y="612"/>
			<point x="438" y="605" type="curve"/>
			<point x="420" y="576"/>
			<point x="415" y="562"/>
			<point x="415" y="543" type="curve" smooth="yes"/>
			<point x="415" y="521"/>
			<point x="431" y="485"/>
			<point x="498" y="485" type="curve" smooth="yes"/>
			<point x="577" y="485"/>
			<point x="601" y="542"/>
			<point x="601" y="586" type="curve" smooth="yes"/>
			<point x="601" y="669"/>
			<point x="495" y="714"/>
			<point x="380" y="714" type="curve" smooth="yes"/>
			<point x="108" y="714"/>
			<point x="30" y="501"/>
			<point x="30" y="308" type="curve" smooth="yes"/>
			<point x="30" y="117"/>
			<point x="100" y="-16"/>
		</contour>
		<contour>
			<point x="325" y="104" type="curve" smooth="yes"/>
			<point x="277" y="104"/>
			<point x="258" y="150"/>
			<point x="258" y="237" type="curve" smooth="yes"/>
			<point x="258" y="308"/>
			<point x="288" y="332"/>
			<point x="326" y="332" type="curve" smooth="yes"/>
			<point x="364" y="332"/>
			<point x="388" y="306"/>
			<point x="388" y="223" type="curve" smooth="yes"/>
			<point x="388" y="140"/>
			<point x="366" y="104"/>
		</contour>
	</outline>
</glyph>
<glyph name="colon" format="2">
	<unicode hex="003A"/>
	<advance width="325"/>
	<outline>
		<contour>
			<point x="163" y="-14" type="curve" smooth="yes"/>
			<point x="235" y="-14"/>
			<point x="280" y="25"/>
			<point x="280" y="85" type="curve" smooth="yes"/>
			<point x="280" y="146"/>
			<point x="240" y="184"/>
			<point x="163" y="184" type="curve" smooth="yes"/>
			<point x="87" y="184"/>
			<point x="45" y="145"/>
			<point x="45" y="86" type="curve" smooth="yes"/>
			<point x="45" y="24"/>
			<point x="88" y="-14"/>
		</contour>
		<contour>
			<point x="163" y="333" type="curve" smooth="yes"/>
			<point x="235" y="333"/>
			<point x="280" y="372"/>
			<point x="280" y="432" type="curve" smooth="yes"/>
			<point x="280" y="493"/>
			<point x="240" y="531"/>
			<point x="163" y="531" type="curve" smooth="yes"/>
			<point x="87" y="531"/>
			<point x="45" y="492"/>
			<point x="45" y="433" type="curve" smooth="yes"/>
			<point x="45" y="371"/>
			<point x="88" y="333"/>
		</contour>
	</outline>
</glyph>
<glyph name="less" format="2">
	<unicode hex="003C"/>
	<advance width="582"/>
	<outline>
		<contour>
			<point x="418" y="37" type="line"/>
			<point x="491" y="161" type="line"/>
			<point x="280" y="285" type="line"/>
			<point x="491" y="410" type="line"/>
			<point x="418" y="532" type="line"/>
			<point x="80" y="325" type="line"/>
			<point x="80" y="243" type="line"/>
		</contour>
	</outline>
</glyph>
<glyph name="equal" format="2">
	<unicode hex="003D"/>
	<advance width="582"/>
	<outline>
		<contour>
			<point x="87" y="328" type="line"/>
			<point x="495" y="328" type="line"/>
			<point x="495" y="483" type="line"/>
			<point x="87" y="483" type="line"/>
		</contour>
		<contour>
			<point x="87" y="123" type="line"/>
			<point x="495" y="123" type="line"/>
			<point x="495" y="278" type="line"/>
			<point x="87" y="278" type="line"/>
		</contour>
	</outline>
</glyph>
<glyph name="question" format="2">
	<unicode hex="003F"/>
	<advance width="579"/>
	<outline>
		<contour>
			<point x="180" y="230" type="line"/>
			<point x="330" y="230" type="line"/>
			<point x="330" y="267" type="line" smooth="yes"/>
			<point x="330" y="294"/>
			<point x="333" y="315"/>
			<point x="399" y="357" type="curve" smooth="yes"/>
			<point x="513" y="429"/>
			<point x="549" y="474"/>
			<point x="549" y="551" type="curve" smooth="yes"/>
			<point x="549" y="651"/>
			<point x="462" y="714"/>
			<point x="296" y="714" type="curve" smooth="yes"/>
			<point x="117" y="714"/>
			<point x="25" y="637"/>
			<point x="25" y="551" type="curve" smooth="yes"/>
			<point x="25" y="497"/>
			<point x="62" y="466"/>
			<point x="118" y="466" type="curve" smooth="yes"/>
			<point x="175" y="466"/>
			<point x="198" y="493"/>
			<point x="198" y="525" type="curve" smooth="yes"/>
			<point x="198" y="549"/>
			<point x="189" y="565"/>
			<point x="171" y="595" type="curve"/>
			<point x="188" y="605"/>
			<point x="214" y="615"/>
			<point x="252" y="615" type="curve" smooth="yes"/>
			<point x="296" y="615"/>
			<point x="326" y="595"/>
			<point x="326" y="560" type="curve" smooth="yes"/>
			<point x="326" y="522"/>
			<point x="302" y="504"/>
			<point x="255" y="473" type="curve" smooth="yes"/>
			<point x="191" y="431"/>
			<point x="180" y="403"/>
			<point x="180" y="336" type="curve" smooth="yes"/>
		</contour>
		<contour>
			<point x="254" y="-15" type="curve" smooth="yes"/>
			<point x="321" y="-15"/>
			<point x="362" y="21"/>
			<point x="362" y="76" type="curve" smooth="yes"/>
			<point x="362" y="132"/>
			<point x="325" y="167"/>
			<point x="254" y="167" type="curve" smooth="yes"/>
			<point x="184" y="167"/>
			<point x="145" y="131"/>
			<point x="145" y="77" type="curve" smooth="yes"/>
			<point x="145" y="20"/>
			<point x="185" y="-15"/>
		</contour>
	</outline>
</glyph>
<glyph name="B" format="2">
	<unicode hex="0042"/>
	<advance width="722"/>
	<outline>
		<contour>
			<point x="36" y="0" type="line"/>
			<point x="414" y="0" type="line" smooth="yes"/>
			<point x="609" y="0"/>
			<point x="700" y="79"/>
			<point x="700" y="206" type="curve" smooth="yes"/>
			<point x="700" y="307"/>
			<point x="626" y="357"/>
			<point x="521" y="373" type="curve"/>
			<point x="521" y="378" type="line"/>
			<point x="593" y="399"/>
			<point x="660" y="441"/>
			<point x="660" y="541" type="curve" smooth="yes"/>
			<point x="660" y="631"/>
			<point x="593" y="700"/>
			<point x="388" y="700" type="curve" smooth="yes"/>
			<point x="36" y="700" type="line"/>
			<point x="36" y="602" type="line"/>
			<point x="62" y="598" type="line" smooth="yes"/>
			<point x="87" y="594"/>
			<point x="95" y="584"/>
			<point x="95" y="550" type="curve" smooth="yes"/>
			<point x="95" y="156" type="line" smooth="yes"/>
			<point x="95" y="116"/>
			<point x="89" y="109"/>
			<point x="64" y="104" type="curve" smooth="yes"/>
			<point x="36" y="98" type="line"/>
		</contour>
		<contour>
			<point x="373" y="117" type="curve" smooth="yes"/>
			<point x="357" y="117"/>
			<point x="346" y="118"/>
			<point x="330" y="122" type="curve"/>
			<point x="330" y="302" type="line"/>
			<point x="344" y="305"/>
			<point x="356" y="306"/>
			<point x="369" y="306" type="curve" smooth="yes"/>
			<point x="422" y="306"/>
			<point x="458" y="286"/>
			<point x="458" y="217" type="curve" smooth="yes"/>
			<point x="458" y="152"/>
			<point x="428" y="117"/>
		</contour>
		<contour>
			<point x="364" y="416" type="curve" smooth="yes"/>
			<point x="351" y="416"/>
			<point x="341" y="416"/>
			<point x="330" y="418" type="curve"/>
			<point x="330" y="588" type="line"/>
			<point x="363" y="588" type="line" smooth="yes"/>
			<point x="415" y="588"/>
			<point x="430" y="555"/>
			<point x="430" y="505" type="curve" smooth="yes"/>
			<point x="430" y="448"/>
			<point x="405" y="416"/>
		</contour>
	</outline>
</glyph>
<glyph name="E" format="2">
	<unicode hex="0045"/>
	<advance width="692"/>
	<outline>
		<contour>
			<point x="36" y="0" type="line"/>
			<point x="645" y="0" type="line"/>
			<point x="672" y="243" type="line"/>
			<point x="543" y="243" type="line"/>
			<point x="522" y="151"/>
			<point x="508" y="116"/>
			<point x="431" y="116" type="curve" smooth="yes"/>
			<point x="330" y="116" type="line"/>
			<point x="330" y="296" type="line"/>
			<point x="354" y="296" type="line" smooth="yes"/>
			<point x="386" y="296"/>
			<point x="396" y="280"/>
			<point x="403" y="226" type="curve"/>
			<point x="496" y="239" type="line"/>
			<point x="496" y="479" type="line"/>
			<point x="405" y="473" type="line"/>
			<point x="394" y="423"/>
			<point x="382" y="407"/>
			<point x="356" y="407" type="curve" smooth="yes"/>
			<point x="330" y="407" type="line"/>
			<point x="330" y="586" type="line"/>
			<point x="427" y="586" type="line" smooth="yes"/>
			<point x="498" y="586"/>
			<point x="513" y="558"/>
			<point x="530" y="479" type="curve"/>
			<point x="660" y="493" type="line"/>
			<point x="628" y="700" type="line"/>
			<point x="36" y="700" type="line"/>
			<point x="36" y="602" type="line"/>
			<point x="62" y="598" type="line" smooth="yes"/>
			<point x="87" y="594"/>
			<point x="95" y="584"/>
			<point x="95" y="550" type="curve" smooth="yes"/>
			<point x="95" y="156" type="line" smooth="yes"/>
			<point x="95" y="116"/>
			<point x="89" y="109"/>
			<point x="64" y="104" type="curve" smooth="yes"/>
			<point x="36" y="98" type="line"/>
		</contour>
	</outline>
	<anchor name="bottom" x="358" y="-30"/>
	<anchor name="top" x="349" y="730"/>
</glyph>
<glyph name="G" format="2">
	<unicode hex="0047"/>
	<advance width="785"/>
	<outline>
		<contour>
			<point x="353" y="-14" type="curve" smooth="yes"/>
			<point x="480" y="-14"/>
			<point x="548" y="54"/>
			<point x="562" y="71" type="curve"/>
			<point x="579" y="0" type="line"/>
			<point x="713" y="0" type="line"/>
			<point x="713" y="208" type="line" smooth="yes"/>
			<point x="713" y="242"/>
			<point x="717" y="257"/>
			<point x="746" y="262" type="curve" smooth="yes"/>
			<point x="770" y="266" type="line"/>
			<point x="770" y="367" type="line"/>
			<point x="433" y="367" type="line"/>
			<point x="433" y="266" type="line"/>
			<point x="469" y="262" type="line" smooth="yes"/>
			<point x="502" y="258"/>
			<point x="502" y="235"/>
			<point x="502" y="208" type="curve" smooth="yes"/>
			<point x="502" y="161" type="line"/>
			<point x="481" y="151"/>
			<point x="458" y="147"/>
			<point x="422" y="147" type="curve" smooth="yes"/>
			<point x="346" y="147"/>
			<point x="277" y="203"/>
			<point x="277" y="379" type="curve" smooth="yes"/>
			<point x="277" y="503"/>
			<point x="328" y="581"/>
			<point x="425" y="581" type="curve" smooth="yes"/>
			<point x="507" y="581"/>
			<point x="551" y="546"/>
			<point x="589" y="437" type="curve"/>
			<point x="701" y="458" type="line"/>
			<point x="663" y="714" type="line"/>
			<point x="579" y="714" type="line"/>
			<point x="566" y="667" type="line"/>
			<point x="523" y="696"/>
			<point x="479" y="714"/>
			<point x="403" y="714" type="curve" smooth="yes"/>
			<point x="182" y="714"/>
			<point x="35" y="569"/>
			<point x="35" y="345" type="curve" smooth="yes"/>
			<point x="35" y="141"/>
			<point x="138" y="-14"/>
		</contour>
	</outline>
	<anchor name="bottom" x="405" y="-30"/>
	<anchor name="top" x="403" y="730"/>
</glyph>
<glyph name="H" format="2">
	<unicode hex="0048"/>
	<advance width="843"/>
	<outline>
		<contour>
			<point x="36" y="0" type="line"/>
			<point x="388" y="0" type="line"/>
			<point x="388" y="98" type="line"/>
			<point x="362" y="104" type="line" smooth="yes"/>
			<point x="337" y="110"/>
			<point x="330" y="114"/>
			<point x="330" y="151" type="curve" smooth="yes"/>
			<point x="330" y="288" type="line"/>
			<point x="514" y="288" type="line"/>
			<point x="514" y="155" type="line" smooth="yes"/>
			<point x="514" y="116"/>
			<point x="507" y="109"/>
			<point x="483" y="104" type="curve" smooth="yes"/>
			<point x="456" y="98" type="line"/>
			<point x="456" y="0" type="line"/>
			<point x="807" y="0" type="line"/>
			<point x="807" y="98" type="line"/>
			<point x="782" y="104" type="line" smooth="yes"/>
			<point x="756" y="110"/>
			<point x="749" y="115"/>
			<point x="749" y="151" type="curve" smooth="yes"/>
			<point x="749" y="547" type="line" smooth="yes"/>
			<point x="749" y="584"/>
			<point x="756" y="594"/>
			<point x="780" y="598" type="curve" smooth="yes"/>
			<point x="807" y="602" type="line"/>
			<point x="807" y="700" type="line"/>
			<point x="456" y="700" type="line"/>
			<point x="456" y="602" type="line"/>
			<point x="481" y="596" type="line" smooth="yes"/>
			<point x="507" y="590"/>
			<point x="514" y="582"/>
			<point x="514" y="549" type="curve" smooth="yes"/>
			<point x="514" y="421" type="line"/>
			<point x="330" y="421" type="line"/>
			<point x="330" y="545" type="line" smooth="yes"/>
			<point x="330" y="580"/>
			<point x="335" y="591"/>
			<point x="360" y="596" type="curve" smooth="yes"/>
			<point x="388" y="602" type="line"/>
			<point x="388" y="700" type="line"/>
			<point x="36" y="700" type="line"/>
			<point x="36" y="602" type="line"/>
			<point x="62" y="598" type="line" smooth="yes"/>
			<point x="88" y="594"/>
			<point x="95" y="585"/>
			<point x="95" y="548" type="curve" smooth="yes"/>
			<point x="95" y="155" type="line" smooth="yes"/>
			<point x="95" y="116"/>
			<point x="88" y="109"/>
			<point x="64" y="104" type="curve" smooth="yes"/>
			<point x="36" y="98" type="line"/>
		</contour>
	</outline>
	<anchor name="bottom" x="422" y="-30"/>
	<anchor name="top" x="423" y="730"/>
</glyph>
<glyph name="K" format="2">
	<unicode hex="004B"/>
	<advance width="814"/>
	<outline>
		<contour>
			<point x="656" y="-16" type="curve" smooth="yes"/>
			<point x="733" y="-16"/>
			<point x="788" y="8"/>
			<point x="819" y="31" type="curve"/>
			<point x="801" y="117" type="line"/>
			<point x="788" y="115"/>
			<point x="775" y="113"/>
			<point x="759" y="113" type="curve" smooth="yes"/>
			<point x="722" y="113"/>
			<point x="705" y="141"/>
			<point x="672" y="196" type="curve" smooth="yes"/>
			<point x="537" y="421" type="line"/>
			<point x="654" y="548" type="line" smooth="yes"/>
			<point x="682" y="578"/>
			<point x="690" y="586"/>
			<point x="719" y="591" type="curve" smooth="yes"/>
			<point x="759" y="598" type="line"/>
			<point x="759" y="700" type="line"/>
			<point x="481" y="700" type="line"/>
			<point x="469" y="602" type="line"/>
			<point x="510" y="597" type="line" smooth="yes"/>
			<point x="532" y="594"/>
			<point x="534" y="578"/>
			<point x="515" y="559" type="curve" smooth="yes"/>
			<point x="330" y="375" type="line"/>
			<point x="330" y="545" type="line" smooth="yes"/>
			<point x="330" y="580"/>
			<point x="335" y="591"/>
			<point x="360" y="596" type="curve" smooth="yes"/>
			<point x="388" y="602" type="line"/>
			<point x="388" y="700" type="line"/>
			<point x="36" y="700" type="line"/>
			<point x="36" y="602" type="line"/>
			<point x="62" y="598" type="line" smooth="yes"/>
			<point x="88" y="594"/>
			<point x="95" y="585"/>
			<point x="95" y="548" type="curve" smooth="yes"/>
			<point x="95" y="155" type="line" smooth="yes"/>
			<point x="95" y="116"/>
			<point x="88" y="109"/>
			<point x="64" y="104" type="curve" smooth="yes"/>
			<point x="36" y="98" type="line"/>
			<point x="36" y="0" type="line"/>
			<point x="388" y="0" type="line"/>
			<point x="388" y="98" type="line"/>
			<point x="362" y="104" type="line" smooth="yes"/>
			<point x="339" y="109"/>
			<point x="330" y="119"/>
			<point x="330" y="155" type="curve" smooth="yes"/>
			<point x="330" y="207" type="line"/>
			<point x="377" y="256" type="line"/>
			<point x="468" y="93" type="line" smooth="yes"/>
			<point x="507" y="24"/>
			<point x="557" y="-16"/>
		</contour>
	</outline>
	<anchor name="bottom" x="409" y="-30"/>
	<anchor name="top" x="411" y="730"/>
</glyph>
<glyph name="M" format="2">
	<unicode hex="004D"/>
	<advance width="971"/>
	<outline>
		<contour>
			<point x="19" y="0" type="line"/>
			<point x="287" y="0" type="line"/>
			<point x="287" y="98" type="line"/>
			<point x="245" y="104" type="line" smooth="yes"/>
			<point x="213" y="109"/>
			<point x="216" y="123"/>
			<point x="218" y="151" type="curve" smooth="yes"/>
			<point x="233" y="423" type="line"/>
			<point x="237" y="423" type="line"/>
			<point x="389" y="113" type="line"/>
			<point x="493" y="113" type="line"/>
			<point x="640" y="423" type="line"/>
			<point x="644" y="423" type="line"/>
			<point x="669" y="138" type="line" smooth="yes"/>
			<point x="671" y="115"/>
			<point x="663" y="108"/>
			<point x="648" y="105" type="curve" smooth="yes"/>
			<point x="600" y="98" type="line"/>
			<point x="600" y="0" type="line"/>
			<point x="952" y="0" type="line"/>
			<point x="952" y="98" type="line"/>
			<point x="927" y="104" type="line" smooth="yes"/>
			<point x="895" y="112"/>
			<point x="896" y="123"/>
			<point x="894" y="151" type="curve" smooth="yes"/>
			<point x="861" y="561" type="line" smooth="yes"/>
			<point x="858" y="595"/>
			<point x="870" y="595"/>
			<point x="888" y="598" type="curve" smooth="yes"/>
			<point x="919" y="602" type="line"/>
			<point x="919" y="700" type="line"/>
			<point x="643" y="700" type="line"/>
			<point x="491" y="398" type="line"/>
			<point x="487" y="398" type="line"/>
			<point x="351" y="700" type="line"/>
			<point x="43" y="700" type="line"/>
			<point x="43" y="602" type="line"/>
			<point x="72" y="598" type="line" smooth="yes"/>
			<point x="100" y="594"/>
			<point x="105" y="586"/>
			<point x="104" y="560" type="curve" smooth="yes"/>
			<point x="78" y="140" type="line" smooth="yes"/>
			<point x="76" y="115"/>
			<point x="70" y="109"/>
			<point x="45" y="103" type="curve" smooth="yes"/>
			<point x="19" y="97" type="line"/>
		</contour>
	</outline>
	<anchor name="bottom" x="449" y="-30"/>
</glyph>
<glyph name="N" format="2">
	<unicode hex="004E"/>
	<advance width="843"/>
	<outline>
		<contour>
			<point x="36" y="0" type="line"/>
			<point x="315" y="0" type="line"/>
			<point x="315" y="98" type="line"/>
			<point x="289" y="104" type="line" smooth="yes"/>
			<point x="264" y="110"/>
			<point x="257" y="114"/>
			<point x="257" y="151" type="curve" smooth="yes"/>
			<point x="257" y="378" type="line"/>
			<point x="261" y="378" type="line"/>
			<point x="507" y="0" type="line"/>
			<point x="754" y="0" type="line"/>
			<point x="754" y="547" type="line" smooth="yes"/>
			<point x="754" y="584"/>
			<point x="761" y="594"/>
			<point x="785" y="598" type="curve" smooth="yes"/>
			<point x="812" y="602" type="line"/>
			<point x="812" y="700" type="line"/>
			<point x="534" y="700" type="line"/>
			<point x="534" y="602" type="line"/>
			<point x="559" y="596" type="line" smooth="yes"/>
			<point x="585" y="590"/>
			<point x="592" y="582"/>
			<point x="592" y="549" type="curve" smooth="yes"/>
			<point x="592" y="285" type="line"/>
			<point x="588" y="285" type="line"/>
			<point x="329" y="700" type="line"/>
			<point x="36" y="700" type="line"/>
			<point x="36" y="602" type="line"/>
			<point x="62" y="598" type="line" smooth="yes"/>
			<point x="88" y="594"/>
			<point x="95" y="585"/>
			<point x="95" y="548" type="curve" smooth="yes"/>
			<point x="95" y="155" type="line" smooth="yes"/>
			<point x="95" y="116"/>
			<point x="88" y="109"/>
			<point x="64" y="104" type="curve" smooth="yes"/>
			<point x="36" y="98" type="line"/>
		</contour>
	</outline>
	<anchor name="bottom" x="415" y="-30"/>
	<anchor name="top" x="417" y="730"/>
</glyph>
<glyph name="S" format="2">
	<unicode hex="0053"/>
	<advance width="629"/>
	<outline>
		<contour>
			<point x="336" y="-14" type="curve" smooth="yes"/>
			<point x="458" y="-14"/>
			<point x="604" y="57"/>
			<point x="604" y="220" type="curve" smooth="yes"/>
			<point x="604" y="380"/>
			<point x="484" y="424"/>
			<point x="371" y="454" type="curve" smooth="yes"/>
			<point x="305" y="472"/>
			<point x="247" y="488"/>
			<point x="247" y="536" type="curve" smooth="yes"/>
			<point x="247" y="571"/>
			<point x="280" y="587"/>
			<point x="318" y="587" type="curve" smooth="yes"/>
			<point x="362" y="587"/>
			<point x="435" y="570"/>
			<point x="476" y="465" type="curve"/>
			<point x="579" y="486" type="line"/>
			<point x="557" y="714" type="line"/>
			<point x="476" y="714" type="line"/>
			<point x="463" y="667" type="line"/>
			<point x="418" y="698"/>
			<point x="378" y="714"/>
			<point x="302" y="714" type="curve" smooth="yes"/>
			<point x="78" y="714"/>
			<point x="36" y="548"/>
			<point x="36" y="479" type="curve" smooth="yes"/>
			<point x="36" y="317"/>
			<point x="155" y="272"/>
			<point x="244" y="246" type="curve" smooth="yes"/>
			<point x="333" y="220"/>
			<point x="377" y="205"/>
			<point x="377" y="161" type="curve" smooth="yes"/>
			<point x="377" y="133"/>
			<point x="353" y="112"/>
			<point x="297" y="112" type="curve" smooth="yes"/>
			<point x="217" y="112"/>
			<point x="155" y="166"/>
			<point x="131" y="234" type="curve"/>
			<point x="30" y="216" type="line"/>
			<point x="42" y="-6" type="line"/>
			<point x="138" y="-6" type="line"/>
			<point x="149" y="43" type="line"/>
			<point x="191" y="11"/>
			<point x="258" y="-14"/>
		</contour>
	</outline>
	<anchor name="bottom" x="330" y="-30"/>
	<anchor name="top" x="320" y="730"/>
</glyph>
<glyph name="U" format="2">
	<unicode hex="0055"/>
	<advance width="763"/>
	<outline>
		<contour>
			<point x="389" y="-14" type="curve" smooth="yes"/>
			<point x="579" y="-14"/>
			<point x="678" y="71"/>
			<point x="678" y="252" type="curve" smooth="yes"/>
			<point x="678" y="542" type="line" smooth="yes"/>
			<point x="678" y="580"/>
			<point x="683" y="591"/>
			<point x="709" y="596" type="curve" smooth="yes"/>
			<point x="737" y="602" type="line"/>
			<point x="737" y="700" type="line"/>
			<point x="482" y="700" type="line"/>
			<point x="482" y="602" type="line"/>
			<point x="507" y="598" type="line" smooth="yes"/>
			<point x="537" y="593"/>
			<point x="542" y="583"/>
			<point x="542" y="546" type="curve" smooth="yes"/>
			<point x="542" y="243" type="line" smooth="yes"/>
			<point x="542" y="185"/>
			<point x="522" y="132"/>
			<point x="428" y="132" type="curve" smooth="yes"/>
			<point x="348" y="132"/>
			<point x="320" y="178"/>
			<point x="320" y="246" type="curve" smooth="yes"/>
			<point x="320" y="547" type="line" smooth="yes"/>
			<point x="320" y="579"/>
			<point x="326" y="591"/>
			<point x="350" y="596" type="curve" smooth="yes"/>
			<point x="379" y="602" type="line"/>
			<point x="379" y="700" type="line"/>
			<point x="26" y="700" type="line"/>
			<point x="26" y="602" type="line"/>
			<point x="51" y="598" type="line" smooth="yes"/>
			<point x="80" y="593"/>
			<point x="85" y="582"/>
			<point x="85" y="546" type="curve" smooth="yes"/>
			<point x="85" y="252" type="line" smooth="yes"/>
			<point x="85" y="123"/>
			<point x="137" y="-14"/>
		</contour>
	</outline>
	<anchor name="bottom" x="391" y="-30"/>
	<anchor name="top" x="421" y="730"/>
</glyph>
<glyph name="Z" format="2">
	<unicode hex="005A"/>
	<advance width="718"/>
	<outline>
		<contour>
			<point x="35" y="0" type="line"/>
			<point x="667" y="0" type="line"/>
			<point x="688" y="284" type="line"/>
			<point x="559" y="284" type="line"/>
			<point x="509" y="142"/>
			<point x="486" y="116"/>
			<point x="397" y="116" type="curve" smooth="yes"/>
			<point x="307" y="116" type="line"/>
			<point x="676" y="591" type="line"/>
			<point x="676" y="700" type="line"/>
			<point x="53" y="700" type="line"/>
			<point x="41" y="413" type="line"/>
			<point x="170" y="421" type="line"/>
			<point x="208" y="550"/>
			<point x="221" y="586"/>
			<point x="300" y="586" type="curve" smooth="yes"/>
			<point x="411" y="586" type="line"/>
			<point x="35" y="110" type="line"/>
		</contour>
	</outline>
	<anchor name="bottom" x="360" y="-30"/>
	<anchor name="top" x="358" y="730"/>
</glyph>
<glyph name="bracketleft" format="2">
	<unicode hex="005B"/>
	<advance width="372"/>
	<outline>
		<contour>
			<point x="73" y="-212" type="line"/>
			<point x="357" y="-212" type="line"/>
			<point x="357" y="-115" type="line"/>
			<point x="306" y="-110" type="line" smooth="yes"/>
			<point x="284" y="-108"/>
			<point x="274" y="-95"/>
			<point x="274" y="-71" type="curve" smooth="yes"/>
			<point x="274" y="671" type="line" smooth="yes"/>
			<point x="274" y="695"/>
			<point x="284" y="708"/>
			<point x="306" y="710" type="curve" smooth="yes"/>
			<point x="357" y="715" type="line"/>
			<point x="357" y="812" type="line"/>
			<point x="73" y="812" type="line"/>
		</contour>
	</outline>
</glyph>
<glyph name="a" format="2">
	<unicode hex="0061"/>
	<advance width="617"/>
	<outline>
		<contour>
			<point x="189" y="-14" type="curve" smooth="yes"/>
			<point x="278" y="-14"/>
			<point x="324" y="30"/>
			<point x="341" y="63" type="curve"/>
			<point x="354" y="22"/>
			<point x="399" y="-14"/>
			<point x="471" y="-14" type="curve" smooth="yes"/>
			<point x="535" y="-14"/>
			<point x="591" y="12"/>
			<point x="620" y="35" type="curve"/>
			<point x="604" y="113" type="line"/>
			<point x="594" y="110"/>
			<point x="583" y="107"/>
			<point x="571" y="107" type="curve" smooth="yes"/>
			<point x="546" y="107"/>
			<point x="540" y="121"/>
			<point x="540" y="152" type="curve" smooth="yes"/>
			<point x="540" y="330" type="line" smooth="yes"/>
			<point x="540" y="466"/>
			<point x="465" y="530"/>
			<point x="294" y="530" type="curve" smooth="yes"/>
			<point x="132" y="530"/>
			<point x="35" y="466"/>
			<point x="35" y="377" type="curve" smooth="yes"/>
			<point x="35" y="337"/>
			<point x="60" y="309"/>
			<point x="115" y="309" type="curve" smooth="yes"/>
			<point x="180" y="309"/>
			<point x="210" y="334"/>
			<point x="210" y="367" type="curve" smooth="yes"/>
			<point x="210" y="382"/>
			<point x="202" y="402"/>
			<point x="185" y="431" type="curve"/>
			<point x="205" y="442"/>
			<point x="230" y="447"/>
			<point x="254" y="447" type="curve" smooth="yes"/>
			<point x="307" y="447"/>
			<point x="315" y="415"/>
			<point x="315" y="350" type="curve" smooth="yes"/>
			<point x="315" y="287" type="line"/>
			<point x="123" y="281"/>
			<point x="22" y="252"/>
			<point x="22" y="124" type="curve" smooth="yes"/>
			<point x="22" y="40"/>
			<point x="81" y="-14"/>
		</contour>
		<contour>
			<point x="274" y="93" type="curve" smooth="yes"/>
			<point x="246" y="93"/>
			<point x="239" y="116"/>
			<point x="239" y="145" type="curve" smooth="yes"/>
			<point x="239" y="188"/>
			<point x="263" y="205"/>
			<point x="315" y="205" type="curve"/>
			<point x="315" y="141" type="line" smooth="yes"/>
			<point x="315" y="108"/>
			<point x="301" y="93"/>
		</contour>
	</outline>
	<anchor name="bottom" x="309" y="-30"/>
	<anchor name="top" x="297" y="550"/>
</glyph>
<glyph name="d" format="2">
	<unicode hex="0064"/>
	<advance width="703"/>
	<outline>
		<contour>
			<point x="250" y="-14" type="curve" smooth="yes"/>
			<point x="346" y="-14"/>
			<point x="389" y="30"/>
			<point x="410" y="73" type="curve"/>
			<point x="415" y="73" type="line"/>
			<point x="425" y="-7" type="line"/>
			<point x="680" y="0" type="line"/>
			<point x="680" y="98" type="line"/>
			<point x="652" y="104" type="line" smooth="yes"/>
			<point x="622" y="111"/>
			<point x="620" y="117"/>
			<point x="620" y="146" type="curve" smooth="yes"/>
			<point x="620" y="748" type="line"/>
			<point x="602" y="767" type="line"/>
			<point x="330" y="760" type="line"/>
			<point x="321" y="660" type="line"/>
			<point x="356" y="654" type="line" smooth="yes"/>
			<point x="391" y="648"/>
			<point x="395" y="636"/>
			<point x="395" y="602" type="curve" smooth="yes"/>
			<point x="395" y="506" type="line"/>
			<point x="367" y="521"/>
			<point x="336" y="531"/>
			<point x="285" y="531" type="curve" smooth="yes"/>
			<point x="120" y="531"/>
			<point x="27" y="419"/>
			<point x="27" y="243" type="curve" smooth="yes"/>
			<point x="27" y="83"/>
			<point x="99" y="-14"/>
		</contour>
		<contour>
			<point x="329" y="111" type="curve" smooth="yes"/>
			<point x="285" y="111"/>
			<point x="262" y="153"/>
			<point x="262" y="256" type="curve" smooth="yes"/>
			<point x="262" y="358"/>
			<point x="282" y="404"/>
			<point x="332" y="404" type="curve" smooth="yes"/>
			<point x="356" y="404"/>
			<point x="374" y="397"/>
			<point x="395" y="385" type="curve"/>
			<point x="395" y="206" type="line" smooth="yes"/>
			<point x="395" y="143"/>
			<point x="374" y="111"/>
		</contour>
	</outline>
	<anchor name="bottom" x="346" y="-30"/>
	<anchor name="top" x="302" y="550"/>
</glyph>
<glyph name="e" format="2">
	<unicode hex="0065"/>
	<advance width="612"/>
	<outline>
		<contour>
			<point x="312" y="-14" type="curve" smooth="yes"/>
			<point x="440" y="-14"/>
			<point x="531" y="41"/>
			<point x="590" y="112" type="curve"/>
			<point x="527" y="190" type="line"/>
			<point x="477" y="160"/>
			<point x="435" y="142"/>
			<point x="365" y="142" type="curve" smooth="yes"/>
			<point x="305" y="142"/>
			<point x="263" y="167"/>
			<point x="258" y="222" type="curve"/>
			<point x="572" y="222" type="line"/>
			<point x="578" y="250"/>
			<point x="581" y="287"/>
			<point x="581" y="323" type="curve" smooth="yes"/>
			<point x="581" y="461"/>
			<point x="486" y="531"/>
			<point x="332" y="531" type="curve" smooth="yes"/>
			<point x="156" y="531"/>
			<point x="27" y="433"/>
			<point x="27" y="241" type="curve" smooth="yes"/>
			<point x="27" y="90"/>
			<point x="119" y="-14"/>
		</contour>
		<contour>
			<point x="256" y="325" type="line"/>
			<point x="257" y="378"/>
			<point x="275" y="427"/>
			<point x="325" y="427" type="curve" smooth="yes"/>
			<point x="355" y="427"/>
			<point x="371" y="406"/>
			<point x="371" y="374" type="curve" smooth="yes"/>
			<point x="371" y="359"/>
			<point x="370" y="343"/>
			<point x="367" y="325" type="curve"/>
		</contour>
	</outline>
	<anchor name="bottom" x="318" y="-30"/>
	<anchor name="top" x="323" y="550"/>
</glyph>
<glyph name="h" format="2">
	<unicode hex="0068"/>
	<advance width="717"/>
	<outline>
		<contour>
			<point x="22" y="0" type="line"/>
			<point x="346" y="0" type="line"/>
			<point x="346" y="94" type="line"/>
			<point x="329" y="97" type="line" smooth="yes"/>
			<point x="307" y="101"/>
			<point x="304" y="114"/>
			<point x="304" y="143" type="curve" smooth="yes"/>
			<point x="304" y="286" type="line" smooth="yes"/>
			<point x="304" y="368"/>
			<point x="335" y="384"/>
			<point x="369" y="384" type="curve" smooth="yes"/>
			<point x="404" y="384"/>
			<point x="418" y="359"/>
			<point x="418" y="305" type="curve" smooth="yes"/>
			<point x="418" y="141" type="line" smooth="yes"/>
			<point x="418" y="108"/>
			<point x="411" y="101"/>
			<point x="392" y="97" type="curve" smooth="yes"/>
			<point x="376" y="94" type="line"/>
			<point x="376" y="0" type="line"/>
			<point x="699" y="0" type="line"/>
			<point x="699" y="95" type="line"/>
			<point x="674" y="99" type="line" smooth="yes"/>
			<point x="648" y="103"/>
			<point x="643" y="112"/>
			<point x="643" y="138" type="curve" smooth="yes"/>
			<point x="643" y="360" type="line" smooth="yes"/>
			<point x="643" y="452"/>
			<point x="597" y="531"/>
			<point x="471" y="531" type="curve" smooth="yes"/>
			<point x="388" y="531"/>
			<point x="340" y="499"/>
			<point x="308" y="445" type="curve"/>
			<point x="304" y="445" type="line"/>
			<point x="304" y="757" type="line"/>
			<point x="285" y="768" type="line"/>
			<point x="24" y="754" type="line"/>
			<point x="17" y="650" type="line"/>
			<point x="45" y="646" type="line" smooth="yes"/>
			<point x="74" y="642"/>
			<point x="79" y="628"/>
			<point x="79" y="584" type="curve" smooth="yes"/>
			<point x="79" y="146" type="line" smooth="yes"/>
			<point x="79" y="111"/>
			<point x="72" y="105"/>
			<point x="53" y="101" type="curve" smooth="yes"/>
			<point x="22" y="95" type="line"/>
		</contour>
	</outline>
	<anchor name="bottom" x="361" y="-30"/>
	<anchor name="top" x="159" y="780"/>
	<guideline x="304" y="681" angle="90"/>
</glyph>
<glyph name="i" format="2">
	<unicode hex="0069"/>
	<advance width="396"/>
	<outline>
		<contour>
			<point x="29" y="0" type="line"/>
			<point x="373" y="0" type="line"/>
			<point x="373" y="94" type="line"/>
			<point x="339" y="101" type="line" smooth="yes"/>
			<point x="315" y="106"/>
			<point x="314" y="118"/>
			<point x="314" y="149" type="curve" smooth="yes"/>
			<point x="314" y="514" type="line"/>
			<point x="296" y="525" type="line"/>
			<point x="31" y="511" type="line"/>
			<point x="24" y="407" type="line"/>
			<point x="54" y="402" type="line" smooth="yes"/>
			<point x="85" y="397"/>
			<point x="89" y="384"/>
			<point x="89" y="340" type="curve" smooth="yes"/>
			<point x="89" y="149" type="line" smooth="yes"/>
			<point x="89" y="114"/>
			<point x="84" y="105"/>
			<point x="63" y="101" type="curve" smooth="yes"/>
			<point x="29" y="95" type="line"/>
		</contour>
		<contour>
			<point x="187" y="586" type="curve" smooth="yes"/>
			<point x="266" y="586"/>
			<point x="314" y="623"/>
			<point x="314" y="688" type="curve" smooth="yes"/>
			<point x="314" y="754"/>
			<point x="273" y="790"/>
			<point x="187" y="790" type="curve" smooth="yes"/>
			<point x="102" y="790"/>
			<point x="59" y="753"/>
			<point x="59" y="689" type="curve" smooth="yes"/>
			<point x="59" y="622"/>
			<point x="105" y="586"/>
		</contour>
	</outline>
	<anchor name="bottom" x="197" y="-30"/>
</glyph>
<glyph name="j" format="2">
	<unicode hex="006A"/>
	<advance width="365"/>
	<outline>
		<contour>
			<point x="79" y="-230" type="line"/>
			<point x="193" y="-168"/>
			<point x="305" y="-87"/>
			<point x="305" y="95" type="curve" smooth="yes"/>
			<point x="305" y="514" type="line"/>
			<point x="286" y="525" type="line"/>
			<point x="22" y="511" type="line"/>
			<point x="15" y="407" type="line"/>
			<point x="45" y="402" type="line" smooth="yes"/>
			<point x="74" y="397"/>
			<point x="80" y="387"/>
			<point x="80" y="343" type="curve" smooth="yes"/>
			<point x="80" y="54" type="line" smooth="yes"/>
			<point x="80" y="-30"/>
			<point x="61" y="-81"/>
			<point x="5" y="-139" type="curve"/>
		</contour>
		<contour>
			<point x="177" y="586" type="curve" smooth="yes"/>
			<point x="256" y="586"/>
			<point x="304" y="623"/>
			<point x="304" y="688" type="curve" smooth="yes"/>
			<point x="304" y="754"/>
			<point x="263" y="790"/>
			<point x="177" y="790" type="curve" smooth="yes"/>
			<point x="92" y="790"/>
			<point x="49" y="753"/>
			<point x="49" y="689" type="curve" smooth="yes"/>
			<point x="49" y="622"/>
			<point x="95" y="586"/>
		</contour>
	</outline>
</glyph>
<glyph name="k" format="2">
	<unicode hex="006B"/>
	<advance width="734"/>
	<outline>
		<contour>
			<point x="576" y="-14" type="curve" smooth="yes"/>
			<point x="638" y="-14"/>
			<point x="698" y="9"/>
			<point x="729" y="35" type="curve"/>
			<point x="710" y="115" type="line"/>
			<point x="698" y="111"/>
			<point x="685" y="109"/>
			<point x="676" y="109" type="curve" smooth="yes"/>
			<point x="642" y="109"/>
			<point x="627" y="128"/>
			<point x="597" y="173" type="curve" smooth="yes"/>
			<point x="510" y="304" type="line"/>
			<point x="585" y="378" type="line" smooth="yes"/>
			<point x="606" y="399"/>
			<point x="619" y="408"/>
			<point x="643" y="411" type="curve" smooth="yes"/>
			<point x="689" y="416" type="line"/>
			<point x="689" y="517" type="line"/>
			<point x="404" y="517" type="line"/>
			<point x="388" y="421" type="line"/>
			<point x="429" y="415" type="line" smooth="yes"/>
			<point x="450" y="412"/>
			<point x="455" y="398"/>
			<point x="434" y="379" type="curve" smooth="yes"/>
			<point x="317" y="271" type="line"/>
			<point x="317" y="247" type="line"/>
			<point x="421" y="75" type="line" smooth="yes"/>
			<point x="462" y="7"/>
			<point x="518" y="-14"/>
		</contour>
		<contour>
			<point x="22" y="0" type="line"/>
			<point x="357" y="0" type="line"/>
			<point x="357" y="95" type="line"/>
			<point x="334" y="100" type="line" smooth="yes"/>
			<point x="304" y="107"/>
			<point x="304" y="117"/>
			<point x="304" y="147" type="curve" smooth="yes"/>
			<point x="304" y="757" type="line"/>
			<point x="285" y="768" type="line"/>
			<point x="24" y="754" type="line"/>
			<point x="17" y="650" type="line"/>
			<point x="45" y="646" type="line" smooth="yes"/>
			<point x="74" y="642"/>
			<point x="79" y="628"/>
			<point x="79" y="584" type="curve" smooth="yes"/>
			<point x="79" y="146" type="line" smooth="yes"/>
			<point x="79" y="111"/>
			<point x="72" y="105"/>
			<point x="53" y="101" type="curve" smooth="yes"/>
			<point x="22" y="95" type="line"/>
		</contour>
	</outline>
	<anchor name="bottom" x="329" y="-30"/>
	<anchor name="top" x="159" y="780"/>
</glyph>
<glyph name="l" format="2">
	<unicode hex="006C"/>
	<advance width="388"/>
	<outline>
		<contour>
			<point x="20" y="0" type="line"/>
			<point x="365" y="0" type="line"/>
			<point x="365" y="94" type="line"/>
			<point x="334" y="100" type="line" smooth="yes"/>
			<point x="310" y="105"/>
			<point x="305" y="111"/>
			<point x="305" y="148" type="curve" smooth="yes"/>
			<point x="305" y="755" type="line"/>
			<point x="285" y="768" type="line"/>
			<point x="24" y="754" type="line"/>
			<point x="17" y="650" type="line"/>
			<point x="44" y="646" type="line" smooth="yes"/>
			<point x="75" y="641"/>
			<point x="80" y="629"/>
			<point x="80" y="585" type="curve" smooth="yes"/>
			<point x="80" y="149" type="line" smooth="yes"/>
			<point x="80" y="112"/>
			<point x="75" y="105"/>
			<point x="53" y="101" type="curve" smooth="yes"/>
			<point x="20" y="95" type="line"/>
		</contour>
	</outline>
	<anchor name="bottom" x="196" y="-30"/>
	<anchor name="top" x="159" y="780"/>
</glyph>
<glyph name="n" format="2">
	<unicode hex="006E"/>
	<advance width="727"/>
	<outline>
		<contour>
			<point x="32" y="0" type="line"/>
			<point x="356" y="0" type="line"/>
			<point x="356" y="94" type="line"/>
			<point x="339" y="97" type="line" smooth="yes"/>
			<point x="318" y="101"/>
			<point x="315" y="113"/>
			<point x="315" y="141" type="curve" smooth="yes"/>
			<point x="315" y="286" type="line" smooth="yes"/>
			<point x="315" y="368"/>
			<point x="345" y="384"/>
			<point x="379" y="384" type="curve" smooth="yes"/>
			<point x="413" y="384"/>
			<point x="427" y="362"/>
			<point x="427" y="305" type="curve" smooth="yes"/>
			<point x="427" y="139" type="line" smooth="yes"/>
			<point x="427" y="111"/>
			<point x="423" y="101"/>
			<point x="402" y="97" type="curve" smooth="yes"/>
			<point x="386" y="94" type="line"/>
			<point x="386" y="0" type="line"/>
			<point x="709" y="0" type="line"/>
			<point x="709" y="95" type="line"/>
			<point x="682" y="99" type="line" smooth="yes"/>
			<point x="656" y="103"/>
			<point x="652" y="113"/>
			<point x="652" y="140" type="curve" smooth="yes"/>
			<point x="652" y="360" type="line" smooth="yes"/>
			<point x="652" y="452"/>
			<point x="607" y="531"/>
			<point x="481" y="531" type="curve" smooth="yes"/>
			<point x="386" y="531"/>
			<point x="331" y="490"/>
			<point x="300" y="422" type="curve"/>
			<point x="296" y="422" type="line"/>
			<point x="288" y="514" type="line"/>
			<point x="269" y="525" type="line"/>
			<point x="34" y="511" type="line"/>
			<point x="25" y="407" type="line"/>
			<point x="55" y="402" type="line" smooth="yes"/>
			<point x="86" y="397"/>
			<point x="90" y="384"/>
			<point x="90" y="346" type="curve" smooth="yes"/>
			<point x="90" y="149" type="line" smooth="yes"/>
			<point x="90" y="113"/>
			<point x="85" y="105"/>
			<point x="64" y="101" type="curve" smooth="yes"/>
			<point x="32" y="95" type="line"/>
		</contour>
	</outline>
	<anchor name="bottom" x="371" y="-30"/>
	<anchor name="top" x="369" y="550"/>
</glyph>
<glyph name="o" format="2">
	<unicode hex="006F"/>
	<advance width="662"/>
	<outline>
		<contour>
			<point x="322" y="-14" type="curve" smooth="yes"/>
			<point x="524" y="-14"/>
			<point x="635" y="80"/>
			<point x="635" y="268" type="curve" smooth="yes"/>
			<point x="635" y="461"/>
			<point x="514" y="531"/>
			<point x="345" y="531" type="curve" smooth="yes"/>
			<point x="158" y="531"/>
			<point x="27" y="453"/>
			<point x="27" y="251" type="curve" smooth="yes"/>
			<point x="27" y="73"/>
			<point x="131" y="-14"/>
		</contour>
		<contour>
			<point x="335" y="102" type="curve" smooth="yes"/>
			<point x="276" y="102"/>
			<point x="262" y="154"/>
			<point x="262" y="285" type="curve" smooth="yes"/>
			<point x="262" y="393"/>
			<point x="290" y="415"/>
			<point x="330" y="415" type="curve" smooth="yes"/>
			<point x="374" y="415"/>
			<point x="400" y="390"/>
			<point x="400" y="251" type="curve" smooth="yes"/>
			<point x="400" y="146"/>
			<point x="390" y="102"/>
		</contour>
	</outline>
	<anchor name="bottom" x="330" y="-30"/>
	<anchor name="top" x="332" y="550"/>
	<guideline x="558" y="265" angle="90"/>
	<guideline x="509" y="265" angle="0"/>
	<guideline x="332" y="203" angle="90"/>
</glyph>
<glyph name="p" format="2">
	<unicode hex="0070"/>
	<advance width="702"/>
	<outline>
		<contour>
			<point x="25" y="-216" type="line"/>
			<point x="406" y="-216" type="line"/>
			<point x="406" y="-123" type="line"/>
			<point x="342" y="-116" type="line" smooth="yes"/>
			<point x="312" y="-113"/>
			<point x="307" y="-103"/>
			<point x="307" y="-70" type="curve" smooth="yes"/>
			<point x="307" y="11" type="line"/>
			<point x="338" y="-6"/>
			<point x="375" y="-14"/>
			<point x="420" y="-14" type="curve" smooth="yes"/>
			<point x="600" y="-14"/>
			<point x="675" y="105"/>
			<point x="675" y="279" type="curve" smooth="yes"/>
			<point x="675" y="448"/>
			<point x="598" y="531"/>
			<point x="462" y="531" type="curve" smooth="yes"/>
			<point x="371" y="531"/>
			<point x="325" y="484"/>
			<point x="292" y="433" type="curve"/>
			<point x="289" y="433" type="line"/>
			<point x="281" y="514" type="line"/>
			<point x="262" y="525" type="line"/>
			<point x="27" y="511" type="line"/>
			<point x="20" y="407" type="line"/>
			<point x="50" y="402" type="line" smooth="yes"/>
			<point x="74" y="398"/>
			<point x="82" y="388"/>
			<point x="82" y="340" type="curve" smooth="yes"/>
			<point x="82" y="-67" type="line" smooth="yes"/>
			<point x="82" y="-106"/>
			<point x="75" y="-113"/>
			<point x="55" y="-116" type="curve" smooth="yes"/>
			<point x="25" y="-121" type="line"/>
		</contour>
		<contour>
			<point x="370" y="113" type="curve" smooth="yes"/>
			<point x="349" y="113"/>
			<point x="322" y="122"/>
			<point x="307" y="132" type="curve"/>
			<point x="307" y="302" type="line" smooth="yes"/>
			<point x="307" y="359"/>
			<point x="326" y="400"/>
			<point x="371" y="400" type="curve" smooth="yes"/>
			<point x="416" y="400"/>
			<point x="440" y="361"/>
			<point x="440" y="269" type="curve" smooth="yes"/>
			<point x="440" y="150"/>
			<point x="423" y="113"/>
		</contour>
	</outline>
</glyph>
<glyph name="v" format="2">
	<unicode hex="0076"/>
	<advance width="654"/>
	<outline>
		<contour>
			<point x="228" y="0" type="line"/>
			<point x="438" y="0" type="line"/>
			<point x="571" y="358" type="line" smooth="yes"/>
			<point x="585" y="396"/>
			<point x="593" y="402"/>
			<point x="617" y="407" type="curve" smooth="yes"/>
			<point x="649" y="415" type="line"/>
			<point x="649" y="517" type="line"/>
			<point x="413" y="517" type="line"/>
			<point x="398" y="416" type="line"/>
			<point x="429" y="410" type="line" smooth="yes"/>
			<point x="457" y="405"/>
			<point x="460" y="389"/>
			<point x="449" y="357" type="curve" smooth="yes"/>
			<point x="387" y="175" type="line"/>
			<point x="383" y="175" type="line"/>
			<point x="313" y="363" type="line" smooth="yes"/>
			<point x="302" y="393"/>
			<point x="306" y="407"/>
			<point x="320" y="410" type="curve" smooth="yes"/>
			<point x="351" y="416" type="line"/>
			<point x="351" y="517" type="line"/>
			<point x="19" y="517" type="line"/>
			<point x="5" y="413" type="line"/>
			<point x="44" y="403" type="line" smooth="yes"/>
			<point x="69" y="396"/>
			<point x="74" y="384"/>
			<point x="89" y="349" type="curve" smooth="yes"/>
		</contour>
	</outline>
	<anchor name="top" x="363" y="550"/>
</glyph>
<glyph name="cent" format="2">
	<unicode hex="00A2"/>
	<advance width="598"/>
	<outline>
		<contour>
			<point x="157" y="-37" type="line"/>
			<point x="318" y="-37" type="line"/>
			<point x="453" y="656" type="line"/>
			<point x="292" y="656" type="line"/>
		</contour>
		<contour>
			<point x="301" y="31" type="curve" smooth="yes"/>
			<point x="437" y="31"/>
			<point x="516" y="81"/>
			<point x="573" y="143" type="curve"/>
			<point x="514" y="229" type="line"/>
			<point x="455" y="195"/>
			<point x="414" y="186"/>
			<point x="368" y="186" type="curve" smooth="yes"/>
			<point x="287" y="186"/>
			<point x="252" y="232"/>
			<point x="252" y="332" type="curve" smooth="yes"/>
			<point x="252" y="428"/>
			<point x="283" y="469"/>
			<point x="335" y="469" type="curve" smooth="yes"/>
			<point x="358" y="469"/>
			<point x="375" y="465"/>
			<point x="393" y="457" type="curve"/>
			<point x="377" y="425"/>
			<point x="371" y="409"/>
			<point x="371" y="396" type="curve" smooth="yes"/>
			<point x="371" y="354"/>
			<point x="406" y="332"/>
			<point x="460" y="332" type="curve" smooth="yes"/>
			<point x="535" y="332"/>
			<point x="560" y="381"/>
			<point x="560" y="431" type="curve" smooth="yes"/>
			<point x="560" y="502"/>
			<point x="483" y="576"/>
			<point x="331" y="576" type="curve" smooth="yes"/>
			<point x="134" y="576"/>
			<point x="27" y="459"/>
			<point x="27" y="290" type="curve" smooth="yes"/>
			<point x="27" y="135"/>
			<point x="123" y="31"/>
		</contour>
	</outline>
	<anchor name="bottom" x="322" y="15"/>
	<anchor name="top" x="318" y="595"/>
</glyph>
<glyph name="section" format="2">
	<unicode hex="00A7"/>
	<advance width="623"/>
	<outline>
		<contour>
			<point x="293" y="-178" type="curve" smooth="yes"/>
			<point x="422" y="-178"/>
			<point x="516" y="-110"/>
			<point x="516" y="-11" type="curve" smooth="yes"/>
			<point x="516" y="18"/>
			<point x="512" y="42"/>
			<point x="503" y="64" type="curve"/>
			<point x="587" y="126"/>
			<point x="620" y="169"/>
			<point x="620" y="226" type="curve" smooth="yes"/>
			<point x="620" y="274"/>
			<point x="606" y="334"/>
			<point x="444" y="434" type="curve" smooth="yes"/>
			<point x="355" y="489"/>
			<point x="292" y="536"/>
			<point x="292" y="604" type="curve" smooth="yes"/>
			<point x="292" y="629"/>
			<point x="306" y="649"/>
			<point x="329" y="649" type="curve" smooth="yes"/>
			<point x="342" y="649"/>
			<point x="358" y="648"/>
			<point x="371" y="642" type="curve"/>
			<point x="362" y="625"/>
			<point x="351" y="596"/>
			<point x="351" y="580" type="curve" smooth="yes"/>
			<point x="351" y="546"/>
			<point x="390" y="521"/>
			<point x="435" y="521" type="curve" smooth="yes"/>
			<point x="512" y="521"/>
			<point x="532" y="569"/>
			<point x="532" y="608" type="curve" smooth="yes"/>
			<point x="532" y="693"/>
			<point x="451" y="737"/>
			<point x="330" y="737" type="curve" smooth="yes"/>
			<point x="201" y="737"/>
			<point x="107" y="669"/>
			<point x="107" y="570" type="curve" smooth="yes"/>
			<point x="107" y="541"/>
			<point x="111" y="517"/>
			<point x="120" y="495" type="curve"/>
			<point x="36" y="433"/>
			<point x="3" y="390"/>
			<point x="3" y="333" type="curve" smooth="yes"/>
			<point x="3" y="285"/>
			<point x="17" y="225"/>
			<point x="179" y="125" type="curve" smooth="yes"/>
			<point x="268" y="70"/>
			<point x="331" y="23"/>
			<point x="331" y="-45" type="curve" smooth="yes"/>
			<point x="331" y="-70"/>
			<point x="317" y="-90"/>
			<point x="294" y="-90" type="curve" smooth="yes"/>
			<point x="281" y="-90"/>
			<point x="265" y="-89"/>
			<point x="252" y="-83" type="curve"/>
			<point x="261" y="-66"/>
			<point x="272" y="-37"/>
			<point x="272" y="-21" type="curve" smooth="yes"/>
			<point x="272" y="13"/>
			<point x="233" y="38"/>
			<point x="188" y="38" type="curve" smooth="yes"/>
			<point x="111" y="38"/>
			<point x="91" y="-10"/>
			<point x="91" y="-49" type="curve" smooth="yes"/>
			<point x="91" y="-134"/>
			<point x="172" y="-178"/>
		</contour>
		<contour>
			<point x="444" y="143" type="curve"/>
			<point x="411" y="175"/>
			<point x="366" y="208"/>
			<point x="307" y="253" type="curve" smooth="yes"/>
			<point x="237" y="306"/>
			<point x="168" y="353"/>
			<point x="168" y="386" type="curve" smooth="yes"/>
			<point x="168" y="396"/>
			<point x="170" y="404"/>
			<point x="179" y="416" type="curve"/>
			<point x="212" y="385"/>
			<point x="257" y="352"/>
			<point x="316" y="307" type="curve" smooth="yes"/>
			<point x="386" y="254"/>
			<point x="455" y="206"/>
			<point x="455" y="173" type="curve" smooth="yes"/>
			<point x="455" y="163"/>
			<point x="453" y="155"/>
		</contour>
	</outline>
</glyph>
<glyph name="dieresis" format="2">
	<unicode hex="00A8"/>
	<advance width="500"/>
	<outline>
		<contour>
			<point x="378" y="595" type="curve" smooth="yes"/>
			<point x="441" y="595"/>
			<point x="486" y="632"/>
			<point x="486" y="692" type="curve" smooth="yes"/>
			<point x="486" y="751"/>
			<point x="454" y="787"/>
			<point x="378" y="787" type="curve" smooth="yes"/>
			<point x="315" y="787"/>
			<point x="272" y="750"/>
			<point x="272" y="693" type="curve" smooth="yes"/>
			<point x="272" y="631"/>
			<point x="315" y="595"/>
		</contour>
		<contour>
			<point x="120" y="595" type="curve" smooth="yes"/>
			<point x="182" y="595"/>
			<point x="227" y="632"/>
			<point x="227" y="692" type="curve" smooth="yes"/>
			<point x="227" y="751"/>
			<point x="195" y="787"/>
			<point x="120" y="787" type="curve" smooth="yes"/>
			<point x="56" y="787"/>
			<point x="13" y="750"/>
			<point x="13" y="693" type="curve" smooth="yes"/>
			<point x="13" y="631"/>
			<point x="56" y="595"/>
		</contour>
	</outline>
	<anchor name="_top" x="250" y="550"/>
</glyph>
<glyph name="copyright" format="2">
	<unicode hex="00A9"/>
	<advance width="880"/>
	<outline>
		<contour>
			<point x="441" y="-22" type="curve" smooth="yes"/>
			<point x="688" y="-22"/>
			<point x="822" y="123"/>
			<point x="822" y="342" type="curve" smooth="yes"/>
			<point x="822" y="553"/>
			<point x="649" y="696"/>
			<point x="441" y="696" type="curve" smooth="yes"/>
			<point x="243" y="696"/>
			<point x="60" y="553"/>
			<point x="60" y="342" type="curve" smooth="yes"/>
			<point x="60" y="123"/>
			<point x="194" y="-22"/>
		</contour>
		<contour>
			<point x="441" y="59" type="curve" smooth="yes"/>
			<point x="226" y="59"/>
			<point x="164" y="207"/>
			<point x="164" y="333" type="curve" smooth="yes"/>
			<point x="164" y="500"/>
			<point x="268" y="615"/>
			<point x="441" y="615" type="curve" smooth="yes"/>
			<point x="614" y="615"/>
			<point x="718" y="500"/>
			<point x="718" y="333" type="curve" smooth="yes"/>
			<point x="718" y="207"/>
			<point x="656" y="59"/>
		</contour>
		<contour>
			<point x="442" y="122" type="curve" smooth="yes"/>
			<point x="524" y="122"/>
			<point x="574" y="147"/>
			<point x="626" y="192" type="curve"/>
			<point x="583" y="258" type="line"/>
			<point x="557" y="239"/>
			<point x="529" y="218"/>
			<point x="484" y="218" type="curve" smooth="yes"/>
			<point x="422" y="218"/>
			<point x="391" y="259"/>
			<point x="391" y="343" type="curve" smooth="yes"/>
			<point x="391" y="422"/>
			<point x="418" y="454"/>
			<point x="466" y="454" type="curve" smooth="yes"/>
			<point x="509" y="454"/>
			<point x="533" y="412"/>
			<point x="551" y="366" type="curve"/>
			<point x="622" y="378" type="line"/>
			<point x="595" y="536" type="line"/>
			<point x="540" y="536" type="line"/>
			<point x="534" y="505" type="line"/>
			<point x="508" y="525"/>
			<point x="471" y="537"/>
			<point x="428" y="537" type="curve" smooth="yes"/>
			<point x="319" y="537"/>
			<point x="235" y="458"/>
			<point x="235" y="323" type="curve" smooth="yes"/>
			<point x="235" y="192"/>
			<point x="319" y="122"/>
		</contour>
	</outline>
</glyph>
<glyph name="ordfeminine" format="2">
	<unicode hex="00AA"/>
	<advance width="473"/>
	<outline>
		<contour>
			<point x="137" y="362" type="curve" smooth="yes"/>
			<point x="209" y="362"/>
			<point x="255" y="393"/>
			<point x="267" y="416" type="curve"/>
			<point x="276" y="387"/>
			<point x="318" y="362"/>
			<point x="369" y="362" type="curve" smooth="yes"/>
			<point x="414" y="362"/>
			<point x="453" y="380"/>
			<point x="473" y="396" type="curve"/>
			<point x="462" y="461" type="line"/>
			<point x="455" y="458"/>
			<point x="447" y="456"/>
			<point x="439" y="456" type="curve" smooth="yes"/>
			<point x="421" y="456"/>
			<point x="417" y="466"/>
			<point x="417" y="488" type="curve" smooth="yes"/>
			<point x="417" y="602" type="line" smooth="yes"/>
			<point x="417" y="697"/>
			<point x="365" y="742"/>
			<point x="230" y="742" type="curve" smooth="yes"/>
			<point x="108" y="742"/>
			<point x="40" y="697"/>
			<point x="40" y="635" type="curve" smooth="yes"/>
			<point x="40" y="597"/>
			<point x="58" y="578"/>
			<point x="96" y="578" type="curve" smooth="yes"/>
			<point x="141" y="578"/>
			<point x="162" y="595"/>
			<point x="162" y="618" type="curve" smooth="yes"/>
			<point x="162" y="625"/>
			<point x="158" y="638"/>
			<point x="153" y="652" type="curve"/>
			<point x="168" y="657"/>
			<point x="182" y="660"/>
			<point x="202" y="660" type="curve" smooth="yes"/>
			<point x="243" y="660"/>
			<point x="249" y="638"/>
			<point x="249" y="592" type="curve" smooth="yes"/>
			<point x="249" y="572" type="line"/>
			<point x="208" y="571"/>
			<point x="171" y="568"/>
			<point x="140" y="563" type="curve" smooth="yes"/>
			<point x="63" y="551"/>
			<point x="20" y="522"/>
			<point x="20" y="458" type="curve" smooth="yes"/>
			<point x="20" y="396"/>
			<point x="61" y="362"/>
		</contour>
		<contour>
			<point x="221" y="455" type="curve" smooth="yes"/>
			<point x="202" y="455"/>
			<point x="197" y="471"/>
			<point x="197" y="481" type="curve" smooth="yes"/>
			<point x="197" y="501"/>
			<point x="212" y="513"/>
			<point x="249" y="513" type="curve"/>
			<point x="249" y="478" type="line" smooth="yes"/>
			<point x="249" y="465"/>
			<point x="239" y="455"/>
		</contour>
	</outline>
</glyph>
<glyph name="logicalnot" format="2">
	<unicode hex="00AC"/>
	<advance width="582"/>
	<outline>
		<contour>
			<point x="346" y="125" type="line"/>
			<point x="505" y="125" type="line"/>
			<point x="505" y="409" type="line"/>
			<point x="77" y="409" type="line"/>
			<point x="77" y="254" type="line"/>
			<point x="346" y="254" type="line"/>
		</contour>
	</outline>
</glyph>
<glyph name="registered" format="2">
	<unicode hex="00AE"/>
	<advance width="492"/>
	<outline>
		<contour>
			<point x="246" y="375" type="curve" smooth="yes"/>
			<point x="369" y="375"/>
			<point x="458" y="462"/>
			<point x="458" y="586" type="curve" smooth="yes"/>
			<point x="458" y="710"/>
			<point x="377" y="791"/>
			<point x="247" y="791" type="curve" smooth="yes"/>
			<point x="129" y="791"/>
			<point x="34" y="710"/>
			<point x="34" y="579" type="curve" smooth="yes"/>
			<point x="34" y="463"/>
			<point x="106" y="375"/>
		</contour>
		<contour>
			<point x="335" y="466" type="curve" smooth="yes"/>
			<point x="308" y="466"/>
			<point x="286" y="477"/>
			<point x="274" y="507" type="curve" smooth="yes"/>
			<point x="257" y="549" type="line" smooth="yes"/>
			<point x="250" y="567"/>
			<point x="243" y="570"/>
			<point x="237" y="570" type="curve" smooth="yes"/>
			<point x="225" y="570" type="line"/>
			<point x="225" y="515" type="line" smooth="yes"/>
			<point x="225" y="506"/>
			<point x="227" y="502"/>
			<point x="236" y="500" type="curve" smooth="yes"/>
			<point x="250" y="497" type="line"/>
			<point x="250" y="469" type="line"/>
			<point x="129" y="469" type="line"/>
			<point x="129" y="497" type="line"/>
			<point x="151" y="500" type="line" smooth="yes"/>
			<point x="160" y="501"/>
			<point x="159" y="505"/>
			<point x="159" y="515" type="curve" smooth="yes"/>
			<point x="159" y="659" type="line" smooth="yes"/>
			<point x="159" y="668"/>
			<point x="155" y="671"/>
			<point x="147" y="673" type="curve" smooth="yes"/>
			<point x="129" y="677" type="line"/>
			<point x="129" y="704" type="line"/>
			<point x="250" y="704" type="line" smooth="yes"/>
			<point x="305" y="704"/>
			<point x="335" y="685"/>
			<point x="335" y="647" type="curve" smooth="yes"/>
			<point x="335" y="609"/>
			<point x="306" y="594"/>
			<point x="277" y="590" type="curve"/>
			<point x="277" y="586" type="line"/>
			<point x="299" y="586"/>
			<point x="318" y="574"/>
			<point x="326" y="557" type="curve" smooth="yes"/>
			<point x="340" y="528" type="line" smooth="yes"/>
			<point x="346" y="516"/>
			<point x="352" y="504"/>
			<point x="363" y="504" type="curve" smooth="yes"/>
			<point x="369" y="504"/>
			<point x="375" y="506"/>
			<point x="380" y="508" type="curve"/>
			<point x="388" y="485" type="line"/>
			<point x="374" y="473"/>
			<point x="356" y="466"/>
		</contour>
		<contour>
			<point x="225" y="601" type="line"/>
			<point x="234" y="601" type="line" smooth="yes"/>
			<point x="261" y="601"/>
			<point x="264" y="620"/>
			<point x="264" y="638" type="curve" smooth="yes"/>
			<point x="264" y="655"/>
			<point x="261" y="674"/>
			<point x="237" y="674" type="curve" smooth="yes"/>
			<point x="225" y="674" type="line"/>
		</contour>
	</outline>
</glyph>
<glyph name="degree" format="2">
	<unicode hex="00B0"/>
	<advance width="414"/>
	<outline>
		<contour>
			<point x="206" y="542" type="curve" smooth="yes"/>
			<point x="313" y="542"/>
			<point x="372" y="601"/>
			<point x="372" y="675" type="curve" smooth="yes"/>
			<point x="372" y="751"/>
			<point x="315" y="803"/>
			<point x="211" y="803" type="curve" smooth="yes"/>
			<point x="96" y="803"/>
			<point x="43" y="742"/>
			<point x="43" y="665" type="curve" smooth="yes"/>
			<point x="43" y="596"/>
			<point x="94" y="542"/>
		</contour>
		<contour>
			<point x="208" y="624" type="curve" smooth="yes"/>
			<point x="189" y="624"/>
			<point x="166" y="631"/>
			<point x="166" y="670" type="curve" smooth="yes"/>
			<point x="166" y="707"/>
			<point x="190" y="719"/>
			<point x="211" y="719" type="curve" smooth="yes"/>
			<point x="233" y="719"/>
			<point x="257" y="708"/>
			<point x="257" y="672" type="curve" smooth="yes"/>
			<point x="257" y="628"/>
			<point x="231" y="624"/>
		</contour>
	</outline>
</glyph>
<glyph name="twosuperior" format="2">
	<unicode hex="00B2"/>
	<advance width="427"/>
	<outline>
		<contour>
			<point x="36" y="374" type="line"/>
			<point x="395" y="374" type="line"/>
			<point x="408" y="544" type="line"/>
			<point x="320" y="544" type="line"/>
			<point x="303" y="500"/>
			<point x="298" y="487"/>
			<point x="239" y="487" type="curve" smooth="yes"/>
			<point x="166" y="487" type="line"/>
			<point x="341" y="596"/>
			<point x="388" y="635"/>
			<point x="388" y="716" type="curve" smooth="yes"/>
			<point x="388" y="805"/>
			<point x="309" y="839"/>
			<point x="208" y="839" type="curve" smooth="yes"/>
			<point x="92" y="839"/>
			<point x="11" y="789"/>
			<point x="11" y="707" type="curve" smooth="yes"/>
			<point x="11" y="664"/>
			<point x="37" y="647"/>
			<point x="78" y="647" type="curve" smooth="yes"/>
			<point x="115" y="647"/>
			<point x="142" y="671"/>
			<point x="142" y="698" type="curve" smooth="yes"/>
			<point x="142" y="716"/>
			<point x="133" y="731"/>
			<point x="126" y="747" type="curve"/>
			<point x="139" y="752"/>
			<point x="159" y="755"/>
			<point x="173" y="755" type="curve" smooth="yes"/>
			<point x="201" y="755"/>
			<point x="219" y="736"/>
			<point x="219" y="703" type="curve" smooth="yes"/>
			<point x="219" y="652"/>
			<point x="191" y="625"/>
			<point x="24" y="478" type="curve"/>
		</contour>
	</outline>
</glyph>
<glyph name="threesuperior" format="2">
	<unicode hex="00B3"/>
	<advance width="423"/>
	<outline>
		<contour>
			<point x="201" y="360" type="curve" smooth="yes"/>
			<point x="316" y="360"/>
			<point x="399" y="412"/>
			<point x="399" y="499" type="curve" smooth="yes"/>
			<point x="399" y="568"/>
			<point x="353" y="600"/>
			<point x="264" y="606" type="curve"/>
			<point x="264" y="613" type="line"/>
			<point x="343" y="630"/>
			<point x="392" y="672"/>
			<point x="392" y="730" type="curve" smooth="yes"/>
			<point x="392" y="804"/>
			<point x="319" y="839"/>
			<point x="211" y="839" type="curve" smooth="yes"/>
			<point x="113" y="839"/>
			<point x="21" y="794"/>
			<point x="21" y="716" type="curve" smooth="yes"/>
			<point x="21" y="679"/>
			<point x="47" y="662"/>
			<point x="88" y="662" type="curve" smooth="yes"/>
			<point x="125" y="662"/>
			<point x="152" y="678"/>
			<point x="152" y="705" type="curve" smooth="yes"/>
			<point x="152" y="723"/>
			<point x="141" y="736"/>
			<point x="134" y="752" type="curve"/>
			<point x="143" y="757"/>
			<point x="159" y="759"/>
			<point x="172" y="759" type="curve" smooth="yes"/>
			<point x="201" y="759"/>
			<point x="220" y="743"/>
			<point x="220" y="711" type="curve" smooth="yes"/>
			<point x="220" y="658"/>
			<point x="186" y="642"/>
			<point x="122" y="636" type="curve"/>
			<point x="114" y="553" type="line"/>
			<point x="189" y="557"/>
			<point x="227" y="548"/>
			<point x="227" y="517" type="curve" smooth="yes"/>
			<point x="227" y="493"/>
			<point x="208" y="478"/>
			<point x="170" y="478" type="curve" smooth="yes"/>
			<point x="134" y="478"/>
			<point x="105" y="489"/>
			<point x="72" y="511" type="curve"/>
			<point x="16" y="421" type="line"/>
			<point x="59" y="384"/>
			<point x="123" y="360"/>
		</contour>
	</outline>
</glyph>
<glyph name="paragraph" format="2">
	<unicode hex="00B6"/>
	<advance width="681"/>
	<outline>
		<contour>
			<point x="292" y="-144" type="line"/>
			<point x="603" y="-144" type="line"/>
			<point x="603" y="547" type="line" smooth="yes"/>
			<point x="603" y="584"/>
			<point x="610" y="594"/>
			<point x="634" y="598" type="curve" smooth="yes"/>
			<point x="661" y="602" type="line"/>
			<point x="661" y="700" type="line"/>
			<point x="410" y="700" type="line"/>
			<point x="410" y="11" type="line" smooth="yes"/>
			<point x="410" y="-29"/>
			<point x="403" y="-38"/>
			<point x="379" y="-40" type="curve" smooth="yes"/>
			<point x="292" y="-46" type="line"/>
		</contour>
		<contour>
			<point x="302" y="241" type="curve" smooth="yes"/>
			<point x="350" y="241" type="line"/>
			<point x="350" y="700" type="line"/>
			<point x="306" y="700" type="line" smooth="yes"/>
			<point x="116" y="700"/>
			<point x="27" y="622"/>
			<point x="27" y="463" type="curve" smooth="yes"/>
			<point x="27" y="302"/>
			<point x="137" y="241"/>
		</contour>
	</outline>
</glyph>
<glyph name="cedilla" format="2">
	<unicode hex="00B8"/>
	<advance width="500"/>
	<outline>
		<contour>
			<point x="274" y="-258" type="curve" smooth="yes"/>
			<point x="342" y="-258"/>
			<point x="401" y="-225"/>
			<point x="401" y="-140" type="curve" smooth="yes"/>
			<point x="401" y="-78"/>
			<point x="359" y="-31"/>
			<point x="273" y="-39" type="curve"/>
			<point x="292" y="13" type="line"/>
			<point x="189" y="13" type="line"/>
			<point x="159" y="-65" type="line"/>
			<point x="174" y="-109" type="line"/>
			<point x="186" y="-105"/>
			<point x="200" y="-103"/>
			<point x="215" y="-103" type="curve" smooth="yes"/>
			<point x="247" y="-103"/>
			<point x="256" y="-119"/>
			<point x="256" y="-135" type="curve" smooth="yes"/>
			<point x="256" y="-156"/>
			<point x="244" y="-169"/>
			<point x="216" y="-169" type="curve" smooth="yes"/>
			<point x="194" y="-169"/>
			<point x="168" y="-166"/>
			<point x="137" y="-154" type="curve"/>
			<point x="117" y="-221" type="line"/>
			<point x="143" y="-238"/>
			<point x="201" y="-258"/>
		</contour>
	</outline>
	<anchor name="_bottom" x="250" y="-30"/>
</glyph>
<glyph name="onesuperior" format="2">
	<unicode hex="00B9"/>
	<advance width="351"/>
	<outline>
		<contour>
			<point x="30" y="374" type="line"/>
			<point x="346" y="374" type="line"/>
			<point x="346" y="455" type="line"/>
			<point x="304" y="462" type="line" smooth="yes"/>
			<point x="283" y="465"/>
			<point x="279" y="472"/>
			<point x="279" y="492" type="curve" smooth="yes"/>
			<point x="279" y="817" type="line"/>
			<point x="256" y="834" type="line"/>
			<point x="22" y="803" type="line"/>
			<point x="15" y="719" type="line"/>
			<point x="68" y="714" type="line" smooth="yes"/>
			<point x="97" y="711"/>
			<point x="99" y="703"/>
			<point x="99" y="675" type="curve" smooth="yes"/>
			<point x="99" y="494" type="line" smooth="yes"/>
			<point x="99" y="475"/>
			<point x="95" y="465"/>
			<point x="75" y="462" type="curve" smooth="yes"/>
			<point x="30" y="455" type="line"/>
		</contour>
	</outline>
</glyph>
<glyph name="Ccedilla" format="2">
	<unicode hex="00C7"/>
	<advance width="721"/>
	<outline>
		<contour>
			<point x="412" y="-258" type="curve" smooth="yes"/>
			<point x="480" y="-258"/>
			<point x="539" y="-225"/>
			<point x="539" y="-140" type="curve" smooth="yes"/>
			<point x="539" y="-78"/>
			<point x="497" y="-31"/>
			<point x="411" y="-39" type="curve"/>
			<point x="421" y="-12" type="line"/>
			<point x="436" y="-11"/>
			<point x="451" y="-9"/>
			<point x="464" y="-6" type="curve" smooth="yes"/>
			<point x="584" y="15"/>
			<point x="654" y="78"/>
			<point x="689" y="116" type="curve"/>
			<point x="621" y="214" type="line"/>
			<point x="595" y="191"/>
			<point x="528" y="147"/>
			<point x="445" y="147" type="curve" smooth="yes"/>
			<point x="368" y="147"/>
			<point x="277" y="181"/>
			<point x="277" y="379" type="curve" smooth="yes"/>
			<point x="277" y="503"/>
			<point x="318" y="581"/>
			<point x="415" y="581" type="curve" smooth="yes"/>
			<point x="477" y="581"/>
			<point x="531" y="546"/>
			<point x="569" y="437" type="curve"/>
			<point x="681" y="458" type="line"/>
			<point x="643" y="714" type="line"/>
			<point x="559" y="714" type="line"/>
			<point x="546" y="667" type="line"/>
			<point x="503" y="696"/>
			<point x="458" y="714"/>
			<point x="393" y="714" type="curve" smooth="yes"/>
			<point x="172" y="714"/>
			<point x="35" y="569"/>
			<point x="35" y="345" type="curve" smooth="yes"/>
			<point x="35" y="134"/>
			<point x="142" y="12"/>
			<point x="318" y="-10" type="curve"/>
			<point x="297" y="-65" type="line"/>
			<point x="312" y="-109" type="line"/>
			<point x="324" y="-105"/>
			<point x="338" y="-103"/>
			<point x="353" y="-103" type="curve" smooth="yes"/>
			<point x="385" y="-103"/>
			<point x="394" y="-119"/>
			<point x="394" y="-135" type="curve" smooth="yes"/>
			<point x="394" y="-156"/>
			<point x="382" y="-169"/>
			<point x="354" y="-169" type="curve" smooth="yes"/>
			<point x="332" y="-169"/>
			<point x="306" y="-166"/>
			<point x="275" y="-154" type="curve"/>
			<point x="255" y="-221" type="line"/>
			<point x="281" y="-238"/>
			<point x="339" y="-258"/>
		</contour>
	</outline>
	<anchor name="bottom" x="388" y="-30"/>
	<anchor name="top" x="379" y="730"/>
</glyph>
<glyph name="Eth" format="2">
	<unicode hex="00D0"/>
	<advance width="791"/>
	<outline>
		<contour>
			<point x="391" y="700" type="curve" smooth="yes"/>
			<point x="36" y="700" type="line"/>
			<point x="36" y="602" type="line"/>
			<point x="62" y="598" type="line" smooth="yes"/>
			<point x="87" y="594"/>
			<point x="95" y="584"/>
			<point x="95" y="550" type="curve" smooth="yes"/>
			<point x="95" y="423" type="line"/>
			<point x="17" y="423" type="line"/>
			<point x="4" y="293" type="line"/>
			<point x="95" y="293" type="line"/>
			<point x="95" y="156" type="line" smooth="yes"/>
			<point x="95" y="116"/>
			<point x="89" y="109"/>
			<point x="64" y="104" type="curve" smooth="yes"/>
			<point x="36" y="98" type="line"/>
			<point x="36" y="0" type="line"/>
			<point x="316" y="0" type="line" smooth="yes"/>
			<point x="618" y="0"/>
			<point x="756" y="123"/>
			<point x="756" y="370" type="curve" smooth="yes"/>
			<point x="756" y="646"/>
			<point x="553" y="700"/>
		</contour>
		<contour>
			<point x="374" y="131" type="curve" smooth="yes"/>
			<point x="359" y="131"/>
			<point x="348" y="132"/>
			<point x="330" y="135" type="curve"/>
			<point x="330" y="293" type="line"/>
			<point x="431" y="293" type="line"/>
			<point x="431" y="423" type="line"/>
			<point x="330" y="423" type="line"/>
			<point x="330" y="569" type="line"/>
			<point x="374" y="569" type="line" smooth="yes"/>
			<point x="460" y="569"/>
			<point x="511" y="510"/>
			<point x="511" y="364" type="curve" smooth="yes"/>
			<point x="511" y="205"/>
			<point x="482" y="131"/>
		</contour>
	</outline>
	<anchor name="bottom" x="369" y="-30"/>
	<anchor name="top" x="364" y="730"/>
</glyph>
<glyph name="Oslash" format="2">
	<unicode hex="00D8"/>
	<advance width="794"/>
	<outline>
		<contour>
			<point x="18" y="-14" type="line"/>
			<point x="163" y="-14" type="line"/>
			<point x="197" y="26" type="line"/>
			<point x="248" y="0"/>
			<point x="311" y="-14"/>
			<point x="389" y="-14" type="curve" smooth="yes"/>
			<point x="646" y="-14"/>
			<point x="759" y="161"/>
			<point x="759" y="366" type="curve" smooth="yes"/>
			<point x="759" y="467"/>
			<point x="733" y="547"/>
			<point x="686" y="604" type="curve"/>
			<point x="779" y="714" type="line"/>
			<point x="634" y="714" type="line"/>
			<point x="600" y="673" type="line"/>
			<point x="548" y="700"/>
			<point x="485" y="714"/>
			<point x="414" y="714" type="curve" smooth="yes"/>
			<point x="188" y="714"/>
			<point x="35" y="586"/>
			<point x="35" y="340" type="curve" smooth="yes"/>
			<point x="35" y="243"/>
			<point x="58" y="158"/>
			<point x="110" y="95" type="curve"/>
		</contour>
		<contour>
			<point x="401" y="120" type="curve" smooth="yes"/>
			<point x="362" y="120"/>
			<point x="334" y="135"/>
			<point x="315" y="165" type="curve"/>
			<point x="513" y="399" type="line"/>
			<point x="514" y="384"/>
			<point x="514" y="367"/>
			<point x="514" y="350" type="curve" smooth="yes"/>
			<point x="514" y="162"/>
			<point x="474" y="120"/>
		</contour>
		<contour>
			<point x="282" y="298" type="line"/>
			<point x="281" y="316"/>
			<point x="280" y="336"/>
			<point x="280" y="357" type="curve" smooth="yes"/>
			<point x="280" y="534"/>
			<point x="318" y="581"/>
			<point x="394" y="581" type="curve" smooth="yes"/>
			<point x="432" y="581"/>
			<point x="461" y="566"/>
			<point x="481" y="533" type="curve"/>
		</contour>
	</outline>
	<anchor name="bottom" x="398" y="-30"/>
	<anchor name="top" x="398" y="730"/>
</glyph>
<glyph name="germandbls" format="2">
	<unicode hex="00DF"/>
	<advance width="849"/>
	<outline>
		<contour>
			<point x="358" y="-14" type="line"/>
			<point x="446" y="-14" type="line"/>
			<point x="457" y="28" type="line"/>
			<point x="481" y="12"/>
			<point x="524" y="-14"/>
			<point x="611" y="-14" type="curve" smooth="yes"/>
			<point x="723" y="-14"/>
			<point x="834" y="63"/>
			<point x="834" y="192" type="curve" smooth="yes"/>
			<point x="834" y="386"/>
			<point x="569" y="335"/>
			<point x="569" y="436" type="curve" smooth="yes"/>
			<point x="569" y="501"/>
			<point x="715" y="527"/>
			<point x="715" y="637" type="curve" smooth="yes"/>
			<point x="715" y="725"/>
			<point x="599" y="782"/>
			<point x="430" y="782" type="curve" smooth="yes"/>
			<point x="212" y="782"/>
			<point x="87" y="690"/>
			<point x="87" y="527" type="curve" smooth="yes"/>
			<point x="87" y="515" type="line"/>
			<point x="15" y="497" type="line"/>
			<point x="15" y="402" type="line"/>
			<point x="85" y="402" type="line"/>
			<point x="85" y="151" type="line" smooth="yes"/>
			<point x="85" y="113"/>
			<point x="79" y="105"/>
			<point x="53" y="100" type="curve" smooth="yes"/>
			<point x="24" y="94" type="line"/>
			<point x="24" y="0" type="line"/>
			<point x="310" y="0" type="line"/>
			<point x="310" y="552" type="line" smooth="yes"/>
			<point x="310" y="645"/>
			<point x="346" y="692"/>
			<point x="417" y="692" type="curve" smooth="yes"/>
			<point x="462" y="692"/>
			<point x="509" y="670"/>
			<point x="509" y="599" type="curve" smooth="yes"/>
			<point x="509" y="472"/>
			<point x="410" y="462"/>
			<point x="410" y="336" type="curve" smooth="yes"/>
			<point x="410" y="161"/>
			<point x="650" y="214"/>
			<point x="650" y="131" type="curve" smooth="yes"/>
			<point x="650" y="103"/>
			<point x="621" y="88"/>
			<point x="588" y="88" type="curve" smooth="yes"/>
			<point x="507" y="88"/>
			<point x="463" y="144"/>
			<point x="453" y="175" type="curve"/>
			<point x="343" y="170" type="line"/>
		</contour>
	</outline>
</glyph>
<glyph name="eth" format="2">
	<unicode hex="00F0"/>
	<advance width="624"/>
	<outline>
		<contour>
			<point x="296" y="-14" type="curve" smooth="yes"/>
			<point x="516" y="-14"/>
			<point x="600" y="124"/>
			<point x="600" y="351" type="curve" smooth="yes"/>
			<point x="600" y="491"/>
			<point x="551" y="614"/>
			<point x="447" y="695" type="curve"/>
			<point x="550" y="759" type="line"/>
			<point x="491" y="863" type="line"/>
			<point x="338" y="756" type="line"/>
			<point x="274" y="781"/>
			<point x="197" y="795"/>
			<point x="107" y="795" type="curve"/>
			<point x="90" y="695" type="line"/>
			<point x="133" y="688"/>
			<point x="172" y="678"/>
			<point x="206" y="666" type="curve"/>
			<point x="132" y="621" type="line"/>
			<point x="197" y="522" type="line"/>
			<point x="312" y="603" type="line"/>
			<point x="342" y="572"/>
			<point x="376" y="506"/>
			<point x="388" y="446" type="curve"/>
			<point x="383" y="445" type="line"/>
			<point x="355" y="477"/>
			<point x="319" y="496"/>
			<point x="267" y="496" type="curve" smooth="yes"/>
			<point x="150" y="496"/>
			<point x="27" y="424"/>
			<point x="27" y="238" type="curve" smooth="yes"/>
			<point x="27" y="76"/>
			<point x="130" y="-14"/>
		</contour>
		<contour>
			<point x="319" y="94" type="curve" smooth="yes"/>
			<point x="267" y="94"/>
			<point x="254" y="153"/>
			<point x="254" y="244" type="curve" smooth="yes"/>
			<point x="254" y="321"/>
			<point x="267" y="389"/>
			<point x="319" y="389" type="curve" smooth="yes"/>
			<point x="337" y="389"/>
			<point x="355" y="379"/>
			<point x="363" y="362" type="curve" smooth="yes"/>
			<point x="373" y="341"/>
			<point x="378" y="308"/>
			<point x="378" y="244" type="curve" smooth="yes"/>
			<point x="378" y="129"/>
			<point x="361" y="94"/>
		</contour>
	</outline>
</glyph>
<glyph name="aogonek" format="2">
	<unicode hex="0105"/>
	<advance width="617"/>
	<outline>
		<contour>
			<point x="445" y="-255" type="curve" smooth="yes"/>
			<point x="507" y="-255"/>
			<point x="561" y="-235"/>
			<point x="606" y="-195" type="curve"/>
			<point x="572" y="-130" type="line"/>
			<point x="550" y="-142"/>
			<point x="526" y="-150"/>
			<point x="508" y="-150" type="curve" smooth="yes"/>
			<point x="486" y="-150"/>
			<point x="475" y="-139"/>
			<point x="475" y="-115" type="curve" smooth="yes"/>
			<point x="475" y="-69"/>
			<point x="517" y="-25"/>
			<point x="620" y="35" type="curve"/>
			<point x="604" y="113" type="line"/>
			<point x="589" y="109"/>
			<point x="580" y="107"/>
			<point x="571" y="107" type="curve" smooth="yes"/>
			<point x="548" y="107"/>
			<point x="540" y="118"/>
			<point x="540" y="152" type="curve" smooth="yes"/>
			<point x="540" y="330" type="line" smooth="yes"/>
			<point x="540" y="468"/>
			<point x="463" y="530"/>
			<point x="294" y="530" type="curve" smooth="yes"/>
			<point x="138" y="530"/>
			<point x="35" y="469"/>
			<point x="35" y="377" type="curve" smooth="yes"/>
			<point x="35" y="334"/>
			<point x="64" y="309"/>
			<point x="115" y="309" type="curve" smooth="yes"/>
			<point x="174" y="309"/>
			<point x="210" y="331"/>
			<point x="210" y="367" type="curve" smooth="yes"/>
			<point x="210" y="382"/>
			<point x="202" y="402"/>
			<point x="185" y="431" type="curve"/>
			<point x="205" y="441"/>
			<point x="229" y="447"/>
			<point x="254" y="447" type="curve" smooth="yes"/>
			<point x="301" y="447"/>
			<point x="315" y="425"/>
			<point x="315" y="350" type="curve" smooth="yes"/>
			<point x="315" y="287" type="line"/>
			<point x="97" y="280"/>
			<point x="22" y="238"/>
			<point x="22" y="124" type="curve" smooth="yes"/>
			<point x="22" y="37"/>
			<point x="84" y="-14"/>
			<point x="189" y="-14" type="curve" smooth="yes"/>
			<point x="258" y="-14"/>
			<point x="317" y="16"/>
			<point x="341" y="63" type="curve"/>
			<point x="353" y="25"/>
			<point x="389" y="-3"/>
			<point x="436" y="-11" type="curve"/>
			<point x="353" y="-56"/>
			<point x="311" y="-104"/>
			<point x="311" y="-154" type="curve" smooth="yes"/>
			<point x="311" y="-216"/>
			<point x="362" y="-255"/>
		</contour>
		<contour>
			<point x="274" y="93" type="curve" smooth="yes"/>
			<point x="250" y="93"/>
			<point x="239" y="110"/>
			<point x="239" y="145" type="curve" smooth="yes"/>
			<point x="239" y="187"/>
			<point x="262" y="205"/>
			<point x="315" y="205" type="curve"/>
			<point x="315" y="141" type="line" smooth="yes"/>
			<point x="315" y="109"/>
			<point x="302" y="93"/>
		</contour>
	</outline>
	<anchor name="bottom" x="309" y="-30"/>
	<anchor name="top" x="297" y="550"/>
</glyph>
<glyph name="Eogonek" format="2">
	<unicode hex="0118"/>
	<advance width="692"/>
	<outline>
		<contour>
			<point x="496" y="-255" type="curve" smooth="yes"/>
			<point x="570" y="-255"/>
			<point x="621" y="-227"/>
			<point x="657" y="-195" type="curve"/>
			<point x="623" y="-130" type="line"/>
			<point x="593" y="-146"/>
			<point x="569" y="-150"/>
			<point x="557" y="-150" type="curve" smooth="yes"/>
			<point x="538" y="-150"/>
			<point x="526" y="-142"/>
			<point x="526" y="-115" type="curve" smooth="yes"/>
			<point x="526" y="-86"/>
			<point x="567" y="-40"/>
			<point x="645" y="0" type="curve"/>
			<point x="672" y="243" type="line"/>
			<point x="543" y="243" type="line"/>
			<point x="522" y="151"/>
			<point x="508" y="116"/>
			<point x="431" y="116" type="curve" smooth="yes"/>
			<point x="330" y="116" type="line"/>
			<point x="330" y="296" type="line"/>
			<point x="354" y="296" type="line" smooth="yes"/>
			<point x="386" y="296"/>
			<point x="396" y="280"/>
			<point x="403" y="226" type="curve"/>
			<point x="496" y="239" type="line"/>
			<point x="496" y="479" type="line"/>
			<point x="405" y="473" type="line"/>
			<point x="394" y="423"/>
			<point x="382" y="407"/>
			<point x="356" y="407" type="curve" smooth="yes"/>
			<point x="330" y="407" type="line"/>
			<point x="330" y="586" type="line"/>
			<point x="427" y="586" type="line" smooth="yes"/>
			<point x="498" y="586"/>
			<point x="513" y="558"/>
			<point x="530" y="479" type="curve"/>
			<point x="660" y="493" type="line"/>
			<point x="628" y="700" type="line"/>
			<point x="36" y="700" type="line"/>
			<point x="36" y="602" type="line"/>
			<point x="62" y="598" type="line" smooth="yes"/>
			<point x="87" y="594"/>
			<point x="95" y="584"/>
			<point x="95" y="550" type="curve" smooth="yes"/>
			<point x="95" y="156" type="line" smooth="yes"/>
			<point x="95" y="116"/>
			<point x="89" y="109"/>
			<point x="64" y="104" type="curve" smooth="yes"/>
			<point x="36" y="98" type="line"/>
			<point x="36" y="0" type="line"/>
			<point x="523" y="0" type="line"/>
			<point x="424" y="-41"/>
			<point x="362" y="-87"/>
			<point x="362" y="-154" type="curve" smooth="yes"/>
			<point x="362" y="-196"/>
			<point x="386" y="-255"/>
		</contour>
	</outline>
	<anchor name="bottom" x="358" y="-30"/>
	<anchor name="top" x="349" y="730"/>
</glyph>
<glyph name="gcircumflex" format="2">
	<unicode hex="011D"/>
	<advance width="652"/>
	<outline>
		<contour>
			<point x="143" y="570" type="line"/>
			<point x="299" y="687" type="line"/>
			<point x="435" y="586" type="line"/>
			<point x="487" y="641" type="line"/>
			<point x="399" y="761" type="line" smooth="yes"/>
			<point x="366" y="806"/>
			<point x="349" y="826"/>
			<point x="299" y="826" type="curve" smooth="yes"/>
			<point x="267" y="826"/>
			<point x="245" y="819"/>
			<point x="211" y="773" type="curve" smooth="yes"/>
			<point x="95" y="618" type="line"/>
		</contour>
		<component base="g"/>
	</outline>
</glyph>
<glyph name="idotless" format="2">
	<unicode hex="0131"/>
	<advance width="396"/>
	<outline>
		<contour>
			<point x="29" y="0" type="line"/>
			<point x="373" y="0" type="line"/>
			<point x="373" y="94" type="line"/>
			<point x="339" y="101" type="line" smooth="yes"/>
			<point x="317" y="106"/>
			<point x="314" y="114"/>
			<point x="314" y="149" type="curve" smooth="yes"/>
			<point x="314" y="514" type="line"/>
			<point x="296" y="525" type="line"/>
			<point x="31" y="511" type="line"/>
			<point x="24" y="407" type="line"/>
			<point x="54" y="402" type="line" smooth="yes"/>
			<point x="85" y="397"/>
			<point x="89" y="385"/>
			<point x="89" y="340" type="curve" smooth="yes"/>
			<point x="89" y="149" type="line" smooth="yes"/>
			<point x="89" y="114"/>
			<point x="84" y="105"/>
			<point x="63" y="101" type="curve" smooth="yes"/>
			<point x="29" y="95" type="line"/>
		</contour>
	</outline>
	<anchor name="bottom" x="193" y="-30"/>
	<anchor name="top" x="164" y="550"/>
</glyph>
<glyph name="OE" format="2">
	<unicode hex="0152"/>
	<advance width="1111"/>
	<outline>
		<contour>
			<point x="353" y="-14" type="curve" smooth="yes"/>
			<point x="442" y="-14"/>
			<point x="514" y="18"/>
			<point x="554" y="67" type="curve"/>
			<point x="554" y="0" type="line"/>
			<point x="1064" y="0" type="line"/>
			<point x="1091" y="243" type="line"/>
			<point x="962" y="243" type="line"/>
			<point x="941" y="151"/>
			<point x="927" y="116"/>
			<point x="850" y="116" type="curve" smooth="yes"/>
			<point x="749" y="116" type="line"/>
			<point x="749" y="296" type="line"/>
			<point x="773" y="296" type="line" smooth="yes"/>
			<point x="805" y="296"/>
			<point x="815" y="280"/>
			<point x="822" y="226" type="curve"/>
			<point x="915" y="239" type="line"/>
			<point x="915" y="479" type="line"/>
			<point x="824" y="473" type="line"/>
			<point x="813" y="423"/>
			<point x="801" y="407"/>
			<point x="775" y="407" type="curve" smooth="yes"/>
			<point x="749" y="407" type="line"/>
			<point x="749" y="586" type="line"/>
			<point x="846" y="586" type="line" smooth="yes"/>
			<point x="917" y="586"/>
			<point x="932" y="558"/>
			<point x="949" y="479" type="curve"/>
			<point x="1079" y="493" type="line"/>
			<point x="1047" y="700" type="line"/>
			<point x="554" y="700" type="line"/>
			<point x="554" y="638" type="line"/>
			<point x="510" y="692"/>
			<point x="435" y="714"/>
			<point x="365" y="714" type="curve" smooth="yes"/>
			<point x="184" y="714"/>
			<point x="35" y="586"/>
			<point x="35" y="340" type="curve" smooth="yes"/>
			<point x="35" y="139"/>
			<point x="151" y="-14"/>
		</contour>
		<contour>
			<point x="405" y="120" type="curve" smooth="yes"/>
			<point x="318" y="120"/>
			<point x="280" y="193"/>
			<point x="280" y="357" type="curve" smooth="yes"/>
			<point x="280" y="534"/>
			<point x="323" y="581"/>
			<point x="399" y="581" type="curve" smooth="yes"/>
			<point x="480" y="581"/>
			<point x="519" y="513"/>
			<point x="519" y="350" type="curve" smooth="yes"/>
			<point x="519" y="168"/>
			<point x="478" y="120"/>
		</contour>
	</outline>
</glyph>
<glyph name="oe" format="2">
	<unicode hex="0153"/>
	<advance width="985"/>
	<outline>
		<contour>
			<point x="297" y="-14" type="curve" smooth="yes"/>
			<point x="399" y="-14"/>
			<point x="460" y="23"/>
			<point x="499" y="56" type="curve"/>
			<point x="532" y="19"/>
			<point x="613" y="-14"/>
			<point x="692" y="-14" type="curve" smooth="yes"/>
			<point x="813" y="-14"/>
			<point x="904" y="41"/>
			<point x="963" y="112" type="curve"/>
			<point x="900" y="190" type="line"/>
			<point x="850" y="160"/>
			<point x="808" y="142"/>
			<point x="738" y="142" type="curve" smooth="yes"/>
			<point x="678" y="142"/>
			<point x="636" y="167"/>
			<point x="631" y="222" type="curve"/>
			<point x="945" y="222" type="line"/>
			<point x="951" y="250"/>
			<point x="954" y="287"/>
			<point x="954" y="323" type="curve" smooth="yes"/>
			<point x="954" y="461"/>
			<point x="859" y="531"/>
			<point x="715" y="531" type="curve" smooth="yes"/>
			<point x="637" y="531"/>
			<point x="570" y="509"/>
			<point x="515" y="454" type="curve"/>
			<point x="480" y="497"/>
			<point x="399" y="531"/>
			<point x="326" y="531" type="curve" smooth="yes"/>
			<point x="158" y="531"/>
			<point x="27" y="453"/>
			<point x="27" y="251" type="curve" smooth="yes"/>
			<point x="27" y="73"/>
			<point x="141" y="-14"/>
		</contour>
		<contour>
			<point x="337" y="102" type="curve" smooth="yes"/>
			<point x="278" y="102"/>
			<point x="262" y="154"/>
			<point x="262" y="285" type="curve" smooth="yes"/>
			<point x="262" y="393"/>
			<point x="292" y="415"/>
			<point x="332" y="415" type="curve" smooth="yes"/>
			<point x="376" y="415"/>
			<point x="404" y="390"/>
			<point x="404" y="251" type="curve" smooth="yes"/>
			<point x="404" y="146"/>
			<point x="392" y="102"/>
		</contour>
		<contour>
			<point x="629" y="325" type="line"/>
			<point x="630" y="378"/>
			<point x="648" y="427"/>
			<point x="698" y="427" type="curve" smooth="yes"/>
			<point x="728" y="427"/>
			<point x="744" y="406"/>
			<point x="744" y="374" type="curve" smooth="yes"/>
			<point x="744" y="359"/>
			<point x="743" y="343"/>
			<point x="740" y="325" type="curve"/>
		</contour>
	</outline>
</glyph>
<glyph name="Tcedilla" format="2">
	<unicode hex="0162"/>
	<advance width="756"/>
	<outline>
		<contour>
			<point x="401" y="-258" type="curve" smooth="yes"/>
			<point x="469" y="-258"/>
			<point x="528" y="-225"/>
			<point x="528" y="-140" type="curve" smooth="yes"/>
			<point x="528" y="-78"/>
			<point x="486" y="-31"/>
			<point x="400" y="-39" type="curve"/>
			<point x="414" y="0" type="line"/>
			<point x="590" y="0" type="line"/>
			<point x="590" y="98" type="line"/>
			<point x="530" y="105" type="line" smooth="yes"/>
			<point x="496" y="109"/>
			<point x="496" y="131"/>
			<point x="496" y="157" type="curve" smooth="yes"/>
			<point x="496" y="586" type="line"/>
			<point x="515" y="586" type="line" smooth="yes"/>
			<point x="568" y="586"/>
			<point x="594" y="559"/>
			<point x="615" y="449" type="curve"/>
			<point x="751" y="473" type="line"/>
			<point x="723" y="700" type="line"/>
			<point x="34" y="700" type="line"/>
			<point x="5" y="474" type="line"/>
			<point x="142" y="449" type="line"/>
			<point x="163" y="557"/>
			<point x="185" y="586"/>
			<point x="246" y="586" type="curve" smooth="yes"/>
			<point x="261" y="586" type="line"/>
			<point x="261" y="157" type="line" smooth="yes"/>
			<point x="261" y="130"/>
			<point x="257" y="108"/>
			<point x="228" y="105" type="curve" smooth="yes"/>
			<point x="167" y="98" type="line"/>
			<point x="167" y="0" type="line"/>
			<point x="311" y="0" type="line"/>
			<point x="286" y="-65" type="line"/>
			<point x="301" y="-109" type="line"/>
			<point x="313" y="-105"/>
			<point x="327" y="-103"/>
			<point x="342" y="-103" type="curve" smooth="yes"/>
			<point x="374" y="-103"/>
			<point x="383" y="-119"/>
			<point x="383" y="-135" type="curve" smooth="yes"/>
			<point x="383" y="-156"/>
			<point x="371" y="-169"/>
			<point x="343" y="-169" type="curve" smooth="yes"/>
			<point x="321" y="-169"/>
			<point x="295" y="-166"/>
			<point x="264" y="-154" type="curve"/>
			<point x="244" y="-221" type="line"/>
			<point x="270" y="-238"/>
			<point x="328" y="-258"/>
		</contour>
	</outline>
	<anchor name="bottom" x="377" y="-30"/>
	<anchor name="top" x="375" y="730"/>
</glyph>
<glyph name="tcedilla" format="2">
	<unicode hex="0163"/>
	<advance width="473"/>
	<outline>
		<contour>
			<point x="284" y="-258" type="curve" smooth="yes"/>
			<point x="352" y="-258"/>
			<point x="411" y="-225"/>
			<point x="411" y="-140" type="curve" smooth="yes"/>
			<point x="411" y="-78"/>
			<point x="369" y="-31"/>
			<point x="283" y="-39" type="curve"/>
			<point x="292" y="-13" type="line"/>
			<point x="375" y="-7"/>
			<point x="431" y="25"/>
			<point x="468" y="61" type="curve"/>
			<point x="423" y="149" type="line"/>
			<point x="402" y="137"/>
			<point x="375" y="128"/>
			<point x="353" y="128" type="curve" smooth="yes"/>
			<point x="312" y="128"/>
			<point x="306" y="155"/>
			<point x="306" y="195" type="curve" smooth="yes"/>
			<point x="306" y="402" type="line"/>
			<point x="434" y="402" type="line"/>
			<point x="434" y="517" type="line"/>
			<point x="306" y="517" type="line"/>
			<point x="306" y="686" type="line"/>
			<point x="284" y="697" type="line"/>
			<point x="158" y="680" type="line"/>
			<point x="145" y="573"/>
			<point x="122" y="520"/>
			<point x="15" y="501" type="curve"/>
			<point x="15" y="402" type="line"/>
			<point x="81" y="402" type="line"/>
			<point x="81" y="148" type="line" smooth="yes"/>
			<point x="81" y="67"/>
			<point x="120" y="15"/>
			<point x="192" y="-5" type="curve"/>
			<point x="169" y="-65" type="line"/>
			<point x="184" y="-109" type="line"/>
			<point x="196" y="-105"/>
			<point x="210" y="-103"/>
			<point x="225" y="-103" type="curve" smooth="yes"/>
			<point x="257" y="-103"/>
			<point x="266" y="-119"/>
			<point x="266" y="-135" type="curve" smooth="yes"/>
			<point x="266" y="-156"/>
			<point x="254" y="-169"/>
			<point x="226" y="-169" type="curve" smooth="yes"/>
			<point x="204" y="-169"/>
			<point x="178" y="-166"/>
			<point x="147" y="-154" type="curve"/>
			<point x="127" y="-221" type="line"/>
			<point x="153" y="-238"/>
			<point x="211" y="-258"/>
		</contour>
	</outline>
	<anchor name="bottom" x="260" y="-30"/>
</glyph>
<glyph name="Uogonek" format="2">
	<unicode hex="0172"/>
	<advance width="763"/>
	<outline>
		<contour>
			<point x="423" y="-255" type="curve" smooth="yes"/>
			<point x="497" y="-255"/>
			<point x="548" y="-227"/>
			<point x="584" y="-195" type="curve"/>
			<point x="550" y="-130" type="line"/>
			<point x="520" y="-146"/>
			<point x="496" y="-150"/>
			<point x="484" y="-150" type="curve" smooth="yes"/>
			<point x="465" y="-150"/>
			<point x="453" y="-142"/>
			<point x="453" y="-115" type="curve" smooth="yes"/>
			<point x="453" y="-77"/>
			<point x="488" y="-33"/>
			<point x="554" y="17" type="curve"/>
			<point x="636" y="57"/>
			<point x="678" y="134"/>
			<point x="678" y="252" type="curve" smooth="yes"/>
			<point x="678" y="542" type="line" smooth="yes"/>
			<point x="678" y="580"/>
			<point x="683" y="591"/>
			<point x="709" y="596" type="curve" smooth="yes"/>
			<point x="737" y="602" type="line"/>
			<point x="737" y="700" type="line"/>
			<point x="482" y="700" type="line"/>
			<point x="482" y="602" type="line"/>
			<point x="507" y="598" type="line" smooth="yes"/>
			<point x="537" y="593"/>
			<point x="542" y="583"/>
			<point x="542" y="546" type="curve" smooth="yes"/>
			<point x="542" y="243" type="line" smooth="yes"/>
			<point x="542" y="185"/>
			<point x="522" y="132"/>
			<point x="428" y="132" type="curve" smooth="yes"/>
			<point x="348" y="132"/>
			<point x="320" y="178"/>
			<point x="320" y="246" type="curve" smooth="yes"/>
			<point x="320" y="547" type="line" smooth="yes"/>
			<point x="320" y="579"/>
			<point x="326" y="591"/>
			<point x="350" y="596" type="curve" smooth="yes"/>
			<point x="379" y="602" type="line"/>
			<point x="379" y="700" type="line"/>
			<point x="26" y="700" type="line"/>
			<point x="26" y="602" type="line"/>
			<point x="51" y="598" type="line" smooth="yes"/>
			<point x="80" y="593"/>
			<point x="85" y="582"/>
			<point x="85" y="546" type="curve" smooth="yes"/>
			<point x="85" y="252" type="line" smooth="yes"/>
			<point x="85" y="123"/>
			<point x="137" y="-14"/>
			<point x="389" y="-14" type="curve" smooth="yes"/>
			<point x="396" y="-14"/>
			<point x="402" y="-14"/>
			<point x="409" y="-14" type="curve"/>
			<point x="339" y="-52"/>
			<point x="289" y="-98"/>
			<point x="289" y="-154" type="curve" smooth="yes"/>
			<point x="289" y="-196"/>
			<point x="313" y="-255"/>
		</contour>
	</outline>
	<anchor name="bottom" x="391" y="-30"/>
	<anchor name="top" x="421" y="730"/>
</glyph>
<glyph name="uogonek" format="2">
	<unicode hex="0173"/>
	<advance width="719"/>
	<outline>
		<contour>
			<point x="528" y="-255" type="curve" smooth="yes"/>
			<point x="606" y="-255"/>
			<point x="657" y="-227"/>
			<point x="693" y="-195" type="curve"/>
			<point x="659" y="-130" type="line"/>
			<point x="629" y="-146"/>
			<point x="605" y="-150"/>
			<point x="589" y="-150" type="curve" smooth="yes"/>
			<point x="567" y="-150"/>
			<point x="555" y="-142"/>
			<point x="555" y="-115" type="curve" smooth="yes"/>
			<point x="555" y="-89"/>
			<point x="567" y="-60"/>
			<point x="628" y="-2" type="curve"/>
			<point x="696" y="0" type="line"/>
			<point x="696" y="98" type="line"/>
			<point x="667" y="104" type="line" smooth="yes"/>
			<point x="644" y="109"/>
			<point x="636" y="123"/>
			<point x="636" y="169" type="curve" smooth="yes"/>
			<point x="636" y="514" type="line"/>
			<point x="617" y="525" type="line"/>
			<point x="369" y="511" type="line"/>
			<point x="354" y="406" type="line"/>
			<point x="377" y="402" type="line" smooth="yes"/>
			<point x="405" y="397"/>
			<point x="411" y="390"/>
			<point x="411" y="341" type="curve" smooth="yes"/>
			<point x="411" y="232" type="line" smooth="yes"/>
			<point x="411" y="164"/>
			<point x="391" y="133"/>
			<point x="350" y="133" type="curve" smooth="yes"/>
			<point x="319" y="133"/>
			<point x="304" y="152"/>
			<point x="304" y="209" type="curve" smooth="yes"/>
			<point x="304" y="514" type="line"/>
			<point x="285" y="525" type="line"/>
			<point x="22" y="511" type="line"/>
			<point x="15" y="407" type="line"/>
			<point x="46" y="402" type="line" smooth="yes"/>
			<point x="79" y="397"/>
			<point x="79" y="376"/>
			<point x="79" y="340" type="curve" smooth="yes"/>
			<point x="79" y="156" type="line" smooth="yes"/>
			<point x="79" y="51"/>
			<point x="137" y="-14"/>
			<point x="246" y="-14" type="curve" smooth="yes"/>
			<point x="363" y="-14"/>
			<point x="398" y="36"/>
			<point x="424" y="83" type="curve"/>
			<point x="429" y="83" type="line"/>
			<point x="442" y="-9" type="line"/>
			<point x="516" y="-6" type="line"/>
			<point x="447" y="-46"/>
			<point x="391" y="-90"/>
			<point x="391" y="-154" type="curve" smooth="yes"/>
			<point x="391" y="-196"/>
			<point x="415" y="-255"/>
		</contour>
	</outline>
	<anchor name="bottom" x="365" y="-30"/>
	<anchor name="top" x="340" y="550"/>
</glyph>
<glyph name="Schwa" format="2">
	<unicode hex="018F"/>
	<advance width="752"/>
	<outline>
		<contour>
			<point x="345" y="-14" type="curve" smooth="yes"/>
			<point x="521" y="-14"/>
			<point x="717" y="74"/>
			<point x="717" y="362" type="curve" smooth="yes"/>
			<point x="717" y="593"/>
			<point x="590" y="714"/>
			<point x="381" y="714" type="curve" smooth="yes"/>
			<point x="232" y="714"/>
			<point x="128" y="653"/>
			<point x="51" y="556" type="curve"/>
			<point x="108" y="484" type="line"/>
			<point x="179" y="539"/>
			<point x="259" y="569"/>
			<point x="327" y="569" type="curve" smooth="yes"/>
			<point x="399" y="569"/>
			<point x="464" y="536"/>
			<point x="472" y="382" type="curve"/>
			<point x="45" y="382" type="line"/>
			<point x="38" y="341"/>
			<point x="35" y="300"/>
			<point x="35" y="273" type="curve" smooth="yes"/>
			<point x="35" y="117"/>
			<point x="131" y="-14"/>
		</contour>
		<contour>
			<point x="369" y="121" type="curve" smooth="yes"/>
			<point x="304" y="121"/>
			<point x="273" y="160"/>
			<point x="273" y="220" type="curve" smooth="yes"/>
			<point x="273" y="235"/>
			<point x="275" y="254"/>
			<point x="276" y="261" type="curve"/>
			<point x="469" y="261" type="line"/>
			<point x="462" y="161"/>
			<point x="434" y="121"/>
		</contour>
	</outline>
</glyph>
<glyph name="florin" format="2">
	<unicode hex="0192"/>
	<advance width="692"/>
	<outline>
		<contour>
			<point x="159" y="-193" type="curve" smooth="yes"/>
			<point x="303" y="-193"/>
			<point x="399" y="-85"/>
			<point x="417" y="57" type="curve" smooth="yes"/>
			<point x="452" y="327" type="line"/>
			<point x="594" y="327" type="line"/>
			<point x="608" y="442" type="line"/>
			<point x="470" y="442" type="line"/>
			<point x="475" y="510" type="line" smooth="yes"/>
			<point x="481" y="588"/>
			<point x="497" y="625"/>
			<point x="523" y="625" type="curve" smooth="yes"/>
			<point x="537" y="625"/>
			<point x="551" y="620"/>
			<point x="562" y="613" type="curve"/>
			<point x="547" y="581"/>
			<point x="540" y="565"/>
			<point x="540" y="547" type="curve" smooth="yes"/>
			<point x="540" y="508"/>
			<point x="570" y="487"/>
			<point x="622" y="487" type="curve" smooth="yes"/>
			<point x="686" y="487"/>
			<point x="712" y="518"/>
			<point x="712" y="569" type="curve" smooth="yes"/>
			<point x="712" y="654"/>
			<point x="642" y="714"/>
			<point x="523" y="714" type="curve" smooth="yes"/>
			<point x="381" y="715"/>
			<point x="291" y="603"/>
			<point x="266" y="461" type="curve"/>
			<point x="262" y="440" type="line"/>
			<point x="186" y="440" type="line"/>
			<point x="171" y="327" type="line"/>
			<point x="247" y="327" type="line"/>
			<point x="208" y="13" type="line"/>
			<point x="201" y="-59"/>
			<point x="185" y="-104"/>
			<point x="155" y="-104" type="curve" smooth="yes"/>
			<point x="140" y="-104"/>
			<point x="131" y="-99"/>
			<point x="120" y="-92" type="curve"/>
			<point x="135" y="-60"/>
			<point x="142" y="-44"/>
			<point x="142" y="-26" type="curve" smooth="yes"/>
			<point x="142" y="13"/>
			<point x="112" y="34"/>
			<point x="60" y="34" type="curve" smooth="yes"/>
			<point x="-4" y="34"/>
			<point x="-30" y="3"/>
			<point x="-30" y="-48" type="curve" smooth="yes"/>
			<point x="-30" y="-133"/>
			<point x="40" y="-193"/>
		</contour>
	</outline>
</glyph>
<glyph name="ohorn" format="2">
	<unicode hex="01A1"/>
	<advance width="772"/>
	<outline>
		<contour>
			<point x="322" y="-14" type="curve" smooth="yes"/>
			<point x="524" y="-14"/>
			<point x="635" y="80"/>
			<point x="635" y="268" type="curve" smooth="yes"/>
			<point x="635" y="305"/>
			<point x="631" y="337"/>
			<point x="622" y="365" type="curve"/>
			<point x="724" y="397"/>
			<point x="772" y="474"/>
			<point x="772" y="569" type="curve" smooth="yes"/>
			<point x="772" y="649"/>
			<point x="719" y="685"/>
			<point x="661" y="685" type="curve" smooth="yes"/>
			<point x="617" y="685"/>
			<point x="566" y="659"/>
			<point x="566" y="596" type="curve" smooth="yes"/>
			<point x="566" y="551"/>
			<point x="590" y="521"/>
			<point x="640" y="521" type="curve" smooth="yes"/>
			<point x="654" y="521" type="line"/>
			<point x="652" y="481"/>
			<point x="632" y="454"/>
			<point x="586" y="438" type="curve"/>
			<point x="535" y="504"/>
			<point x="449" y="531"/>
			<point x="345" y="531" type="curve" smooth="yes"/>
			<point x="158" y="531"/>
			<point x="27" y="453"/>
			<point x="27" y="251" type="curve" smooth="yes"/>
			<point x="27" y="73"/>
			<point x="131" y="-14"/>
		</contour>
		<contour>
			<point x="335" y="102" type="curve" smooth="yes"/>
			<point x="276" y="102"/>
			<point x="262" y="154"/>
			<point x="262" y="285" type="curve" smooth="yes"/>
			<point x="262" y="393"/>
			<point x="290" y="415"/>
			<point x="330" y="415" type="curve" smooth="yes"/>
			<point x="374" y="415"/>
			<point x="400" y="390"/>
			<point x="400" y="251" type="curve" smooth="yes"/>
			<point x="400" y="146"/>
			<point x="390" y="102"/>
		</contour>
	</outline>
	<anchor name="bottom" x="330" y="-30"/>
	<anchor name="top" x="332" y="550"/>
</glyph>
<glyph name="uhorn" format="2">
	<unicode hex="01B0"/>
	<advance width="869"/>
	<outline>
		<contour>
			<point x="246" y="-14" type="curve" smooth="yes"/>
			<point x="363" y="-14"/>
			<point x="398" y="36"/>
			<point x="424" y="83" type="curve"/>
			<point x="429" y="83" type="line"/>
			<point x="442" y="-9" type="line"/>
			<point x="696" y="0" type="line"/>
			<point x="696" y="98" type="line"/>
			<point x="667" y="104" type="line" smooth="yes"/>
			<point x="644" y="109"/>
			<point x="636" y="123"/>
			<point x="636" y="169" type="curve" smooth="yes"/>
			<point x="636" y="351" type="line"/>
			<point x="795" y="361"/>
			<point x="869" y="451"/>
			<point x="869" y="569" type="curve" smooth="yes"/>
			<point x="869" y="649"/>
			<point x="816" y="685"/>
			<point x="758" y="685" type="curve" smooth="yes"/>
			<point x="714" y="685"/>
			<point x="663" y="659"/>
			<point x="663" y="596" type="curve" smooth="yes"/>
			<point x="663" y="551"/>
			<point x="687" y="521"/>
			<point x="737" y="521" type="curve" smooth="yes"/>
			<point x="751" y="521" type="line"/>
			<point x="748" y="470"/>
			<point x="715" y="438"/>
			<point x="636" y="428" type="curve"/>
			<point x="636" y="514" type="line"/>
			<point x="617" y="525" type="line"/>
			<point x="369" y="511" type="line"/>
			<point x="354" y="406" type="line"/>
			<point x="377" y="402" type="line" smooth="yes"/>
			<point x="405" y="397"/>
			<point x="411" y="390"/>
			<point x="411" y="341" type="curve" smooth="yes"/>
			<point x="411" y="232" type="line" smooth="yes"/>
			<point x="411" y="164"/>
			<point x="391" y="133"/>
			<point x="350" y="133" type="curve" smooth="yes"/>
			<point x="319" y="133"/>
			<point x="304" y="152"/>
			<point x="304" y="209" type="curve" smooth="yes"/>
			<point x="304" y="514" type="line"/>
			<point x="285" y="525" type="line"/>
			<point x="22" y="511" type="line"/>
			<point x="15" y="407" type="line"/>
			<point x="46" y="402" type="line" smooth="yes"/>
			<point x="74" y="397"/>
			<point x="79" y="386"/>
			<point x="79" y="340" type="curve" smooth="yes"/>
			<point x="79" y="156" type="line" smooth="yes"/>
			<point x="79" y="51"/>
			<point x="137" y="-14"/>
		</contour>
	</outline>
	<anchor name="bottom" x="352" y="-30"/>
	<anchor name="top" x="347" y="550"/>
</glyph>
<glyph name="Oogonek" format="2">
	<unicode hex="01EA"/>
	<advance width="794"/>
	<outline>
		<contour>
			<point x="425" y="-255" type="curve" smooth="yes"/>
			<point x="503" y="-255"/>
			<point x="554" y="-227"/>
			<point x="590" y="-195" type="curve"/>
			<point x="556" y="-130" type="line"/>
			<point x="526" y="-146"/>
			<point x="502" y="-150"/>
			<point x="486" y="-150" type="curve" smooth="yes"/>
			<point x="464" y="-150"/>
			<point x="452" y="-142"/>
			<point x="452" y="-115" type="curve" smooth="yes"/>
			<point x="452" y="-87"/>
			<point x="465" y="-56"/>
			<point x="538" y="10" type="curve"/>
			<point x="690" y="65"/>
			<point x="759" y="206"/>
			<point x="759" y="366" type="curve" smooth="yes"/>
			<point x="759" y="597"/>
			<point x="622" y="714"/>
			<point x="414" y="714" type="curve" smooth="yes"/>
			<point x="188" y="714"/>
			<point x="35" y="586"/>
			<point x="35" y="340" type="curve" smooth="yes"/>
			<point x="35" y="139"/>
			<point x="136" y="-14"/>
			<point x="389" y="-14" type="curve" smooth="yes"/>
			<point x="393" y="-14"/>
			<point x="396" y="-14"/>
			<point x="400" y="-14" type="curve"/>
			<point x="337" y="-51"/>
			<point x="288" y="-94"/>
			<point x="288" y="-154" type="curve" smooth="yes"/>
			<point x="288" y="-196"/>
			<point x="312" y="-255"/>
		</contour>
		<contour>
			<point x="401" y="120" type="curve" smooth="yes"/>
			<point x="314" y="120"/>
			<point x="280" y="193"/>
			<point x="280" y="357" type="curve" smooth="yes"/>
			<point x="280" y="534"/>
			<point x="318" y="581"/>
			<point x="394" y="581" type="curve" smooth="yes"/>
			<point x="475" y="581"/>
			<point x="514" y="513"/>
			<point x="514" y="350" type="curve" smooth="yes"/>
			<point x="514" y="162"/>
			<point x="474" y="120"/>
		</contour>
	</outline>
	<anchor name="bottom" x="398" y="-30"/>
	<anchor name="top" x="398" y="730"/>
</glyph>
<glyph name="schwa" format="2">
	<unicode hex="0259"/>
	<advance width="617"/>
	<outline>
		<contour>
			<point x="285" y="-14" type="curve" smooth="yes"/>
			<point x="461" y="-14"/>
			<point x="590" y="84"/>
			<point x="590" y="276" type="curve" smooth="yes"/>
			<point x="590" y="427"/>
			<point x="498" y="531"/>
			<point x="305" y="531" type="curve" smooth="yes"/>
			<point x="177" y="531"/>
			<point x="86" y="476"/>
			<point x="27" y="405" type="curve"/>
			<point x="90" y="327" type="line"/>
			<point x="140" y="357"/>
			<point x="182" y="375"/>
			<point x="252" y="375" type="curve" smooth="yes"/>
			<point x="312" y="375"/>
			<point x="354" y="350"/>
			<point x="359" y="295" type="curve"/>
			<point x="45" y="295" type="line"/>
			<point x="39" y="267"/>
			<point x="36" y="230"/>
			<point x="36" y="194" type="curve" smooth="yes"/>
			<point x="36" y="56"/>
			<point x="131" y="-14"/>
		</contour>
		<contour>
			<point x="292" y="90" type="curve" smooth="yes"/>
			<point x="262" y="90"/>
			<point x="246" y="111"/>
			<point x="246" y="143" type="curve" smooth="yes"/>
			<point x="246" y="158"/>
			<point x="247" y="174"/>
			<point x="250" y="192" type="curve"/>
			<point x="361" y="192" type="line"/>
			<point x="360" y="139"/>
			<point x="342" y="90"/>
		</contour>
	</outline>
	<anchor name="bottom" x="297" y="-30"/>
	<anchor name="top" x="305" y="550"/>
</glyph>
<glyph name="ringhalfright" format="2">
	<unicode hex="02BE"/>
	<advance width="500"/>
	<outline>
		<contour>
			<point x="193" y="578" type="line"/>
			<point x="222" y="578" type="line" smooth="yes"/>
			<point x="320" y="578"/>
			<point x="386" y="620"/>
			<point x="386" y="698" type="curve" smooth="yes"/>
			<point x="386" y="768"/>
			<point x="341" y="822"/>
			<point x="219" y="822" type="curve" smooth="yes"/>
			<point x="193" y="822" type="line"/>
			<point x="193" y="751" type="line"/>
			<point x="206" y="751" type="line" smooth="yes"/>
			<point x="231" y="751"/>
			<point x="249" y="742"/>
			<point x="249" y="697" type="curve" smooth="yes"/>
			<point x="249" y="660"/>
			<point x="231" y="647"/>
			<point x="205" y="647" type="curve" smooth="yes"/>
			<point x="193" y="647" type="line"/>
		</contour>
	</outline>
	<anchor name="_top" x="250" y="550"/>
</glyph>
<glyph name="ringhalfleft" format="2">
	<unicode hex="02BF"/>
	<advance width="500"/>
	<outline>
		<contour>
			<point x="301" y="578" type="curve" smooth="yes"/>
			<point x="327" y="578" type="line"/>
			<point x="327" y="649" type="line"/>
			<point x="314" y="649" type="line" smooth="yes"/>
			<point x="289" y="649"/>
			<point x="271" y="658"/>
			<point x="271" y="703" type="curve" smooth="yes"/>
			<point x="271" y="740"/>
			<point x="289" y="753"/>
			<point x="315" y="753" type="curve" smooth="yes"/>
			<point x="327" y="753" type="line"/>
			<point x="327" y="822" type="line"/>
			<point x="298" y="822" type="line" smooth="yes"/>
			<point x="200" y="822"/>
			<point x="134" y="780"/>
			<point x="134" y="702" type="curve" smooth="yes"/>
			<point x="134" y="632"/>
			<point x="179" y="578"/>
		</contour>
	</outline>
	<anchor name="_top" x="250" y="550"/>
</glyph>
<glyph name="verticallinemod" format="2">
	<unicode hex="02C8"/>
	<advance width="500"/>
	<outline>
		<contour>
			<point x="180" y="578" type="line"/>
			<point x="320" y="578" type="line"/>
			<point x="320" y="824" type="line"/>
			<point x="180" y="824" type="line"/>
		</contour>
	</outline>
	<anchor name="_top" x="249" y="550"/>
</glyph>
<glyph name="ring" format="2">
	<unicode hex="02DA"/>
	<advance width="500"/>
	<outline>
		<contour>
			<point x="240" y="578" type="curve" smooth="yes"/>
			<point x="348" y="578"/>
			<point x="423" y="622"/>
			<point x="423" y="700" type="curve" smooth="yes"/>
			<point x="423" y="783"/>
			<point x="369" y="822"/>
			<point x="255" y="822" type="curve" smooth="yes"/>
			<point x="153" y="822"/>
			<point x="78" y="784"/>
			<point x="78" y="700" type="curve" smooth="yes"/>
			<point x="78" y="625"/>
			<point x="142" y="578"/>
		</contour>
		<contour>
			<point x="250" y="641" type="curve" smooth="yes"/>
			<point x="227" y="641"/>
			<point x="215" y="651"/>
			<point x="215" y="701" type="curve" smooth="yes"/>
			<point x="215" y="745"/>
			<point x="226" y="759"/>
			<point x="249" y="759" type="curve" smooth="yes"/>
			<point x="269" y="759"/>
			<point x="285" y="750"/>
			<point x="285" y="701" type="curve" smooth="yes"/>
			<point x="285" y="656"/>
			<point x="271" y="641"/>
		</contour>
	</outline>
	<anchor name="_top" x="250" y="550"/>
</glyph>
<glyph name="ogonek" format="2">
	<unicode hex="02DB"/>
	<advance width="500"/>
	<outline>
		<contour>
			<point x="242" y="-255" type="curve" smooth="yes"/>
			<point x="320" y="-255"/>
			<point x="371" y="-227"/>
			<point x="407" y="-195" type="curve"/>
			<point x="373" y="-130" type="line"/>
			<point x="343" y="-146"/>
			<point x="319" y="-150"/>
			<point x="303" y="-150" type="curve" smooth="yes"/>
			<point x="281" y="-150"/>
			<point x="269" y="-142"/>
			<point x="269" y="-115" type="curve" smooth="yes"/>
			<point x="269" y="-86"/>
			<point x="283" y="-54"/>
			<point x="361" y="15" type="curve"/>
			<point x="258" y="9" type="line"/>
			<point x="177" y="-34"/>
			<point x="105" y="-82"/>
			<point x="105" y="-154" type="curve" smooth="yes"/>
			<point x="105" y="-196"/>
			<point x="129" y="-255"/>
		</contour>
	</outline>
	<anchor name="_bottom" x="250" y="-30"/>
</glyph>
<glyph name="hungarumlaut" format="2">
	<unicode hex="02DD"/>
	<advance width="500"/>
	<outline>
		<contour>
			<point x="362" y="570" type="line"/>
			<point x="526" y="678" type="line" smooth="yes"/>
			<point x="555" y="697"/>
			<point x="566" y="725"/>
			<point x="566" y="750" type="curve" smooth="yes"/>
			<point x="566" y="785"/>
			<point x="543" y="830"/>
			<point x="496" y="830" type="curve" smooth="yes"/>
			<point x="474" y="830"/>
			<point x="456" y="823"/>
			<point x="437" y="796" type="curve" smooth="yes"/>
			<point x="314" y="618" type="line"/>
		</contour>
		<contour>
			<point x="148" y="570" type="line"/>
			<point x="306" y="685" type="line" smooth="yes"/>
			<point x="335" y="706"/>
			<point x="346" y="731"/>
			<point x="346" y="753" type="curve" smooth="yes"/>
			<point x="346" y="782"/>
			<point x="323" y="830"/>
			<point x="276" y="830" type="curve" smooth="yes"/>
			<point x="252" y="830"/>
			<point x="233" y="822"/>
			<point x="216" y="796" type="curve" smooth="yes"/>
			<point x="100" y="618" type="line"/>
		</contour>
	</outline>
	<anchor name="_top" x="250" y="550"/>
</glyph>
<glyph name="acutecomb" format="2">
	<unicode hex="0301"/>
	<outline>
		<contour>
			<point x="-42" y="570" type="line"/>
			<point x="122" y="680" type="line" smooth="yes"/>
			<point x="151" y="700"/>
			<point x="162" y="724"/>
			<point x="162" y="746" type="curve" smooth="yes"/>
			<point x="162" y="773"/>
			<point x="143" y="830"/>
			<point x="86" y="830" type="curve" smooth="yes"/>
			<point x="62" y="830"/>
			<point x="45" y="825"/>
			<point x="26" y="796" type="curve" smooth="yes"/>
			<point x="-90" y="618" type="line"/>
		</contour>
	</outline>
	<anchor name="_top" x="0" y="550"/>
</glyph>
<glyph name="tildecomb" format="2">
	<unicode hex="0303"/>
	<outline>
		<contour>
			<point x="79" y="594" type="curve" smooth="yes"/>
			<point x="140" y="594"/>
			<point x="175" y="635"/>
			<point x="213" y="739" type="curve"/>
			<point x="142" y="778" type="line"/>
			<point x="131" y="749"/>
			<point x="117" y="737"/>
			<point x="97" y="737" type="curve" smooth="yes"/>
			<point x="67" y="737"/>
			<point x="44" y="748"/>
			<point x="19" y="759" type="curve" smooth="yes"/>
			<point x="-7" y="771"/>
			<point x="-34" y="784"/>
			<point x="-73" y="784" type="curve" smooth="yes"/>
			<point x="-137" y="784"/>
			<point x="-170" y="751"/>
			<point x="-212" y="639" type="curve"/>
			<point x="-141" y="600" type="line"/>
			<point x="-129" y="631"/>
			<point x="-114" y="641"/>
			<point x="-100" y="641" type="curve" smooth="yes"/>
			<point x="-72" y="641"/>
			<point x="-45" y="629"/>
			<point x="-16" y="616" type="curve" smooth="yes"/>
			<point x="11" y="604"/>
			<point x="42" y="594"/>
		</contour>
	</outline>
	<anchor name="_top" x="0" y="550"/>
</glyph>
<glyph name="macroncomb" format="2">
	<unicode hex="0304"/>
	<outline>
		<contour>
			<point x="-179" y="614" type="line"/>
			<point x="179" y="614" type="line"/>
			<point x="179" y="756" type="line"/>
			<point x="-179" y="756" type="line"/>
		</contour>
	</outline>
	<anchor name="_top" x="0" y="550"/>
</glyph>
<glyph name="dieresiscomb" format="2">
	<unicode hex="0308"/>
	<outline>
		<contour>
			<point x="128" y="595" type="curve" smooth="yes"/>
			<point x="191" y="595"/>
			<point x="236" y="632"/>
			<point x="236" y="692" type="curve" smooth="yes"/>
			<point x="236" y="751"/>
			<point x="204" y="787"/>
			<point x="128" y="787" type="curve" smooth="yes"/>
			<point x="65" y="787"/>
			<point x="22" y="750"/>
			<point x="22" y="693" type="curve" smooth="yes"/>
			<point x="22" y="631"/>
			<point x="65" y="595"/>
		</contour>
		<contour>
			<point x="-130" y="595" type="curve" smooth="yes"/>
			<point x="-68" y="595"/>
			<point x="-23" y="632"/>
			<point x="-23" y="692" type="curve" smooth="yes"/>
			<point x="-23" y="751"/>
			<point x="-55" y="787"/>
			<point x="-130" y="787" type="curve" smooth="yes"/>
			<point x="-194" y="787"/>
			<point x="-237" y="750"/>
			<point x="-237" y="693" type="curve" smooth="yes"/>
			<point x="-237" y="631"/>
			<point x="-194" y="595"/>
		</contour>
	</outline>
	<anchor name="_top" x="0" y="550"/>
</glyph>
<glyph name="hookabovecomb" format="2">
	<unicode hex="0309"/>
	<outline>
		<contour>
			<point x="-60" y="575" type="line"/>
			<point x="83" y="575" type="line"/>
			<point x="83" y="602" type="line" smooth="yes"/>
			<point x="83" y="647"/>
			<point x="162" y="661"/>
			<point x="162" y="741" type="curve" smooth="yes"/>
			<point x="162" y="826"/>
			<point x="88" y="854"/>
			<point x="-10" y="854" type="curve" smooth="yes"/>
			<point x="-119" y="854"/>
			<point x="-200" y="799"/>
			<point x="-200" y="740" type="curve" smooth="yes"/>
			<point x="-200" y="712"/>
			<point x="-190" y="677"/>
			<point x="-129" y="677" type="curve" smooth="yes"/>
			<point x="-77" y="677"/>
			<point x="-62" y="701"/>
			<point x="-62" y="719" type="curve" smooth="yes"/>
			<point x="-62" y="729"/>
			<point x="-63" y="736"/>
			<point x="-79" y="770" type="curve"/>
			<point x="-62" y="775"/>
			<point x="-49" y="777"/>
			<point x="-36" y="777" type="curve" smooth="yes"/>
			<point x="-10" y="777"/>
			<point x="6" y="764"/>
			<point x="6" y="748" type="curve" smooth="yes"/>
			<point x="6" y="690"/>
			<point x="-60" y="687"/>
			<point x="-60" y="622" type="curve" smooth="yes"/>
		</contour>
	</outline>
	<anchor name="_top" x="0" y="550"/>
</glyph>
<glyph name="hungarumlautcomb" format="2">
	<unicode hex="030B"/>
	<outline>
		<contour>
			<point x="112" y="570" type="line"/>
			<point x="276" y="678" type="line" smooth="yes"/>
			<point x="305" y="697"/>
			<point x="316" y="725"/>
			<point x="316" y="750" type="curve" smooth="yes"/>
			<point x="316" y="785"/>
			<point x="293" y="830"/>
			<point x="246" y="830" type="curve" smooth="yes"/>
			<point x="224" y="830"/>
			<point x="206" y="823"/>
			<point x="187" y="796" type="curve" smooth="yes"/>
			<point x="64" y="618" type="line"/>
		</contour>
		<contour>
			<point x="-102" y="570" type="line"/>
			<point x="56" y="685" type="line" smooth="yes"/>
			<point x="85" y="706"/>
			<point x="96" y="731"/>
			<point x="96" y="753" type="curve" smooth="yes"/>
			<point x="96" y="782"/>
			<point x="73" y="830"/>
			<point x="26" y="830" type="curve" smooth="yes"/>
			<point x="2" y="830"/>
			<point x="-17" y="822"/>
			<point x="-34" y="796" type="curve" smooth="yes"/>
			<point x="-150" y="618" type="line"/>
		</contour>
	</outline>
	<anchor name="_top" x="0" y="550"/>
</glyph>
<glyph name="caroncomb" format="2">
	<unicode hex="030C"/>
	<outline>
		<contour>
			<point x="2" y="578" type="curve" smooth="yes"/>
			<point x="34" y="578"/>
			<point x="56" y="585"/>
			<point x="90" y="631" type="curve" smooth="yes"/>
			<point x="206" y="786" type="line"/>
			<point x="158" y="834" type="line"/>
			<point x="2" y="717" type="line"/>
			<point x="-156" y="834" type="line"/>
			<point x="-203" y="787" type="line"/>
			<point x="-98" y="643" type="line" smooth="yes"/>
			<point x="-65" y="598"/>
			<point x="-48" y="578"/>
		</contour>
	</outline>
	<anchor name="_top" x="2" y="550"/>
</glyph>
<glyph name="dblgravecomb" format="2">
	<unicode hex="030F"/>
	<outline>
		<contour>
			<point x="-105" y="570" type="line"/>
			<point x="-57" y="618" type="line"/>
			<point x="-180" y="796" type="line" smooth="yes"/>
			<point x="-199" y="823"/>
			<point x="-217" y="830"/>
			<point x="-239" y="830" type="curve" smooth="yes"/>
			<point x="-286" y="830"/>
			<point x="-309" y="785"/>
			<point x="-309" y="750" type="curve" smooth="yes"/>
			<point x="-309" y="725"/>
			<point x="-298" y="697"/>
			<point x="-269" y="678" type="curve" smooth="yes"/>
		</contour>
		<contour>
			<point x="109" y="570" type="line"/>
			<point x="157" y="618" type="line"/>
			<point x="41" y="796" type="line" smooth="yes"/>
			<point x="24" y="822"/>
			<point x="5" y="830"/>
			<point x="-19" y="830" type="curve" smooth="yes"/>
			<point x="-66" y="830"/>
			<point x="-89" y="782"/>
			<point x="-89" y="753" type="curve" smooth="yes"/>
			<point x="-89" y="731"/>
			<point x="-78" y="706"/>
			<point x="-49" y="685" type="curve" smooth="yes"/>
		</contour>
	</outline>
	<anchor name="_top" x="0" y="550"/>
</glyph>
<glyph name="dotbelowcomb" format="2">
	<unicode hex="0323"/>
	<outline>
		<contour>
			<point x="0" y="-255" type="curve" smooth="yes"/>
			<point x="79" y="-255"/>
			<point x="127" y="-218"/>
			<point x="127" y="-153" type="curve" smooth="yes"/>
			<point x="127" y="-87"/>
			<point x="86" y="-51"/>
			<point x="0" y="-51" type="curve" smooth="yes"/>
			<point x="-85" y="-51"/>
			<point x="-128" y="-88"/>
			<point x="-128" y="-152" type="curve" smooth="yes"/>
			<point x="-128" y="-219"/>
			<point x="-82" y="-255"/>
		</contour>
	</outline>
	<anchor name="_bottom" x="0" y="-30"/>
</glyph>
<glyph name="dieresisbelowcomb" format="2">
	<unicode hex="0324"/>
	<outline>
		<contour>
			<point x="128" y="-257" type="curve" smooth="yes"/>
			<point x="191" y="-257"/>
			<point x="236" y="-220"/>
			<point x="236" y="-160" type="curve" smooth="yes"/>
			<point x="236" y="-101"/>
			<point x="204" y="-65"/>
			<point x="128" y="-65" type="curve" smooth="yes"/>
			<point x="65" y="-65"/>
			<point x="22" y="-102"/>
			<point x="22" y="-159" type="curve" smooth="yes"/>
			<point x="22" y="-221"/>
			<point x="65" y="-257"/>
		</contour>
		<contour>
			<point x="-130" y="-257" type="curve" smooth="yes"/>
			<point x="-68" y="-257"/>
			<point x="-23" y="-220"/>
			<point x="-23" y="-160" type="curve" smooth="yes"/>
			<point x="-23" y="-101"/>
			<point x="-55" y="-65"/>
			<point x="-130" y="-65" type="curve" smooth="yes"/>
			<point x="-194" y="-65"/>
			<point x="-237" y="-102"/>
			<point x="-237" y="-159" type="curve" smooth="yes"/>
			<point x="-237" y="-221"/>
			<point x="-194" y="-257"/>
		</contour>
	</outline>
	<anchor name="_bottom" x="0" y="-30"/>
</glyph>
<glyph name="ogonekcomb" format="2">
	<unicode hex="0328"/>
	<outline>
		<contour>
			<point x="-8" y="-255" type="curve" smooth="yes"/>
			<point x="70" y="-255"/>
			<point x="121" y="-227"/>
			<point x="157" y="-195" type="curve"/>
			<point x="123" y="-130" type="line"/>
			<point x="93" y="-146"/>
			<point x="69" y="-150"/>
			<point x="53" y="-150" type="curve" smooth="yes"/>
			<point x="31" y="-150"/>
			<point x="19" y="-142"/>
			<point x="19" y="-115" type="curve" smooth="yes"/>
			<point x="19" y="-86"/>
			<point x="33" y="-54"/>
			<point x="111" y="15" type="curve"/>
			<point x="8" y="9" type="line"/>
			<point x="-73" y="-34"/>
			<point x="-145" y="-82"/>
			<point x="-145" y="-154" type="curve" smooth="yes"/>
			<point x="-145" y="-196"/>
			<point x="-121" y="-255"/>
		</contour>
	</outline>
	<anchor name="_bottom" x="0" y="-30"/>
</glyph>
<glyph name="macronbelowcomb" format="2">
	<unicode hex="0331"/>
	<outline>
		<contour>
			<point x="-179" y="-209" type="line"/>
			<point x="179" y="-209" type="line"/>
			<point x="179" y="-67" type="line"/>
			<point x="-179" y="-67" type="line"/>
		</contour>
	</outline>
	<anchor name="_bottom" x="0" y="-30"/>
</glyph>
<glyph name="Gamma" format="2">
	<unicode hex="0393"/>
	<advance width="654"/>
	<outline>
		<contour>
			<point x="36" y="0" type="line"/>
			<point x="441" y="0" type="line"/>
			<point x="441" y="100" type="line"/>
			<point x="370" y="107" type="line" smooth="yes"/>
			<point x="335" y="111"/>
			<point x="330" y="117"/>
			<point x="330" y="160" type="curve"/>
			<point x="330" y="586" type="line"/>
			<point x="402" y="586" type="line" smooth="yes"/>
			<point x="477" y="586"/>
			<point x="495" y="567"/>
			<point x="516" y="467" type="curve"/>
			<point x="639" y="481" type="line"/>
			<point x="611" y="700" type="line"/>
			<point x="36" y="700" type="line"/>
			<point x="36" y="602" type="line"/>
			<point x="62" y="598" type="line" smooth="yes"/>
			<point x="87" y="594"/>
			<point x="95" y="583"/>
			<point x="95" y="550" type="curve" smooth="yes"/>
			<point x="95" y="156" type="line" smooth="yes"/>
			<point x="95" y="118"/>
			<point x="90" y="109"/>
			<point x="64" y="104" type="curve" smooth="yes"/>
			<point x="36" y="98" type="line"/>
		</contour>
	</outline>
</glyph>
<glyph name="Delta" format="2">
	<unicode hex="0394"/>
	<advance width="712"/>
	<outline>
		<contour>
			<point x="28" y="0" type="line"/>
			<point x="685" y="0" type="line"/>
			<point x="702" y="78" type="line"/>
			<point x="466" y="700" type="line"/>
			<point x="247" y="700" type="line"/>
			<point x="10" y="78" type="line"/>
		</contour>
		<contour>
			<point x="173" y="139" type="line"/>
			<point x="312" y="532" type="line"/>
			<point x="315" y="532" type="line"/>
			<point x="437" y="139" type="line"/>
		</contour>
	</outline>
	<guideline x="284" y="88" angle="0"/>
</glyph>
<glyph name="Theta" format="2">
	<unicode hex="0398"/>
	<advance width="835"/>
	<outline>
		<contour>
			<point x="410" y="-14" type="curve" smooth="yes"/>
			<point x="644" y="-14"/>
			<point x="800" y="138"/>
			<point x="800" y="366" type="curve" smooth="yes"/>
			<point x="800" y="585"/>
			<point x="665" y="714"/>
			<point x="435" y="714" type="curve" smooth="yes"/>
			<point x="186" y="714"/>
			<point x="36" y="574"/>
			<point x="36" y="340" type="curve" smooth="yes"/>
			<point x="36" y="115"/>
			<point x="172" y="-14"/>
		</contour>
		<contour>
			<point x="422" y="120" type="curve" smooth="yes"/>
			<point x="321" y="120"/>
			<point x="271" y="199"/>
			<point x="271" y="357" type="curve" smooth="yes"/>
			<point x="271" y="512"/>
			<point x="315" y="581"/>
			<point x="415" y="581" type="curve" smooth="yes"/>
			<point x="513" y="581"/>
			<point x="565" y="501"/>
			<point x="565" y="350" type="curve" smooth="yes"/>
			<point x="565" y="189"/>
			<point x="522" y="120"/>
		</contour>
		<contour>
			<point x="307" y="254" type="line"/>
			<point x="368" y="260" type="line"/>
			<point x="381" y="310"/>
			<point x="387" y="319"/>
			<point x="407" y="319" type="curve"/>
			<point x="427" y="319" type="line" smooth="yes"/>
			<point x="453" y="319"/>
			<point x="458" y="311"/>
			<point x="466" y="256" type="curve"/>
			<point x="529" y="269" type="line"/>
			<point x="529" y="449" type="line"/>
			<point x="468" y="443" type="line"/>
			<point x="455" y="393"/>
			<point x="449" y="384"/>
			<point x="429" y="384" type="curve" smooth="yes"/>
			<point x="409" y="384" type="line" smooth="yes"/>
			<point x="383" y="384"/>
			<point x="378" y="392"/>
			<point x="370" y="447" type="curve"/>
			<point x="307" y="434" type="line"/>
		</contour>
	</outline>
</glyph>
<glyph name="Xi" format="2">
	<unicode hex="039E"/>
	<advance width="702"/>
	<outline>
		<contour>
			<point x="47" y="0" type="line"/>
			<point x="655" y="0" type="line"/>
			<point x="682" y="233" type="line"/>
			<point x="553" y="233" type="line"/>
			<point x="532" y="151"/>
			<point x="518" y="139"/>
			<point x="441" y="139" type="curve" smooth="yes"/>
			<point x="261" y="139" type="line" smooth="yes"/>
			<point x="187" y="139"/>
			<point x="171" y="153"/>
			<point x="149" y="233" type="curve"/>
			<point x="20" y="233" type="line"/>
		</contour>
		<contour>
			<point x="173" y="234" type="line"/>
			<point x="264" y="240" type="line"/>
			<point x="273" y="273"/>
			<point x="290" y="286"/>
			<point x="323" y="286" type="curve" smooth="yes"/>
			<point x="377" y="286" type="line" smooth="yes"/>
			<point x="415" y="286"/>
			<point x="430" y="274"/>
			<point x="436" y="236" type="curve"/>
			<point x="529" y="249" type="line"/>
			<point x="529" y="459" type="line"/>
			<point x="438" y="453" type="line"/>
			<point x="429" y="420"/>
			<point x="412" y="407"/>
			<point x="379" y="407" type="curve" smooth="yes"/>
			<point x="325" y="407" type="line" smooth="yes"/>
			<point x="287" y="407"/>
			<point x="272" y="419"/>
			<point x="266" y="457" type="curve"/>
			<point x="173" y="444" type="line"/>
		</contour>
		<contour>
			<point x="167" y="489" type="line"/>
			<point x="186" y="548"/>
			<point x="204" y="561"/>
			<point x="270" y="561" type="curve" smooth="yes"/>
			<point x="431" y="561" type="line" smooth="yes"/>
			<point x="497" y="561"/>
			<point x="515" y="548"/>
			<point x="534" y="489" type="curve"/>
			<point x="664" y="503" type="line"/>
			<point x="632" y="700" type="line"/>
			<point x="69" y="700" type="line"/>
			<point x="37" y="503" type="line"/>
		</contour>
	</outline>
</glyph>
<glyph name="Pi" format="2">
	<unicode hex="03A0"/>
	<advance width="833"/>
	<outline>
		<contour>
			<point x="36" y="0" type="line"/>
			<point x="388" y="0" type="line"/>
			<point x="388" y="98" type="line"/>
			<point x="362" y="104" type="line" smooth="yes"/>
			<point x="334" y="111"/>
			<point x="330" y="117"/>
			<point x="330" y="151" type="curve" smooth="yes"/>
			<point x="330" y="567" type="line"/>
			<point x="504" y="567" type="line"/>
			<point x="504" y="155" type="line" smooth="yes"/>
			<point x="504" y="118"/>
			<point x="499" y="109"/>
			<point x="473" y="104" type="curve" smooth="yes"/>
			<point x="446" y="98" type="line"/>
			<point x="446" y="0" type="line"/>
			<point x="797" y="0" type="line"/>
			<point x="797" y="98" type="line"/>
			<point x="772" y="104" type="line" smooth="yes"/>
			<point x="743" y="111"/>
			<point x="739" y="117"/>
			<point x="739" y="151" type="curve" smooth="yes"/>
			<point x="739" y="547" type="line" smooth="yes"/>
			<point x="739" y="584"/>
			<point x="745" y="594"/>
			<point x="770" y="598" type="curve" smooth="yes"/>
			<point x="797" y="602" type="line"/>
			<point x="797" y="700" type="line"/>
			<point x="36" y="700" type="line"/>
			<point x="36" y="602" type="line"/>
			<point x="62" y="598" type="line" smooth="yes"/>
			<point x="89" y="594"/>
			<point x="95" y="584"/>
			<point x="95" y="548" type="curve" smooth="yes"/>
			<point x="95" y="155" type="line" smooth="yes"/>
			<point x="95" y="118"/>
			<point x="90" y="109"/>
			<point x="64" y="104" type="curve" smooth="yes"/>
			<point x="36" y="98" type="line"/>
		</contour>
	</outline>
</glyph>
<glyph name="Phi" format="2">
	<unicode hex="03A6"/>
	<advance width="971"/>
	<outline>
		<contour>
			<point x="329" y="-30" type="line"/>
			<point x="642" y="-30" type="line"/>
			<point x="642" y="48" type="line"/>
			<point x="615" y="55" type="line" smooth="yes"/>
			<point x="597" y="61"/>
			<point x="593" y="69"/>
			<point x="593" y="101" type="curve" smooth="yes"/>
			<point x="593" y="110" type="line"/>
			<point x="809" y="113"/>
			<point x="936" y="205"/>
			<point x="936" y="360" type="curve" smooth="yes"/>
			<point x="936" y="507"/>
			<point x="804" y="599"/>
			<point x="593" y="599" type="curve"/>
			<point x="593" y="602" type="line" smooth="yes"/>
			<point x="593" y="629"/>
			<point x="598" y="640"/>
			<point x="613" y="645" type="curve" smooth="yes"/>
			<point x="642" y="652" type="line"/>
			<point x="642" y="730" type="line"/>
			<point x="329" y="730" type="line"/>
			<point x="329" y="652" type="line"/>
			<point x="354" y="647" type="line" smooth="yes"/>
			<point x="373" y="643"/>
			<point x="378" y="633"/>
			<point x="378" y="599" type="curve" smooth="yes"/>
			<point x="378" y="596" type="line"/>
			<point x="162" y="593"/>
			<point x="35" y="501"/>
			<point x="35" y="346" type="curve" smooth="yes"/>
			<point x="35" y="198"/>
			<point x="166" y="107"/>
			<point x="378" y="107" type="curve"/>
			<point x="378" y="104" type="line" smooth="yes"/>
			<point x="378" y="69"/>
			<point x="374" y="59"/>
			<point x="358" y="55" type="curve" smooth="yes"/>
			<point x="329" y="48" type="line"/>
		</contour>
		<contour>
			<point x="378" y="224" type="line"/>
			<point x="303" y="224"/>
			<point x="258" y="274"/>
			<point x="258" y="358" type="curve" smooth="yes"/>
			<point x="258" y="442"/>
			<point x="300" y="487"/>
			<point x="378" y="487" type="curve"/>
		</contour>
		<contour>
			<point x="593" y="219" type="curve"/>
			<point x="593" y="482" type="line"/>
			<point x="668" y="482"/>
			<point x="713" y="432"/>
			<point x="713" y="348" type="curve" smooth="yes"/>
			<point x="713" y="264"/>
			<point x="671" y="219"/>
		</contour>
	</outline>
</glyph>
<glyph name="gamma" format="2">
	<unicode hex="03B3"/>
	<advance width="683"/>
	<outline>
		<contour>
			<point x="231" y="-186" type="curve"/>
			<point x="285" y="-186"/>
			<point x="380" y="-176"/>
			<point x="397" y="-168" type="curve"/>
			<point x="397" y="-125"/>
			<point x="389" y="-18"/>
			<point x="384" y="16" type="curve"/>
			<point x="550" y="117"/>
			<point x="646" y="269"/>
			<point x="646" y="430" type="curve" smooth="yes"/>
			<point x="646" y="470"/>
			<point x="642" y="501"/>
			<point x="635" y="514" type="curve"/>
			<point x="615" y="525" type="line"/>
			<point x="400" y="513" type="line"/>
			<point x="413" y="474"/>
			<point x="418" y="431"/>
			<point x="418" y="361" type="curve" smooth="yes"/>
			<point x="418" y="275"/>
			<point x="404" y="214"/>
			<point x="375" y="177" type="curve"/>
			<point x="372" y="177" type="line"/>
			<point x="354" y="446"/>
			<point x="307" y="527"/>
			<point x="170" y="527" type="curve" smooth="yes"/>
			<point x="113" y="527"/>
			<point x="43" y="506"/>
			<point x="5" y="478" type="curve"/>
			<point x="22" y="400" type="line"/>
			<point x="34" y="404"/>
			<point x="46" y="406"/>
			<point x="57" y="406" type="curve" smooth="yes"/>
			<point x="130" y="406"/>
			<point x="181" y="283"/>
			<point x="213" y="30" type="curve"/>
			<point x="200" y="-51"/>
			<point x="191" y="-102"/>
		</contour>
	</outline>
</glyph>
<glyph name="eta" format="2">
	<unicode hex="03B7"/>
	<advance width="698"/>
	<outline>
		<contour>
			<point x="614" y="-227" type="line"/>
			<point x="633" y="-216" type="line"/>
			<point x="638" y="-171"/>
			<point x="642" y="-42"/>
			<point x="642" y="59" type="curve" smooth="yes"/>
			<point x="642" y="339" type="line" smooth="yes"/>
			<point x="642" y="468"/>
			<point x="586" y="531"/>
			<point x="471" y="531" type="curve" smooth="yes"/>
			<point x="390" y="531"/>
			<point x="330" y="494"/>
			<point x="292" y="421" type="curve"/>
			<point x="289" y="421" type="line"/>
			<point x="270" y="493"/>
			<point x="228" y="526"/>
			<point x="154" y="526" type="curve" smooth="yes"/>
			<point x="97" y="526"/>
			<point x="55" y="512"/>
			<point x="5" y="477" type="curve"/>
			<point x="21" y="399" type="line"/>
			<point x="31" y="403"/>
			<point x="44" y="405"/>
			<point x="54" y="405" type="curve" smooth="yes"/>
			<point x="81" y="405"/>
			<point x="95" y="390"/>
			<point x="95" y="360" type="curve" smooth="yes"/>
			<point x="95" y="0" type="line"/>
			<point x="310" y="0" type="line"/>
			<point x="310" y="301" type="line" smooth="yes"/>
			<point x="310" y="352"/>
			<point x="332" y="384"/>
			<point x="367" y="384" type="curve" smooth="yes"/>
			<point x="401" y="384"/>
			<point x="417" y="360"/>
			<point x="417" y="310" type="curve" smooth="yes"/>
			<point x="417" y="40" type="line" smooth="yes"/>
			<point x="417" y="-57"/>
			<point x="409" y="-135"/>
			<point x="391" y="-214" type="curve"/>
		</contour>
	</outline>
	<anchor name="bottom" x="186" y="-30"/>
	<anchor name="top" x="323" y="550"/>
</glyph>
<glyph name="iota" format="2">
	<unicode hex="03B9"/>
	<advance width="423"/>
	<outline>
		<contour>
			<point x="244" y="-14" type="curve" smooth="yes"/>
			<point x="309" y="-14"/>
			<point x="377" y="14"/>
			<point x="423" y="60" type="curve"/>
			<point x="378" y="148" type="line"/>
			<point x="366" y="136"/>
			<point x="342" y="128"/>
			<point x="322" y="128" type="curve" smooth="yes"/>
			<point x="282" y="128"/>
			<point x="263" y="151"/>
			<point x="263" y="199" type="curve" smooth="yes"/>
			<point x="263" y="276"/>
			<point x="267" y="358"/>
			<point x="280" y="514" type="curve"/>
			<point x="261" y="525" type="line"/>
			<point x="61" y="513" type="line"/>
			<point x="61" y="459"/>
			<point x="56" y="221"/>
			<point x="56" y="155" type="curve" smooth="yes"/>
			<point x="56" y="48"/>
			<point x="125" y="-14"/>
		</contour>
	</outline>
	<anchor name="top" x="181" y="550"/>
</glyph>
<glyph name="kappa" format="2">
	<unicode hex="03BA"/>
	<advance width="728"/>
	<outline>
		<contour>
			<point x="548" y="-13" type="curve" smooth="yes"/>
			<point x="596" y="-13"/>
			<point x="653" y="7"/>
			<point x="691" y="36" type="curve"/>
			<point x="675" y="113" type="line"/>
			<point x="662" y="109"/>
			<point x="657" y="107"/>
			<point x="648" y="107" type="curve" smooth="yes"/>
			<point x="617" y="107"/>
			<point x="606" y="118"/>
			<point x="559" y="195" type="curve" smooth="yes"/>
			<point x="521" y="259"/>
			<point x="492" y="310"/>
			<point x="461" y="371" type="curve"/>
			<point x="485" y="400" type="line" smooth="yes"/>
			<point x="501" y="419"/>
			<point x="509" y="424"/>
			<point x="523" y="424" type="curve"/>
			<point x="513" y="379"/>
			<point x="547" y="342"/>
			<point x="599" y="342" type="curve" smooth="yes"/>
			<point x="656" y="342"/>
			<point x="693" y="379"/>
			<point x="693" y="437" type="curve" smooth="yes"/>
			<point x="693" y="497"/>
			<point x="656" y="531"/>
			<point x="591" y="531" type="curve" smooth="yes"/>
			<point x="527" y="531"/>
			<point x="484" y="503"/>
			<point x="418" y="418" type="curve" smooth="yes"/>
			<point x="289" y="251" type="line"/>
			<point x="289" y="326"/>
			<point x="294" y="398"/>
			<point x="307" y="514" type="curve"/>
			<point x="288" y="525" type="line"/>
			<point x="61" y="513" type="line"/>
			<point x="70" y="0" type="line"/>
			<point x="292" y="0" type="line"/>
			<point x="292" y="160" type="line"/>
			<point x="329" y="209" type="line"/>
			<point x="340" y="179"/>
			<point x="353" y="149"/>
			<point x="369" y="116" type="curve" smooth="yes"/>
			<point x="418" y="15"/>
			<point x="457" y="-13"/>
		</contour>
	</outline>
</glyph>
<glyph name="lambda" format="2">
	<unicode hex="03BB"/>
	<advance width="712"/>
	<outline>
		<contour>
			<point x="691" y="114" type="line"/>
			<point x="677" y="109"/>
			<point x="670" y="108"/>
			<point x="658" y="108" type="curve" smooth="yes"/>
			<point x="638" y="108"/>
			<point x="628" y="116"/>
			<point x="620" y="138" type="curve" smooth="yes"/>
			<point x="476" y="548" type="line" smooth="yes"/>
			<point x="413" y="726"/>
			<point x="344" y="782"/>
			<point x="188" y="782" type="curve" smooth="yes"/>
			<point x="84" y="782"/>
			<point x="10" y="730"/>
			<point x="10" y="657" type="curve" smooth="yes"/>
			<point x="10" y="605"/>
			<point x="42" y="574"/>
			<point x="96" y="574" type="curve" smooth="yes"/>
			<point x="148" y="574"/>
			<point x="182" y="600"/>
			<point x="182" y="639" type="curve" smooth="yes"/>
			<point x="182" y="662"/>
			<point x="171" y="682"/>
			<point x="145" y="706" type="curve"/>
			<point x="149" y="712"/>
			<point x="165" y="716"/>
			<point x="183" y="716" type="curve" smooth="yes"/>
			<point x="235" y="716"/>
			<point x="255" y="697"/>
			<point x="274" y="633" type="curve" smooth="yes"/>
			<point x="305" y="531" type="line"/>
			<point x="11" y="11" type="line"/>
			<point x="30" y="0" type="line"/>
			<point x="277" y="0" type="line"/>
			<point x="390" y="246" type="line"/>
			<point x="392" y="246" type="line"/>
			<point x="431" y="119" type="line" smooth="yes"/>
			<point x="462" y="17"/>
			<point x="495" y="-13"/>
			<point x="575" y="-13" type="curve" smooth="yes"/>
			<point x="627" y="-13"/>
			<point x="665" y="1"/>
			<point x="707" y="36" type="curve"/>
		</contour>
	</outline>
</glyph>
<glyph name="omicron" format="2">
	<unicode hex="03BF"/>
	<advance width="636"/>
	<outline>
		<contour>
			<point x="309" y="-14" type="curve" smooth="yes"/>
			<point x="504" y="-14"/>
			<point x="609" y="85"/>
			<point x="609" y="268" type="curve" smooth="yes"/>
			<point x="609" y="439"/>
			<point x="512" y="531"/>
			<point x="332" y="531" type="curve" smooth="yes"/>
			<point x="134" y="531"/>
			<point x="27" y="432"/>
			<point x="27" y="251" type="curve" smooth="yes"/>
			<point x="27" y="78"/>
			<point x="125" y="-14"/>
		</contour>
		<contour>
			<point x="322" y="102" type="curve" smooth="yes"/>
			<point x="275" y="102"/>
			<point x="259" y="148"/>
			<point x="259" y="285" type="curve" smooth="yes"/>
			<point x="259" y="373"/>
			<point x="278" y="415"/>
			<point x="317" y="415" type="curve" smooth="yes"/>
			<point x="359" y="415"/>
			<point x="377" y="366"/>
			<point x="377" y="251" type="curve" smooth="yes"/>
			<point x="377" y="139"/>
			<point x="363" y="102"/>
		</contour>
	</outline>
	<anchor name="top" x="323" y="550"/>
</glyph>
<glyph name="pi" format="2">
	<unicode hex="03C0"/>
	<advance width="777"/>
	<outline>
		<contour>
			<point x="567" y="-14" type="curve" smooth="yes"/>
			<point x="632" y="-14"/>
			<point x="693" y="9"/>
			<point x="742" y="52" type="curve"/>
			<point x="699" y="142" type="line"/>
			<point x="679" y="131"/>
			<point x="664" y="127"/>
			<point x="646" y="127" type="curve" smooth="yes"/>
			<point x="610" y="127"/>
			<point x="593" y="145"/>
			<point x="593" y="183" type="curve" smooth="yes"/>
			<point x="593" y="259"/>
			<point x="595" y="313"/>
			<point x="595" y="366" type="curve"/>
			<point x="704" y="366" type="line"/>
			<point x="725" y="377" type="line"/>
			<point x="725" y="531" type="line"/>
			<point x="137" y="523" type="line" smooth="yes"/>
			<point x="104" y="523"/>
			<point x="45" y="510"/>
			<point x="14" y="495" type="curve"/>
			<point x="-7" y="366" type="line"/>
			<point x="138" y="366" type="line"/>
			<point x="33" y="11" type="line"/>
			<point x="54" y="0" type="line"/>
			<point x="269" y="0" type="line"/>
			<point x="308" y="366" type="line"/>
			<point x="417" y="366" type="line"/>
			<point x="412" y="301"/>
			<point x="399" y="194"/>
			<point x="399" y="142" type="curve" smooth="yes"/>
			<point x="399" y="35"/>
			<point x="452" y="-14"/>
		</contour>
	</outline>
</glyph>
<glyph name="rho" format="2">
	<unicode hex="03C1"/>
	<advance width="657"/>
	<outline>
		<contour>
			<point x="75" y="-227" type="line"/>
			<point x="287" y="-214" type="line"/>
			<point x="270" y="-144"/>
			<point x="263" y="-80"/>
			<point x="261" y="21" type="curve"/>
			<point x="262" y="21" type="line"/>
			<point x="300" y="-3"/>
			<point x="317" y="-14"/>
			<point x="360" y="-14" type="curve" smooth="yes"/>
			<point x="518" y="-14"/>
			<point x="630" y="102"/>
			<point x="630" y="267" type="curve" smooth="yes"/>
			<point x="630" y="431"/>
			<point x="520" y="531"/>
			<point x="339" y="531" type="curve" smooth="yes"/>
			<point x="146" y="531"/>
			<point x="46" y="432"/>
			<point x="46" y="238" type="curve" smooth="yes"/>
			<point x="46" y="28" type="line"/>
			<point x="46" y="-65"/>
			<point x="50" y="-177"/>
			<point x="55" y="-216" type="curve"/>
		</contour>
		<contour>
			<point x="321" y="103" type="curve" smooth="yes"/>
			<point x="303" y="103"/>
			<point x="280" y="110"/>
			<point x="261" y="122" type="curve"/>
			<point x="261" y="321" type="line" smooth="yes"/>
			<point x="261" y="380"/>
			<point x="286" y="415"/>
			<point x="327" y="415" type="curve" smooth="yes"/>
			<point x="374" y="415"/>
			<point x="395" y="370"/>
			<point x="395" y="267" type="curve" smooth="yes"/>
			<point x="395" y="146"/>
			<point x="376" y="103"/>
		</contour>
	</outline>
	<anchor name="top" x="313" y="550"/>
</glyph>
<glyph name="sigmafinal" format="2">
	<unicode hex="03C2"/>
	<advance width="574"/>
	<outline>
		<contour>
			<point x="420" y="-230" type="line"/>
			<point x="506" y="-140"/>
			<point x="541" y="-72"/>
			<point x="541" y="3" type="curve" smooth="yes"/>
			<point x="541" y="91"/>
			<point x="493" y="139"/>
			<point x="370" y="175" type="curve" smooth="yes"/>
			<point x="271" y="204"/>
			<point x="240" y="238"/>
			<point x="240" y="315" type="curve" smooth="yes"/>
			<point x="240" y="378"/>
			<point x="282" y="424"/>
			<point x="339" y="424" type="curve" smooth="yes"/>
			<point x="358" y="424"/>
			<point x="370" y="421"/>
			<point x="392" y="412" type="curve"/>
			<point x="375" y="377"/>
			<point x="370" y="363"/>
			<point x="370" y="351" type="curve" smooth="yes"/>
			<point x="370" y="311"/>
			<point x="403" y="287"/>
			<point x="459" y="287" type="curve" smooth="yes"/>
			<point x="522" y="287"/>
			<point x="559" y="324"/>
			<point x="559" y="386" type="curve" smooth="yes"/>
			<point x="559" y="470"/>
			<point x="462" y="531"/>
			<point x="330" y="531" type="curve" smooth="yes"/>
			<point x="144" y="531"/>
			<point x="27" y="424"/>
			<point x="27" y="253" type="curve" smooth="yes"/>
			<point x="27" y="100"/>
			<point x="90" y="30"/>
			<point x="277" y="-24" type="curve" smooth="yes"/>
			<point x="354" y="-47"/>
			<point x="369" y="-59"/>
			<point x="369" y="-94" type="curve" smooth="yes"/>
			<point x="369" y="-120"/>
			<point x="359" y="-146"/>
			<point x="333" y="-184" type="curve"/>
		</contour>
	</outline>
</glyph>
<glyph name="sigma" format="2">
	<unicode hex="03C3"/>
	<advance width="726"/>
	<outline>
		<contour>
			<point x="322" y="-14" type="curve" smooth="yes"/>
			<point x="500" y="-14"/>
			<point x="614" y="82"/>
			<point x="614" y="231" type="curve" smooth="yes"/>
			<point x="614" y="305"/>
			<point x="578" y="360"/>
			<point x="515" y="384" type="curve"/>
			<point x="515" y="386" type="line"/>
			<point x="667" y="366" type="line"/>
			<point x="686" y="377" type="line"/>
			<point x="686" y="531" type="line"/>
			<point x="375" y="527" type="line" smooth="yes"/>
			<point x="154" y="524"/>
			<point x="27" y="421"/>
			<point x="27" y="244" type="curve" smooth="yes"/>
			<point x="27" y="85"/>
			<point x="140" y="-14"/>
		</contour>
		<contour>
			<point x="331" y="92" type="curve" smooth="yes"/>
			<point x="286" y="92"/>
			<point x="259" y="149"/>
			<point x="259" y="246" type="curve" smooth="yes"/>
			<point x="259" y="340"/>
			<point x="287" y="386"/>
			<point x="344" y="386" type="curve" smooth="yes"/>
			<point x="352" y="386" type="line"/>
			<point x="381" y="363"/>
			<point x="398" y="307"/>
			<point x="398" y="233" type="curve" smooth="yes"/>
			<point x="398" y="147"/>
			<point x="372" y="92"/>
		</contour>
	</outline>
</glyph>
<glyph name="phi" format="2">
	<unicode hex="03C6"/>
	<advance width="856"/>
	<outline>
		<contour>
			<point x="346" y="-219" type="line"/>
			<point x="499" y="-219" type="line"/>
			<point x="504" y="-15" type="line"/>
			<point x="708" y="-7"/>
			<point x="829" y="96"/>
			<point x="829" y="262" type="curve" smooth="yes"/>
			<point x="829" y="415"/>
			<point x="711" y="513"/>
			<point x="517" y="521" type="curve"/>
			<point x="525" y="703" type="line"/>
			<point x="507" y="714" type="line"/>
			<point x="336" y="704" type="line"/>
			<point x="342" y="521" type="line"/>
			<point x="142" y="508"/>
			<point x="27" y="409"/>
			<point x="27" y="250" type="curve" smooth="yes"/>
			<point x="27" y="92"/>
			<point x="145" y="-7"/>
			<point x="344" y="-16" type="curve"/>
		</contour>
		<contour>
			<point x="344" y="67" type="line"/>
			<point x="284" y="84"/>
			<point x="258" y="146"/>
			<point x="258" y="271" type="curve" smooth="yes"/>
			<point x="258" y="370"/>
			<point x="290" y="435"/>
			<point x="342" y="441" type="curve"/>
		</contour>
		<contour>
			<point x="505" y="63" type="curve"/>
			<point x="515" y="438" type="line"/>
			<point x="569" y="420"/>
			<point x="596" y="355"/>
			<point x="596" y="243" type="curve" smooth="yes"/>
			<point x="596" y="142"/>
			<point x="557" y="65"/>
		</contour>
	</outline>
</glyph>
<glyph name="kaiSymbol" format="2">
	<unicode hex="03D7"/>
	<advance width="728"/>
	<outline>
		<contour>
			<point x="379" y="-229" type="curve" smooth="yes"/>
			<point x="564" y="-229"/>
			<point x="658" y="-168"/>
			<point x="658" y="-48" type="curve" smooth="yes"/>
			<point x="658" y="22"/>
			<point x="638" y="61"/>
			<point x="548" y="165" type="curve" smooth="yes"/>
			<point x="458" y="269"/>
			<point x="462" y="294"/>
			<point x="462" y="333" type="curve" smooth="yes"/>
			<point x="462" y="375"/>
			<point x="490" y="418"/>
			<point x="523" y="426" type="curve"/>
			<point x="516" y="377"/>
			<point x="548" y="342"/>
			<point x="599" y="342" type="curve" smooth="yes"/>
			<point x="659" y="342"/>
			<point x="693" y="378"/>
			<point x="693" y="442" type="curve" smooth="yes"/>
			<point x="693" y="495"/>
			<point x="653" y="531"/>
			<point x="593" y="531" type="curve" smooth="yes"/>
			<point x="491" y="531"/>
			<point x="377" y="426"/>
			<point x="279" y="243" type="curve"/>
			<point x="281" y="340"/>
			<point x="286" y="421"/>
			<point x="297" y="514" type="curve"/>
			<point x="276" y="525" type="line"/>
			<point x="61" y="513" type="line"/>
			<point x="73" y="0" type="line"/>
			<point x="285" y="0" type="line"/>
			<point x="282" y="147" type="line"/>
			<point x="299" y="180"/>
			<point x="307" y="191"/>
			<point x="331" y="214" type="curve"/>
			<point x="298" y="13"/>
			<point x="323" y="179"/>
			<point x="323" y="162" type="curve" smooth="yes"/>
			<point x="323" y="135"/>
			<point x="339" y="104"/>
			<point x="367" y="76" type="curve" smooth="yes"/>
			<point x="430" y="12"/>
			<point x="448" y="-16"/>
			<point x="448" y="-50" type="curve" smooth="yes"/>
			<point x="448" y="-105"/>
			<point x="418" y="-115"/>
			<point x="259" y="-115" type="curve" smooth="yes"/>
			<point x="250" y="-115" type="line"/>
			<point x="250" y="-209" type="line"/>
			<point x="264" y="-218"/>
			<point x="335" y="-229"/>
		</contour>
	</outline>
</glyph>
<glyph name="KoppaArchaic" format="2">
	<unicode hex="03D8"/>
	<advance width="814"/>
	<outline>
		<contour>
			<point x="337" y="-220" type="line"/>
			<point x="499" y="-208" type="line"/>
			<point x="494" y="-146"/>
			<point x="491" y="-67"/>
			<point x="490" y="-5" type="curve"/>
			<point x="666" y="29"/>
			<point x="779" y="175"/>
			<point x="779" y="366" type="curve" smooth="yes"/>
			<point x="779" y="578"/>
			<point x="641" y="714"/>
			<point x="424" y="714" type="curve" smooth="yes"/>
			<point x="188" y="714"/>
			<point x="35" y="567"/>
			<point x="35" y="340" type="curve" smooth="yes"/>
			<point x="35" y="145"/>
			<point x="147" y="13"/>
			<point x="333" y="-10" type="curve"/>
			<point x="331" y="-60"/>
			<point x="323" y="-145"/>
			<point x="318" y="-209" type="curve"/>
		</contour>
		<contour>
			<point x="495" y="129" type="curve"/>
			<point x="498" y="166"/>
			<point x="501" y="217"/>
			<point x="505" y="255" type="curve"/>
			<point x="486" y="266" type="line"/>
			<point x="324" y="254" type="line"/>
			<point x="327" y="216"/>
			<point x="329" y="172"/>
			<point x="331" y="130" type="curve"/>
			<point x="285" y="170"/>
			<point x="260" y="249"/>
			<point x="260" y="357" type="curve" smooth="yes"/>
			<point x="260" y="515"/>
			<point x="311" y="601"/>
			<point x="404" y="601" type="curve" smooth="yes"/>
			<point x="496" y="601"/>
			<point x="554" y="504"/>
			<point x="554" y="350" type="curve" smooth="yes"/>
			<point x="554" y="244"/>
			<point x="534" y="167"/>
		</contour>
	</outline>
</glyph>
<glyph name="digamma" format="2">
	<unicode hex="03DD"/>
	<advance width="468"/>
	<outline>
		<contour>
			<point x="109" y="-11" type="line"/>
			<point x="315" y="0" type="line"/>
			<point x="315" y="402" type="line"/>
			<point x="448" y="402" type="line"/>
			<point x="448" y="517" type="line"/>
			<point x="315" y="517" type="line"/>
			<point x="315" y="606" type="line" smooth="yes"/>
			<point x="315" y="671"/>
			<point x="326" y="692"/>
			<point x="361" y="692" type="curve" smooth="yes"/>
			<point x="377" y="692"/>
			<point x="392" y="688"/>
			<point x="403" y="681" type="curve"/>
			<point x="385" y="643"/>
			<point x="381" y="631"/>
			<point x="381" y="615" type="curve" smooth="yes"/>
			<point x="381" y="576"/>
			<point x="410" y="555"/>
			<point x="463" y="555" type="curve" smooth="yes"/>
			<point x="523" y="555"/>
			<point x="553" y="582"/>
			<point x="553" y="637" type="curve" smooth="yes"/>
			<point x="553" y="728"/>
			<point x="474" y="782"/>
			<point x="342" y="782" type="curve" smooth="yes"/>
			<point x="178" y="782"/>
			<point x="92" y="701"/>
			<point x="92" y="545" type="curve" smooth="yes"/>
			<point x="92" y="514" type="line"/>
			<point x="15" y="498" type="line"/>
			<point x="15" y="402" type="line"/>
			<point x="90" y="402" type="line"/>
			<point x="90" y="0" type="line"/>
		</contour>
	</outline>
</glyph>
<glyph name="Koppa" format="2">
	<unicode hex="03DE"/>
	<advance width="566"/>
	<outline>
		<contour>
			<point x="325" y="-106" type="curve" smooth="yes"/>
			<point x="375" y="-106"/>
			<point x="429" y="-87"/>
			<point x="464" y="-57" type="curve"/>
			<point x="448" y="21" type="line"/>
			<point x="439" y="18"/>
			<point x="426" y="15"/>
			<point x="418" y="15" type="curve" smooth="yes"/>
			<point x="389" y="15"/>
			<point x="374" y="28"/>
			<point x="374" y="54" type="curve" smooth="yes"/>
			<point x="374" y="87"/>
			<point x="391" y="123"/>
			<point x="435" y="177" type="curve" smooth="yes"/>
			<point x="541" y="310" type="line"/>
			<point x="482" y="407" type="line"/>
			<point x="264" y="289" type="line"/>
			<point x="361" y="380"/>
			<point x="394" y="429"/>
			<point x="394" y="483" type="curve" smooth="yes"/>
			<point x="394" y="556"/>
			<point x="339" y="600"/>
			<point x="250" y="600" type="curve" smooth="yes"/>
			<point x="200" y="600"/>
			<point x="146" y="581"/>
			<point x="111" y="551" type="curve"/>
			<point x="127" y="473" type="line"/>
			<point x="136" y="476"/>
			<point x="149" y="479"/>
			<point x="157" y="479" type="curve" smooth="yes"/>
			<point x="186" y="479"/>
			<point x="201" y="466"/>
			<point x="201" y="440" type="curve" smooth="yes"/>
			<point x="201" y="407"/>
			<point x="184" y="371"/>
			<point x="140" y="317" type="curve" smooth="yes"/>
			<point x="34" y="184" type="line"/>
			<point x="92" y="88" type="line"/>
			<point x="311" y="205" type="line"/>
			<point x="212" y="113"/>
			<point x="181" y="65"/>
			<point x="181" y="4" type="curve" smooth="yes"/>
			<point x="181" y="-61"/>
			<point x="240" y="-106"/>
		</contour>
	</outline>
</glyph>
<glyph name="koppa" format="2">
	<unicode hex="03DF"/>
	<advance width="600"/>
	<outline>
		<contour>
			<point x="318" y="-93" type="curve" smooth="yes"/>
			<point x="368" y="-93"/>
			<point x="432" y="-73"/>
			<point x="474" y="-44" type="curve"/>
			<point x="458" y="34" type="line"/>
			<point x="448" y="30"/>
			<point x="438" y="28"/>
			<point x="428" y="28" type="curve" smooth="yes"/>
			<point x="407" y="28"/>
			<point x="395" y="40"/>
			<point x="395" y="59" type="curve" smooth="yes"/>
			<point x="395" y="75"/>
			<point x="401" y="87"/>
			<point x="428" y="124" type="curve" smooth="yes"/>
			<point x="524" y="256" type="line"/>
			<point x="524" y="321" type="line"/>
			<point x="256" y="320" type="line"/>
			<point x="312" y="372" type="line" smooth="yes"/>
			<point x="356" y="413"/>
			<point x="380" y="458"/>
			<point x="380" y="502" type="curve" smooth="yes"/>
			<point x="380" y="571"/>
			<point x="334" y="611"/>
			<point x="256" y="611" type="curve" smooth="yes"/>
			<point x="206" y="611"/>
			<point x="142" y="591"/>
			<point x="100" y="562" type="curve"/>
			<point x="116" y="484" type="line"/>
			<point x="126" y="488"/>
			<point x="136" y="490"/>
			<point x="146" y="490" type="curve" smooth="yes"/>
			<point x="167" y="490"/>
			<point x="179" y="478"/>
			<point x="179" y="459" type="curve" smooth="yes"/>
			<point x="179" y="442"/>
			<point x="172" y="428"/>
			<point x="146" y="394" type="curve" smooth="yes"/>
			<point x="50" y="268" type="line"/>
			<point x="50" y="203" type="line"/>
			<point x="316" y="203" type="line"/>
			<point x="262" y="146" type="line" smooth="yes"/>
			<point x="215" y="96"/>
			<point x="194" y="55"/>
			<point x="194" y="16" type="curve" smooth="yes"/>
			<point x="194" y="-53"/>
			<point x="240" y="-93"/>
		</contour>
	</outline>
</glyph>
<glyph name="Dje-cy" format="2">
	<unicode hex="0402"/>
	<advance width="951"/>
	<outline>
		<contour>
			<point x="663" y="-134" type="line"/>
			<point x="824" y="-60"/>
			<point x="931" y="78"/>
			<point x="931" y="239" type="curve" smooth="yes"/>
			<point x="931" y="376"/>
			<point x="840" y="452"/>
			<point x="685" y="452" type="curve" smooth="yes"/>
			<point x="609" y="452"/>
			<point x="549" y="433"/>
			<point x="517" y="419" type="curve"/>
			<point x="517" y="586" type="line"/>
			<point x="535" y="586" type="line" smooth="yes"/>
			<point x="588" y="586"/>
			<point x="613" y="558"/>
			<point x="635" y="487" type="curve"/>
			<point x="771" y="515" type="line"/>
			<point x="743" y="700" type="line"/>
			<point x="34" y="700" type="line"/>
			<point x="5" y="474" type="line"/>
			<point x="142" y="449" type="line"/>
			<point x="163" y="557"/>
			<point x="185" y="586"/>
			<point x="246" y="586" type="curve" smooth="yes"/>
			<point x="282" y="586" type="line"/>
			<point x="282" y="153" type="line" smooth="yes"/>
			<point x="282" y="116"/>
			<point x="275" y="106"/>
			<point x="251" y="102" type="curve" smooth="yes"/>
			<point x="224" y="98" type="line"/>
			<point x="224" y="0" type="line"/>
			<point x="575" y="0" type="line"/>
			<point x="575" y="98" type="line"/>
			<point x="550" y="104" type="line" smooth="yes"/>
			<point x="524" y="110"/>
			<point x="517" y="117"/>
			<point x="517" y="151" type="curve" smooth="yes"/>
			<point x="517" y="296" type="line"/>
			<point x="544" y="309"/>
			<point x="563" y="315"/>
			<point x="602" y="315" type="curve" smooth="yes"/>
			<point x="673" y="315"/>
			<point x="706" y="271"/>
			<point x="706" y="183" type="curve" smooth="yes"/>
			<point x="706" y="72"/>
			<point x="666" y="-9"/>
			<point x="604" y="-66" type="curve"/>
		</contour>
	</outline>
</glyph>
<glyph name="E-cy" format="2">
	<unicode hex="0404"/>
	<advance width="729"/>
	<outline>
		<contour>
			<point x="398" y="-14" type="curve" smooth="yes"/>
			<point x="552" y="-14"/>
			<point x="646" y="70"/>
			<point x="689" y="116" type="curve"/>
			<point x="621" y="214" type="line"/>
			<point x="595" y="191"/>
			<point x="528" y="147"/>
			<point x="445" y="147" type="curve" smooth="yes"/>
			<point x="382" y="147"/>
			<point x="301" y="172"/>
			<point x="281" y="284" type="curve"/>
			<point x="614" y="284" type="line"/>
			<point x="614" y="403" type="line"/>
			<point x="278" y="403" type="line"/>
			<point x="283" y="513"/>
			<point x="324" y="581"/>
			<point x="415" y="581" type="curve" smooth="yes"/>
			<point x="477" y="581"/>
			<point x="530" y="554"/>
			<point x="568" y="445" type="curve"/>
			<point x="680" y="466" type="line"/>
			<point x="643" y="714" type="line"/>
			<point x="559" y="714" type="line"/>
			<point x="546" y="667" type="line"/>
			<point x="503" y="696"/>
			<point x="458" y="714"/>
			<point x="393" y="714" type="curve" smooth="yes"/>
			<point x="172" y="714"/>
			<point x="35" y="569"/>
			<point x="35" y="345" type="curve" smooth="yes"/>
			<point x="35" y="111"/>
			<point x="167" y="-14"/>
		</contour>
	</outline>
	<anchor name="top" x="389" y="730"/>
</glyph>
<glyph name="Zhe-cy" format="2">
	<unicode hex="0416"/>
	<advance width="1181"/>
	<outline>
		<contour>
			<point x="171" y="-13" type="curve" smooth="yes"/>
			<point x="295" y="-13"/>
			<point x="337" y="52"/>
			<point x="373" y="171" type="curve" smooth="yes"/>
			<point x="399" y="256"/>
			<point x="423" y="300"/>
			<point x="454" y="300" type="curve" smooth="yes"/>
			<point x="473" y="300" type="line"/>
			<point x="473" y="155" type="line" smooth="yes"/>
			<point x="473" y="115"/>
			<point x="466" y="109"/>
			<point x="442" y="104" type="curve" smooth="yes"/>
			<point x="414" y="98" type="line"/>
			<point x="414" y="0" type="line"/>
			<point x="766" y="0" type="line"/>
			<point x="766" y="98" type="line"/>
			<point x="740" y="104" type="line" smooth="yes"/>
			<point x="715" y="110"/>
			<point x="708" y="114"/>
			<point x="708" y="151" type="curve" smooth="yes"/>
			<point x="708" y="300" type="line"/>
			<point x="727" y="300" type="line" smooth="yes"/>
			<point x="758" y="300"/>
			<point x="782" y="256"/>
			<point x="808" y="171" type="curve" smooth="yes"/>
			<point x="844" y="52"/>
			<point x="886" y="-13"/>
			<point x="1010" y="-13" type="curve" smooth="yes"/>
			<point x="1074" y="-13"/>
			<point x="1128" y="8"/>
			<point x="1171" y="49" type="curve"/>
			<point x="1134" y="128" type="line"/>
			<point x="1121" y="121"/>
			<point x="1110" y="116"/>
			<point x="1097" y="116" type="curve" smooth="yes"/>
			<point x="1078" y="116"/>
			<point x="1068" y="137"/>
			<point x="1042" y="192" type="curve" smooth="yes"/>
			<point x="1009" y="262"/>
			<point x="963" y="347"/>
			<point x="864" y="365" type="curve"/>
			<point x="864" y="370" type="line"/>
			<point x="890" y="387"/>
			<point x="910" y="404"/>
			<point x="929" y="434" type="curve" smooth="yes"/>
			<point x="952" y="470"/>
			<point x="966" y="510"/>
			<point x="974" y="551" type="curve"/>
			<point x="991" y="525"/>
			<point x="1013" y="499"/>
			<point x="1052" y="499" type="curve" smooth="yes"/>
			<point x="1098" y="499"/>
			<point x="1145" y="550"/>
			<point x="1145" y="617" type="curve" smooth="yes"/>
			<point x="1145" y="667"/>
			<point x="1088" y="709"/>
			<point x="1020" y="709" type="curve" smooth="yes"/>
			<point x="938" y="709"/>
			<point x="881" y="666"/>
			<point x="848" y="564" type="curve" smooth="yes"/>
			<point x="812" y="454"/>
			<point x="781" y="442"/>
			<point x="747" y="430" type="curve" smooth="yes"/>
			<point x="732" y="425"/>
			<point x="723" y="423"/>
			<point x="708" y="423" type="curve"/>
			<point x="708" y="545" type="line" smooth="yes"/>
			<point x="708" y="581"/>
			<point x="714" y="591"/>
			<point x="738" y="596" type="curve" smooth="yes"/>
			<point x="766" y="602" type="line"/>
			<point x="766" y="700" type="line"/>
			<point x="414" y="700" type="line"/>
			<point x="414" y="602" type="line"/>
			<point x="440" y="598" type="line" smooth="yes"/>
			<point x="466" y="594"/>
			<point x="473" y="585"/>
			<point x="473" y="548" type="curve" smooth="yes"/>
			<point x="473" y="423" type="line"/>
			<point x="458" y="423"/>
			<point x="446" y="424"/>
			<point x="423" y="432" type="curve" smooth="yes"/>
			<point x="391" y="443"/>
			<point x="369" y="460"/>
			<point x="333" y="564" type="curve" smooth="yes"/>
			<point x="298" y="666"/>
			<point x="243" y="709"/>
			<point x="161" y="709" type="curve" smooth="yes"/>
			<point x="93" y="709"/>
			<point x="36" y="667"/>
			<point x="36" y="617" type="curve" smooth="yes"/>
			<point x="36" y="550"/>
			<point x="83" y="499"/>
			<point x="129" y="499" type="curve" smooth="yes"/>
			<point x="168" y="499"/>
			<point x="190" y="525"/>
			<point x="207" y="551" type="curve"/>
			<point x="215" y="510"/>
			<point x="229" y="470"/>
			<point x="252" y="434" type="curve" smooth="yes"/>
			<point x="271" y="404"/>
			<point x="291" y="387"/>
			<point x="317" y="370" type="curve"/>
			<point x="317" y="365" type="line"/>
			<point x="218" y="347"/>
			<point x="172" y="262"/>
			<point x="139" y="192" type="curve" smooth="yes"/>
			<point x="113" y="137"/>
			<point x="103" y="116"/>
			<point x="84" y="116" type="curve" smooth="yes"/>
			<point x="71" y="116"/>
			<point x="60" y="121"/>
			<point x="47" y="128" type="curve"/>
			<point x="10" y="49" type="line"/>
			<point x="53" y="8"/>
			<point x="107" y="-13"/>
		</contour>
	</outline>
</glyph>
<glyph name="Ze-cy" format="2">
	<unicode hex="0417"/>
	<advance width="666"/>
	<outline>
		<contour>
			<point x="328" y="-14" type="curve" smooth="yes"/>
			<point x="536" y="-14"/>
			<point x="644" y="87"/>
			<point x="644" y="198" type="curve" smooth="yes"/>
			<point x="644" y="315"/>
			<point x="542" y="359"/>
			<point x="424" y="373" type="curve"/>
			<point x="424" y="378" type="line"/>
			<point x="528" y="390"/>
			<point x="615" y="440"/>
			<point x="615" y="544" type="curve" smooth="yes"/>
			<point x="615" y="667"/>
			<point x="505" y="715"/>
			<point x="373" y="715" type="curve" smooth="yes"/>
			<point x="293" y="715"/>
			<point x="221" y="691"/>
			<point x="185" y="658" type="curve"/>
			<point x="167" y="710" type="line"/>
			<point x="53" y="710" type="line"/>
			<point x="72" y="473" type="line"/>
			<point x="157" y="473" type="line"/>
			<point x="161" y="565"/>
			<point x="225" y="603"/>
			<point x="289" y="603" type="curve" smooth="yes"/>
			<point x="346" y="603"/>
			<point x="388" y="581"/>
			<point x="388" y="519" type="curve" smooth="yes"/>
			<point x="388" y="448"/>
			<point x="339" y="420"/>
			<point x="270" y="420" type="curve" smooth="yes"/>
			<point x="157" y="420" type="line"/>
			<point x="157" y="300" type="line"/>
			<point x="294" y="300" type="line" smooth="yes"/>
			<point x="356" y="300"/>
			<point x="405" y="278"/>
			<point x="405" y="209" type="curve" smooth="yes"/>
			<point x="405" y="150"/>
			<point x="354" y="113"/>
			<point x="296" y="113" type="curve" smooth="yes"/>
			<point x="225" y="113"/>
			<point x="173" y="138"/>
			<point x="143" y="227" type="curve"/>
			<point x="25" y="189" type="line"/>
			<point x="62" y="57"/>
			<point x="163" y="-14"/>
		</contour>
	</outline>
</glyph>
<glyph name="Ka-cy" format="2">
	<unicode hex="041A"/>
	<advance width="817"/>
	<outline>
		<contour>
			<point x="646" y="-13" type="curve" smooth="yes"/>
			<point x="710" y="-13"/>
			<point x="764" y="8"/>
			<point x="807" y="49" type="curve"/>
			<point x="770" y="128" type="line"/>
			<point x="757" y="121"/>
			<point x="746" y="116"/>
			<point x="733" y="116" type="curve" smooth="yes"/>
			<point x="714" y="116"/>
			<point x="704" y="137"/>
			<point x="678" y="192" type="curve" smooth="yes"/>
			<point x="645" y="262"/>
			<point x="593" y="348"/>
			<point x="496" y="366" type="curve"/>
			<point x="496" y="371" type="line"/>
			<point x="525" y="391"/>
			<point x="543" y="408"/>
			<point x="562" y="438" type="curve" smooth="yes"/>
			<point x="585" y="474"/>
			<point x="597" y="513"/>
			<point x="605" y="554" type="curve"/>
			<point x="622" y="528"/>
			<point x="649" y="499"/>
			<point x="688" y="499" type="curve" smooth="yes"/>
			<point x="744" y="499"/>
			<point x="791" y="559"/>
			<point x="791" y="626" type="curve" smooth="yes"/>
			<point x="791" y="676"/>
			<point x="724" y="709"/>
			<point x="656" y="709" type="curve" smooth="yes"/>
			<point x="574" y="709"/>
			<point x="517" y="666"/>
			<point x="484" y="564" type="curve" smooth="yes"/>
			<point x="448" y="454"/>
			<point x="427" y="440"/>
			<point x="392" y="429" type="curve" smooth="yes"/>
			<point x="375" y="424"/>
			<point x="352" y="422"/>
			<point x="334" y="422" type="curve"/>
			<point x="334" y="545" type="line" smooth="yes"/>
			<point x="334" y="581"/>
			<point x="340" y="591"/>
			<point x="364" y="596" type="curve" smooth="yes"/>
			<point x="392" y="602" type="line"/>
			<point x="392" y="700" type="line"/>
			<point x="40" y="700" type="line"/>
			<point x="40" y="602" type="line"/>
			<point x="66" y="598" type="line" smooth="yes"/>
			<point x="92" y="594"/>
			<point x="99" y="585"/>
			<point x="99" y="548" type="curve" smooth="yes"/>
			<point x="99" y="155" type="line" smooth="yes"/>
			<point x="99" y="115"/>
			<point x="92" y="109"/>
			<point x="68" y="104" type="curve" smooth="yes"/>
			<point x="40" y="98" type="line"/>
			<point x="40" y="0" type="line"/>
			<point x="392" y="0" type="line"/>
			<point x="392" y="98" type="line"/>
			<point x="366" y="104" type="line" smooth="yes"/>
			<point x="341" y="110"/>
			<point x="334" y="114"/>
			<point x="334" y="151" type="curve" smooth="yes"/>
			<point x="334" y="300" type="line"/>
			<point x="363" y="300" type="line" smooth="yes"/>
			<point x="394" y="300"/>
			<point x="418" y="256"/>
			<point x="444" y="171" type="curve" smooth="yes"/>
			<point x="480" y="52"/>
			<point x="522" y="-13"/>
		</contour>
	</outline>
	<anchor name="top" x="432" y="730"/>
</glyph>
<glyph name="Che-cy" format="2">
	<unicode hex="0427"/>
	<advance width="820"/>
	<outline>
		<contour>
			<point x="409" y="0" type="line"/>
			<point x="780" y="0" type="line"/>
			<point x="780" y="98" type="line"/>
			<point x="755" y="104" type="line" smooth="yes"/>
			<point x="729" y="110"/>
			<point x="722" y="114"/>
			<point x="722" y="151" type="curve" smooth="yes"/>
			<point x="722" y="547" type="line" smooth="yes"/>
			<point x="722" y="584"/>
			<point x="729" y="594"/>
			<point x="753" y="598" type="curve" smooth="yes"/>
			<point x="780" y="602" type="line"/>
			<point x="780" y="700" type="line"/>
			<point x="429" y="700" type="line"/>
			<point x="429" y="602" type="line"/>
			<point x="454" y="596" type="line" smooth="yes"/>
			<point x="480" y="590"/>
			<point x="487" y="583"/>
			<point x="487" y="549" type="curve" smooth="yes"/>
			<point x="487" y="384" type="line"/>
			<point x="460" y="371"/>
			<point x="427" y="363"/>
			<point x="395" y="363" type="curve" smooth="yes"/>
			<point x="337" y="363"/>
			<point x="308" y="383"/>
			<point x="308" y="441" type="curve" smooth="yes"/>
			<point x="308" y="547" type="line" smooth="yes"/>
			<point x="308" y="584"/>
			<point x="315" y="594"/>
			<point x="339" y="598" type="curve" smooth="yes"/>
			<point x="366" y="602" type="line"/>
			<point x="366" y="700" type="line"/>
			<point x="15" y="700" type="line"/>
			<point x="15" y="602" type="line"/>
			<point x="40" y="596" type="line" smooth="yes"/>
			<point x="66" y="590"/>
			<point x="73" y="583"/>
			<point x="73" y="549" type="curve" smooth="yes"/>
			<point x="73" y="443" type="line" smooth="yes"/>
			<point x="73" y="286"/>
			<point x="180" y="224"/>
			<point x="325" y="224" type="curve" smooth="yes"/>
			<point x="401" y="224"/>
			<point x="455" y="243"/>
			<point x="487" y="257" type="curve"/>
			<point x="487" y="155" type="line" smooth="yes"/>
			<point x="487" y="115"/>
			<point x="480" y="107"/>
			<point x="456" y="104" type="curve" smooth="yes"/>
			<point x="409" y="98" type="line"/>
		</contour>
	</outline>
</glyph>
<glyph name="Yeru-cy" format="2">
	<unicode hex="042B"/>
	<advance width="1066"/>
	<outline>
		<contour>
			<point x="40" y="0" type="line"/>
			<point x="379" y="0" type="line" smooth="yes"/>
			<point x="571" y="0"/>
			<point x="683" y="83"/>
			<point x="683" y="233" type="curve" smooth="yes"/>
			<point x="683" y="377"/>
			<point x="564" y="447"/>
			<point x="380" y="447" type="curve" smooth="yes"/>
			<point x="361" y="447"/>
			<point x="349" y="447"/>
			<point x="334" y="445" type="curve"/>
			<point x="334" y="545" type="line"/>
			<point x="334" y="581"/>
			<point x="340" y="591"/>
			<point x="364" y="596" type="curve" smooth="yes"/>
			<point x="392" y="602" type="line"/>
			<point x="392" y="700" type="line"/>
			<point x="40" y="700" type="line"/>
			<point x="40" y="602" type="line"/>
			<point x="66" y="598" type="line" smooth="yes"/>
			<point x="92" y="594"/>
			<point x="99" y="585"/>
			<point x="99" y="548" type="curve" smooth="yes"/>
			<point x="99" y="155" type="line" smooth="yes"/>
			<point x="99" y="115"/>
			<point x="92" y="109"/>
			<point x="68" y="104" type="curve" smooth="yes"/>
			<point x="40" y="98" type="line"/>
		</contour>
		<contour>
			<point x="334" y="112" type="curve"/>
			<point x="334" y="328" type="line"/>
			<point x="346" y="330"/>
			<point x="353" y="330"/>
			<point x="365" y="330" type="curve" smooth="yes"/>
			<point x="423" y="330"/>
			<point x="448" y="299"/>
			<point x="448" y="218" type="curve" smooth="yes"/>
			<point x="448" y="131"/>
			<point x="417" y="106"/>
			<point x="374" y="106" type="curve" smooth="yes"/>
			<point x="357" y="106"/>
			<point x="349" y="108"/>
		</contour>
		<contour>
			<point x="673" y="0" type="line"/>
			<point x="1026" y="0" type="line"/>
			<point x="1026" y="98" type="line"/>
			<point x="999" y="104" type="line" smooth="yes"/>
			<point x="973" y="110"/>
			<point x="967" y="114"/>
			<point x="967" y="151" type="curve" smooth="yes"/>
			<point x="967" y="546" type="line" smooth="yes"/>
			<point x="967" y="583"/>
			<point x="974" y="591"/>
			<point x="997" y="596" type="curve" smooth="yes"/>
			<point x="1026" y="602" type="line"/>
			<point x="1026" y="700" type="line"/>
			<point x="673" y="700" type="line"/>
			<point x="673" y="602" type="line"/>
			<point x="698" y="598" type="line" smooth="yes"/>
			<point x="727" y="593"/>
			<point x="732" y="583"/>
			<point x="732" y="549" type="curve" smooth="yes"/>
			<point x="732" y="154" type="line" smooth="yes"/>
			<point x="732" y="122"/>
			<point x="729" y="110"/>
			<point x="702" y="104" type="curve" smooth="yes"/>
			<point x="673" y="98" type="line"/>
		</contour>
	</outline>
	<anchor name="top" x="522" y="730"/>
</glyph>
<glyph name="Ereversed-cy" format="2">
	<unicode hex="042D"/>
	<advance width="734"/>
	<outline>
		<contour>
			<point x="340" y="-14" type="curve" smooth="yes"/>
			<point x="565" y="-14"/>
			<point x="699" y="131"/>
			<point x="699" y="367" type="curve" smooth="yes"/>
			<point x="699" y="598"/>
			<point x="562" y="714"/>
			<point x="383" y="714" type="curve" smooth="yes"/>
			<point x="287" y="714"/>
			<point x="220" y="688"/>
			<point x="176" y="641" type="curve"/>
			<point x="162" y="709" type="line"/>
			<point x="48" y="709" type="line"/>
			<point x="67" y="439" type="line"/>
			<point x="152" y="439" type="line"/>
			<point x="156" y="526"/>
			<point x="220" y="581"/>
			<point x="299" y="581" type="curve" smooth="yes"/>
			<point x="411" y="581"/>
			<point x="453" y="510"/>
			<point x="457" y="387" type="curve"/>
			<point x="138" y="387" type="line"/>
			<point x="138" y="287" type="line"/>
			<point x="457" y="287" type="line"/>
			<point x="446" y="168"/>
			<point x="372" y="136"/>
			<point x="299" y="136" type="curve" smooth="yes"/>
			<point x="219" y="136"/>
			<point x="171" y="177"/>
			<point x="141" y="218" type="curve"/>
			<point x="40" y="151" type="line"/>
			<point x="83" y="65"/>
			<point x="187" y="-14"/>
		</contour>
	</outline>
	<anchor name="top" x="352" y="730"/>
</glyph>
<glyph name="ve-cy" format="2">
	<unicode hex="0432"/>
	<advance width="635"/>
	<outline>
		<contour>
			<point x="33" y="0" type="line"/>
			<point x="392" y="0" type="line" smooth="yes"/>
			<point x="558" y="0"/>
			<point x="615" y="77"/>
			<point x="615" y="152" type="curve" smooth="yes"/>
			<point x="615" y="223"/>
			<point x="570" y="264"/>
			<point x="469" y="280" type="curve"/>
			<point x="469" y="282" type="line"/>
			<point x="558" y="302"/>
			<point x="592" y="352"/>
			<point x="592" y="400" type="curve" smooth="yes"/>
			<point x="592" y="467"/>
			<point x="545" y="522"/>
			<point x="387" y="522" type="curve" smooth="yes"/>
			<point x="34" y="522" type="line"/>
			<point x="25" y="427" type="line"/>
			<point x="65" y="421" type="line" smooth="yes"/>
			<point x="83" y="418"/>
			<point x="91" y="408"/>
			<point x="91" y="373" type="curve" smooth="yes"/>
			<point x="91" y="149" type="line" smooth="yes"/>
			<point x="91" y="114"/>
			<point x="86" y="105"/>
			<point x="65" y="101" type="curve" smooth="yes"/>
			<point x="33" y="95" type="line"/>
		</contour>
		<contour>
			<point x="338" y="85" type="curve" smooth="yes"/>
			<point x="331" y="85"/>
			<point x="323" y="85"/>
			<point x="316" y="86" type="curve"/>
			<point x="316" y="224" type="line"/>
			<point x="339" y="224" type="line" smooth="yes"/>
			<point x="379" y="224"/>
			<point x="396" y="203"/>
			<point x="396" y="155" type="curve" smooth="yes"/>
			<point x="396" y="108"/>
			<point x="375" y="85"/>
		</contour>
		<contour>
			<point x="316" y="300" type="line"/>
			<point x="316" y="438" type="line"/>
			<point x="324" y="439"/>
			<point x="332" y="439"/>
			<point x="339" y="439" type="curve" smooth="yes"/>
			<point x="367" y="439"/>
			<point x="378" y="416"/>
			<point x="378" y="374" type="curve" smooth="yes"/>
			<point x="378" y="326"/>
			<point x="368" y="300"/>
			<point x="338" y="300" type="curve" smooth="yes"/>
		</contour>
	</outline>
</glyph>
<glyph name="de-cy" format="2">
	<unicode hex="0434"/>
	<advance width="671"/>
	<outline>
		<contour>
			<point x="541" y="-159" type="line"/>
			<point x="661" y="-146" type="line"/>
			<point x="661" y="114" type="line"/>
			<point x="570" y="114" type="line"/>
			<point x="570" y="382" type="line" smooth="yes"/>
			<point x="570" y="409"/>
			<point x="574" y="419"/>
			<point x="600" y="423" type="curve" smooth="yes"/>
			<point x="627" y="427" type="line"/>
			<point x="627" y="522" type="line"/>
			<point x="80" y="522" type="line"/>
			<point x="80" y="427" type="line"/>
			<point x="112" y="421" type="line" smooth="yes"/>
			<point x="131" y="417"/>
			<point x="138" y="409"/>
			<point x="138" y="381" type="curve" smooth="yes"/>
			<point x="138" y="271"/>
			<point x="124" y="180"/>
			<point x="100" y="114" type="curve"/>
			<point x="5" y="114" type="line"/>
			<point x="5" y="-159" type="line"/>
			<point x="125" y="-152" type="line"/>
			<point x="137" y="-77" type="line" smooth="yes"/>
			<point x="145" y="-24"/>
			<point x="166" y="0"/>
			<point x="228" y="0" type="curve" smooth="yes"/>
			<point x="438" y="0" type="line" smooth="yes"/>
			<point x="500" y="0"/>
			<point x="521" y="-24"/>
			<point x="529" y="-77" type="curve" smooth="yes"/>
		</contour>
		<contour>
			<point x="227" y="114" type="line"/>
			<point x="236" y="134"/>
			<point x="244" y="157"/>
			<point x="250" y="183" type="curve" smooth="yes"/>
			<point x="265" y="249"/>
			<point x="273" y="330"/>
			<point x="273" y="407" type="curve"/>
			<point x="345" y="407" type="line"/>
			<point x="345" y="114" type="line"/>
		</contour>
	</outline>
	<guideline x="538" y="-179" angle="0"/>
</glyph>
<glyph name="zhe-cy" format="2">
	<unicode hex="0436"/>
	<advance width="991"/>
	<outline>
		<contour>
			<point x="140" y="-7" type="curve" smooth="yes"/>
			<point x="224" y="-7"/>
			<point x="273" y="23"/>
			<point x="303" y="71" type="curve" smooth="yes"/>
			<point x="333" y="119"/>
			<point x="344" y="179"/>
			<point x="357" y="197" type="curve" smooth="yes"/>
			<point x="367" y="211"/>
			<point x="375" y="213"/>
			<point x="383" y="213" type="curve"/>
			<point x="383" y="141" type="line" smooth="yes"/>
			<point x="383" y="113"/>
			<point x="380" y="101"/>
			<point x="359" y="97" type="curve" smooth="yes"/>
			<point x="342" y="94" type="line"/>
			<point x="342" y="0" type="line"/>
			<point x="649" y="0" type="line"/>
			<point x="649" y="94" type="line"/>
			<point x="632" y="97" type="line" smooth="yes"/>
			<point x="611" y="101"/>
			<point x="608" y="113"/>
			<point x="608" y="141" type="curve" smooth="yes"/>
			<point x="608" y="213" type="line"/>
			<point x="619" y="213"/>
			<point x="626" y="211"/>
			<point x="634" y="197" type="curve" smooth="yes"/>
			<point x="644" y="180"/>
			<point x="658" y="119"/>
			<point x="688" y="71" type="curve" smooth="yes"/>
			<point x="718" y="23"/>
			<point x="767" y="-7"/>
			<point x="851" y="-7" type="curve" smooth="yes"/>
			<point x="905" y="-7"/>
			<point x="955" y="1"/>
			<point x="986" y="28" type="curve"/>
			<point x="960" y="99" type="line"/>
			<point x="951" y="96"/>
			<point x="942" y="93"/>
			<point x="932" y="93" type="curve" smooth="yes"/>
			<point x="911" y="93"/>
			<point x="895" y="110"/>
			<point x="861" y="171" type="curve" smooth="yes"/>
			<point x="829" y="229"/>
			<point x="784" y="252"/>
			<point x="720" y="267" type="curve"/>
			<point x="720" y="268" type="line"/>
			<point x="745" y="283"/>
			<point x="760" y="302"/>
			<point x="770" y="320" type="curve" smooth="yes"/>
			<point x="780" y="338"/>
			<point x="795" y="368"/>
			<point x="806" y="398" type="curve"/>
			<point x="823" y="366"/>
			<point x="847" y="350"/>
			<point x="880" y="350" type="curve" smooth="yes"/>
			<point x="920" y="350"/>
			<point x="964" y="398"/>
			<point x="964" y="448" type="curve" smooth="yes"/>
			<point x="964" y="495"/>
			<point x="920" y="521"/>
			<point x="861" y="521" type="curve" smooth="yes"/>
			<point x="794" y="521"/>
			<point x="746" y="497"/>
			<point x="705" y="405" type="curve" smooth="yes"/>
			<point x="677" y="343"/>
			<point x="663" y="318"/>
			<point x="649" y="307" type="curve" smooth="yes"/>
			<point x="635" y="296"/>
			<point x="625" y="296"/>
			<point x="608" y="296" type="curve"/>
			<point x="608" y="381" type="line" smooth="yes"/>
			<point x="608" y="409"/>
			<point x="611" y="421"/>
			<point x="632" y="425" type="curve" smooth="yes"/>
			<point x="649" y="428" type="line"/>
			<point x="649" y="522" type="line"/>
			<point x="342" y="522" type="line"/>
			<point x="342" y="428" type="line"/>
			<point x="359" y="425" type="line" smooth="yes"/>
			<point x="380" y="421"/>
			<point x="383" y="409"/>
			<point x="383" y="381" type="curve" smooth="yes"/>
			<point x="383" y="296" type="line"/>
			<point x="366" y="296"/>
			<point x="356" y="296"/>
			<point x="342" y="307" type="curve" smooth="yes"/>
			<point x="329" y="317"/>
			<point x="314" y="343"/>
			<point x="286" y="405" type="curve" smooth="yes"/>
			<point x="245" y="497"/>
			<point x="197" y="521"/>
			<point x="130" y="521" type="curve" smooth="yes"/>
			<point x="71" y="521"/>
			<point x="27" y="495"/>
			<point x="27" y="448" type="curve" smooth="yes"/>
			<point x="27" y="398"/>
			<point x="71" y="350"/>
			<point x="111" y="350" type="curve" smooth="yes"/>
			<point x="144" y="350"/>
			<point x="168" y="366"/>
			<point x="185" y="398" type="curve"/>
			<point x="196" y="368"/>
			<point x="210" y="338"/>
			<point x="221" y="320" type="curve" smooth="yes"/>
			<point x="231" y="304"/>
			<point x="246" y="283"/>
			<point x="271" y="268" type="curve"/>
			<point x="271" y="267" type="line"/>
			<point x="207" y="252"/>
			<point x="162" y="229"/>
			<point x="130" y="171" type="curve" smooth="yes"/>
			<point x="96" y="110"/>
			<point x="80" y="93"/>
			<point x="59" y="93" type="curve" smooth="yes"/>
			<point x="49" y="93"/>
			<point x="40" y="96"/>
			<point x="31" y="99" type="curve"/>
			<point x="5" y="28" type="line"/>
			<point x="33" y="5"/>
			<point x="85" y="-7"/>
		</contour>
	</outline>
</glyph>
<glyph name="ze-cy" format="2">
	<unicode hex="0437"/>
	<advance width="568"/>
	<outline>
		<contour>
			<point x="272" y="-14" type="curve" smooth="yes"/>
			<point x="460" y="-14"/>
			<point x="548" y="52"/>
			<point x="548" y="146" type="curve" smooth="yes"/>
			<point x="548" y="225"/>
			<point x="485" y="263"/>
			<point x="381" y="270" type="curve"/>
			<point x="381" y="272" type="line"/>
			<point x="483" y="286"/>
			<point x="531" y="340"/>
			<point x="531" y="404" type="curve" smooth="yes"/>
			<point x="531" y="492"/>
			<point x="440" y="539"/>
			<point x="343" y="539" type="curve" smooth="yes"/>
			<point x="263" y="539"/>
			<point x="215" y="517"/>
			<point x="179" y="472" type="curve"/>
			<point x="165" y="521" type="line"/>
			<point x="61" y="521" type="line"/>
			<point x="71" y="332" type="line"/>
			<point x="163" y="341" type="line"/>
			<point x="163" y="410"/>
			<point x="199" y="433"/>
			<point x="242" y="433" type="curve" smooth="yes"/>
			<point x="280" y="433"/>
			<point x="308" y="413"/>
			<point x="308" y="371" type="curve" smooth="yes"/>
			<point x="308" y="330"/>
			<point x="286" y="299"/>
			<point x="236" y="299" type="curve" smooth="yes"/>
			<point x="115" y="299" type="line"/>
			<point x="115" y="218" type="line"/>
			<point x="250" y="218" type="line" smooth="yes"/>
			<point x="303" y="218"/>
			<point x="324" y="193"/>
			<point x="324" y="143" type="curve" smooth="yes"/>
			<point x="324" y="91"/>
			<point x="286" y="68"/>
			<point x="240" y="68" type="curve" smooth="yes"/>
			<point x="215" y="68"/>
			<point x="201" y="72"/>
			<point x="186" y="79" type="curve"/>
			<point x="201" y="92"/>
			<point x="212" y="115"/>
			<point x="212" y="134" type="curve" smooth="yes"/>
			<point x="212" y="159"/>
			<point x="192" y="190"/>
			<point x="126" y="190" type="curve" smooth="yes"/>
			<point x="69" y="190"/>
			<point x="35" y="158"/>
			<point x="35" y="106" type="curve" smooth="yes"/>
			<point x="35" y="39"/>
			<point x="111" y="-14"/>
		</contour>
	</outline>
</glyph>
<glyph name="ii-cy" format="2">
	<unicode hex="0438"/>
	<advance width="737"/>
	<outline>
		<contour>
			<point x="25" y="0" type="line"/>
			<point x="349" y="0" type="line"/>
			<point x="349" y="94" type="line"/>
			<point x="332" y="97" type="line" smooth="yes"/>
			<point x="311" y="101"/>
			<point x="308" y="113"/>
			<point x="308" y="141" type="curve" smooth="yes"/>
			<point x="308" y="161" type="line"/>
			<point x="430" y="239" type="line"/>
			<point x="430" y="139" type="line" smooth="yes"/>
			<point x="430" y="111"/>
			<point x="426" y="101"/>
			<point x="405" y="97" type="curve" smooth="yes"/>
			<point x="389" y="94" type="line"/>
			<point x="389" y="0" type="line"/>
			<point x="712" y="0" type="line"/>
			<point x="712" y="95" type="line"/>
			<point x="685" y="99" type="line" smooth="yes"/>
			<point x="659" y="103"/>
			<point x="655" y="113"/>
			<point x="655" y="140" type="curve" smooth="yes"/>
			<point x="655" y="382" type="line" smooth="yes"/>
			<point x="655" y="409"/>
			<point x="659" y="419"/>
			<point x="685" y="423" type="curve" smooth="yes"/>
			<point x="712" y="427" type="line"/>
			<point x="712" y="522" type="line"/>
			<point x="389" y="522" type="line"/>
			<point x="389" y="428" type="line"/>
			<point x="405" y="425" type="line" smooth="yes"/>
			<point x="426" y="421"/>
			<point x="430" y="411"/>
			<point x="430" y="383" type="curve" smooth="yes"/>
			<point x="430" y="366" type="line"/>
			<point x="308" y="288" type="line"/>
			<point x="308" y="381" type="line" smooth="yes"/>
			<point x="308" y="409"/>
			<point x="311" y="421"/>
			<point x="332" y="425" type="curve" smooth="yes"/>
			<point x="349" y="428" type="line"/>
			<point x="349" y="522" type="line"/>
			<point x="25" y="522" type="line"/>
			<point x="25" y="427" type="line"/>
			<point x="57" y="421" type="line" smooth="yes"/>
			<point x="78" y="417"/>
			<point x="83" y="408"/>
			<point x="83" y="373" type="curve" smooth="yes"/>
			<point x="83" y="149" type="line" smooth="yes"/>
			<point x="83" y="114"/>
			<point x="78" y="105"/>
			<point x="57" y="101" type="curve" smooth="yes"/>
			<point x="25" y="95" type="line"/>
		</contour>
	</outline>
	<anchor name="top" x="381" y="550"/>
</glyph>
